<svg width="16" height="14" viewBox="0 0 16 14" fill="none" xmlns="http://www.w3.org/2000/svg">
<g clip-path="url(#clip0_4_502)">
<path fill-rule="evenodd" clip-rule="evenodd" d="M15.3387 6.53602C15.4616 6.65907 15.5306 6.82586 15.5306 6.99977C15.5306 7.17368 15.4616 7.34047 15.3387 7.46352L10.0887 12.7135C10.0286 12.778 9.95619 12.8297 9.87569 12.8656C9.79519 12.9014 9.70829 12.9207 9.62017 12.9223C9.53206 12.9238 9.44453 12.9076 9.36282 12.8746C9.2811 12.8416 9.20688 12.7925 9.14456 12.7302C9.08224 12.6679 9.03312 12.5936 9.00011 12.5119C8.9671 12.4302 8.95089 12.3427 8.95245 12.2546C8.954 12.1664 8.97329 12.0795 9.00916 11.999C9.04503 11.9185 9.09674 11.8461 9.16122 11.786L13.2912 7.65602H0.874968C0.700919 7.65602 0.533998 7.58688 0.410928 7.46381C0.287857 7.34074 0.218718 7.17382 0.218718 6.99977C0.218718 6.82572 0.287857 6.6588 0.410928 6.53573C0.533998 6.41266 0.700919 6.34352 0.874968 6.34352H13.2912L9.16122 2.21352C9.09674 2.15344 9.04503 2.08099 9.00916 2.00049C8.97329 1.91999 8.954 1.83309 8.95245 1.74498C8.95089 1.65686 8.9671 1.56933 9.00011 1.48762C9.03312 1.40591 9.08224 1.33168 9.14456 1.26936C9.20688 1.20704 9.2811 1.15792 9.36282 1.12491C9.44453 1.0919 9.53206 1.0757 9.62017 1.07725C9.70829 1.07881 9.79519 1.09809 9.87569 1.13396C9.95619 1.16983 10.0286 1.22154 10.0887 1.28602L15.3387 6.53602Z" fill="white"/>
</g>
<defs>
<clipPath id="clip0_4_502">
<rect width="14" height="15.75" fill="white" transform="matrix(0 1 -1 0 15.75 0)"/>
</clipPath>
</defs>
</svg>
