<svg width="22" height="22" viewBox="0 0 22 22" fill="none" xmlns="http://www.w3.org/2000/svg">
<path d="M1.83325 8.25016C1.83325 6.52133 1.83325 5.65783 2.37042 5.12066C2.90759 4.5835 3.77109 4.5835 5.49992 4.5835H16.4999C18.2288 4.5835 19.0923 4.5835 19.6294 5.12066C20.1666 5.65783 20.1666 6.52133 20.1666 8.25016C20.1666 8.68191 20.1666 8.89825 20.0328 9.033C19.898 9.16683 19.6808 9.16683 19.2499 9.16683H2.74992C2.31817 9.16683 2.10184 9.16683 1.96709 9.033C1.83325 8.89825 1.83325 8.681 1.83325 8.25016ZM1.83325 16.5002C1.83325 18.229 1.83325 19.0925 2.37042 19.6297C2.90759 20.1668 3.77109 20.1668 5.49992 20.1668H16.4999C18.2288 20.1668 19.0923 20.1668 19.6294 19.6297C20.1666 19.0925 20.1666 18.229 20.1666 16.5002V11.9168C20.1666 11.4851 20.1666 11.2687 20.0328 11.134C19.898 11.0002 19.6808 11.0002 19.2499 11.0002H2.74992C2.31817 11.0002 2.10184 11.0002 1.96709 11.134C1.83325 11.2687 1.83325 11.486 1.83325 11.9168V16.5002Z" fill="#013475"/>
<path d="M6.4165 2.75V5.5M15.5832 2.75V5.5" stroke="#013475" stroke-width="2" stroke-linecap="round"/>
</svg>
