<svg width="22" height="22" viewBox="0 0 22 22" fill="none" xmlns="http://www.w3.org/2000/svg">
<path d="M1.83301 8.25016C1.83301 6.52133 1.83301 5.65783 2.37017 5.12066C2.90734 4.5835 3.77084 4.5835 5.49967 4.5835H16.4997C18.2285 4.5835 19.092 4.5835 19.6292 5.12066C20.1663 5.65783 20.1663 6.52133 20.1663 8.25016C20.1663 8.68191 20.1663 8.89825 20.0325 9.033C19.8978 9.16683 19.6805 9.16683 19.2497 9.16683H2.74967C2.31792 9.16683 2.10159 9.16683 1.96684 9.033C1.83301 8.89825 1.83301 8.681 1.83301 8.25016ZM1.83301 16.5002C1.83301 18.229 1.83301 19.0925 2.37017 19.6297C2.90734 20.1668 3.77084 20.1668 5.49967 20.1668H16.4997C18.2285 20.1668 19.092 20.1668 19.6292 19.6297C20.1663 19.0925 20.1663 18.229 20.1663 16.5002V11.9168C20.1663 11.4851 20.1663 11.2687 20.0325 11.134C19.8978 11.0002 19.6805 11.0002 19.2497 11.0002H2.74967C2.31792 11.0002 2.10159 11.0002 1.96684 11.134C1.83301 11.2687 1.83301 11.486 1.83301 11.9168V16.5002Z" fill="#013475"/>
<path d="M6.41602 2.75V5.5M15.5827 2.75V5.5" stroke="#013475" stroke-width="2" stroke-linecap="round"/>
</svg>
