<svg width="11" height="13" viewBox="0 0 11 13" fill="none" xmlns="http://www.w3.org/2000/svg">
<g clip-path="url(#clip0_4_1181)">
<path d="M7.15 1.3H1.3V11.7H9.1V3.25H7.15V1.3ZM1.3 0H7.8L10.4 2.6V11.7C10.4 12.0448 10.263 12.3754 10.0192 12.6192C9.77544 12.863 9.44478 13 9.1 13H1.3C0.955219 13 0.624558 12.863 0.380761 12.6192C0.136964 12.3754 0 12.0448 0 11.7V1.3C0 0.955218 0.136964 0.624558 0.380761 0.380761C0.624558 0.136964 0.955219 0 1.3 0ZM2.6 5.85H7.8V7.15H2.6V5.85ZM2.6 8.45H7.8V9.75H2.6V8.45Z" fill="#757575"/>
</g>
<defs>
<clipPath id="clip0_4_1181">
<rect width="10.4" height="13" fill="white"/>
</clipPath>
</defs>
</svg>
