<svg width="18" height="18" viewBox="0 0 18 18" fill="none" xmlns="http://www.w3.org/2000/svg">
<path d="M16.9514 9.88011C17.1275 8.28953 16.8225 6.68269 16.0758 5.26727C15.3291 3.85184 14.1751 2.69288 12.7628 1.94017C11.3506 1.18746 9.74504 0.875604 8.1537 1.0449C6.56235 1.21419 5.05836 1.85685 3.83608 2.88983C2.6138 3.9228 1.72943 5.29861 1.29725 6.83945C0.865068 8.38029 0.904948 10.0153 1.41174 11.5333C1.91852 13.0512 2.86892 14.3823 4.14011 15.3544C5.41129 16.3266 6.94483 16.8952 8.54253 16.9867M1.53276 6.3335H16.4661M1.53276 11.6668H13.8883" stroke="white" stroke-width="2" stroke-linecap="round" stroke-linejoin="round"/>
<path d="M8.55504 1.00024C7.05757 3.39986 6.26367 6.1716 6.26367 9.00012C6.26367 11.8286 7.05757 14.6004 8.55504 17M9.44393 1.00024C11.4274 4.17846 12.1594 7.98014 11.4982 11.6676M11.6662 15.2222L13.4439 17L16.9995 13.4445" stroke="white" stroke-width="2" stroke-linecap="round" stroke-linejoin="round"/>
</svg>
