<svg width="30" height="30" viewBox="0 0 30 30" fill="none" xmlns="http://www.w3.org/2000/svg">
<g clip-path="url(#clip0_116_14)">
<path d="M12.8126 14.0625H0.9375C0.419998 14.0625 0 13.6425 0 13.125C0 12.6075 0.419998 12.1875 0.9375 12.1875H12.8126C13.3301 12.1875 13.7501 12.6075 13.7501 13.125C13.7501 13.6425 13.3301 14.0625 12.8126 14.0625Z" fill="#272727" fill-opacity="0.94"/>
<path d="M8.12502 18.7499C7.88492 18.7499 7.64505 18.6586 7.4624 18.4751C7.09619 18.1086 7.09619 17.5149 7.4624 17.1487L11.4875 13.1238L7.4624 9.10005C7.09619 8.73361 7.09619 8.13989 7.4624 7.77368C7.82861 7.40747 8.42233 7.40747 8.78877 7.77368L13.4763 12.4612C13.8425 12.8274 13.8425 13.4211 13.4763 13.7876L8.78877 18.4751C8.60498 18.6586 8.36488 18.7499 8.12502 18.7499Z" fill="#272727" fill-opacity="0.94"/>
<path d="M20 30C18.6212 30 17.5001 28.8787 17.5001 27.4999V4.99995C17.5001 3.9313 18.1801 2.97755 19.1925 2.62622L26.7025 0.122479C28.3825 -0.392505 30 0.853756 30 2.5001V25.0001C30 26.0676 29.32 27.02 28.3088 27.3725L20.7962 29.8776C20.5225 29.9625 20.2689 30 20 30ZM27.5 1.87503C27.4187 1.87503 27.3501 1.8851 27.2764 1.90753L19.7976 4.4012C19.5525 4.48634 19.3751 4.73376 19.3751 4.99995V27.4999C19.3751 27.9264 19.8375 28.2138 20.2238 28.0925L27.7025 25.5989C27.9463 25.5137 28.125 25.2663 28.125 25.0001V2.5001C28.125 2.15632 27.8451 1.87503 27.5 1.87503Z" fill="#272727" fill-opacity="0.94"/>
<path d="M10.9376 6.25008C10.4201 6.25008 10.0001 5.83008 10.0001 5.31258V3.43758C10.0001 1.54129 11.5412 0 13.4375 0H27.5C28.0175 0 28.4375 0.419998 28.4375 0.9375C28.4375 1.455 28.0175 1.875 27.5 1.875H13.4375C12.5762 1.875 11.8751 2.57629 11.8751 3.43758V5.31258C11.8751 5.83008 11.4551 6.25008 10.9376 6.25008Z" fill="#272727" fill-opacity="0.94"/>
<path d="M18.4376 26.2501H13.4375C11.5412 26.2501 10.0001 24.7088 10.0001 22.8125V20.9375C10.0001 20.42 10.4201 20 10.9376 20C11.4551 20 11.8751 20.42 11.8751 20.9375V22.8125C11.8751 23.6738 12.5762 24.3751 13.4375 24.3751H18.4376C18.9551 24.3751 19.3751 24.7951 19.3751 25.3126C19.3751 25.8301 18.9551 26.2501 18.4376 26.2501Z" fill="#272727" fill-opacity="0.94"/>
</g>
<defs>
<clipPath id="clip0_116_14">
<rect width="30" height="30" fill="white"/>
</clipPath>
</defs>
</svg>
