<svg width="66" height="51" viewBox="0 0 66 51" fill="none" xmlns="http://www.w3.org/2000/svg">
<g clip-path="url(#clip0_184_1009)">
<path d="M32.9999 41.811C23.665 41.811 15.3062 37.587 9.93775 34.0437C4.15064 30.2244 0.591021 26.4516 0.442264 26.293C0.240782 26.078 0.128662 25.7944 0.128662 25.4998C0.128662 25.2051 0.240782 24.9215 0.442264 24.7065C0.591021 24.5479 4.15167 20.7751 9.93775 16.9559C15.3062 13.4125 23.665 9.18848 32.9999 9.18848C42.3347 9.18848 50.6935 13.4125 56.062 16.9559C61.848 20.7751 65.4087 24.5477 65.5572 24.7065C65.7587 24.9215 65.8708 25.2051 65.8708 25.4998C65.8708 25.7944 65.7587 26.078 65.5572 26.293C65.4087 26.4519 61.848 30.2244 56.062 34.0437C50.6935 37.587 42.3347 41.811 32.9999 41.811ZM2.93247 25.4998C6.12342 28.5703 18.4956 39.4907 32.9999 39.4907C47.524 39.4907 59.8804 28.5718 63.068 25.5003C59.8778 22.4318 47.5052 11.5088 32.9999 11.5088C18.4946 11.5088 6.12368 22.429 2.93247 25.4998Z" fill="#004092"/>
<path d="M33 41.811C29.7739 41.811 26.6203 40.8543 23.938 39.062C21.2557 37.2696 19.165 34.7221 17.9305 31.7416C16.696 28.7611 16.373 25.4815 17.0024 22.3174C17.6318 19.1534 19.1853 16.247 21.4665 13.9659C23.7477 11.6847 26.6541 10.1312 29.8182 9.50188C32.9822 8.87253 36.2619 9.19556 39.2424 10.4301C42.2228 11.6647 44.7703 13.7554 46.5626 16.4377C48.3549 19.1201 49.3115 22.2737 49.3115 25.4998C49.3066 29.8243 47.5865 33.9703 44.5285 37.0282C41.4706 40.0861 37.3246 41.8062 33 41.811ZM33 11.5088C30.2329 11.5088 27.5279 12.3294 25.2271 13.8668C22.9263 15.4042 21.1331 17.5893 20.0742 20.1458C19.0153 22.7024 18.7383 25.5155 19.2781 28.2294C19.818 30.9434 21.1506 33.4363 23.1072 35.393C25.0639 37.3496 27.5569 38.6821 30.2708 39.2219C32.9848 39.7617 35.7979 39.4847 38.3544 38.4257C40.9109 37.3668 43.096 35.5735 44.6333 33.2727C46.1707 30.9719 46.9912 28.2669 46.9912 25.4998C46.987 21.7904 45.5115 18.2341 42.8886 15.6112C40.2656 12.9883 36.7094 11.513 33 11.5088Z" fill="#004092"/>
<path d="M33 7.05187C32.6923 7.05187 32.3972 6.92964 32.1796 6.71206C31.9621 6.49449 31.8398 6.1994 31.8398 5.89171V1.50684C31.8398 1.19914 31.9621 0.904053 32.1796 0.686482C32.3972 0.46891 32.6923 0.34668 33 0.34668C33.3077 0.34668 33.6028 0.46891 33.8204 0.686482C34.0379 0.904053 34.1602 1.19914 34.1602 1.50684V5.89171C34.1602 6.1994 34.0379 6.49449 33.8204 6.71206C33.6028 6.92964 33.3077 7.05187 33 7.05187Z" fill="#004092"/>
<path d="M23.1966 9.67887C22.9928 9.67898 22.7926 9.62539 22.6161 9.52351C22.4396 9.42163 22.293 9.27506 22.1912 9.09853L19.9998 5.30096C19.8483 5.03463 19.8084 4.71923 19.8887 4.42357C19.9689 4.12791 20.1629 3.87601 20.4282 3.72282C20.6935 3.56964 21.0087 3.52762 21.3048 3.60592C21.601 3.68423 21.8542 3.87651 22.0092 4.1408L24.2006 7.93838C24.3024 8.11467 24.3561 8.31466 24.3561 8.51826C24.3562 8.72186 24.3027 8.92189 24.201 9.09827C24.0993 9.27464 23.953 9.42114 23.7767 9.52306C23.6005 9.62497 23.4002 9.67871 23.1966 9.67887Z" fill="#004092"/>
<path d="M21.0023 47.44C20.7987 47.4398 20.5987 47.3861 20.4224 47.2842C20.2462 47.1823 20.0999 47.0358 19.9981 46.8594C19.8964 46.683 19.8429 46.483 19.843 46.2794C19.8431 46.0758 19.8968 45.8758 19.9986 45.6995L22.19 41.9022C22.2656 41.7692 22.3668 41.6524 22.4877 41.5587C22.6087 41.4649 22.7469 41.396 22.8946 41.356C23.0422 41.3159 23.1964 41.3054 23.3481 41.3251C23.4998 41.3448 23.6461 41.3944 23.7786 41.4709C23.9111 41.5474 24.0272 41.6493 24.1201 41.7709C24.2131 41.8924 24.2811 42.0311 24.3202 42.179C24.3593 42.327 24.3687 42.4812 24.348 42.6328C24.3273 42.7843 24.2768 42.9303 24.1994 43.0623L22.008 46.8596C21.9061 47.0362 21.7595 47.1828 21.583 47.2847C21.4064 47.3866 21.2061 47.4401 21.0023 47.44Z" fill="#004092"/>
<path d="M33 50.6541C32.6923 50.6541 32.3972 50.5319 32.1796 50.3143C31.9621 50.0968 31.8398 49.8017 31.8398 49.494V45.1094C31.8398 44.8017 31.9621 44.5066 32.1796 44.289C32.3972 44.0714 32.6923 43.9492 33 43.9492C33.3077 43.9492 33.6028 44.0714 33.8204 44.289C34.0379 44.5066 34.1602 44.8017 34.1602 45.1094V49.494C34.1602 49.8017 34.0379 50.0968 33.8204 50.3143C33.6028 50.5319 33.3077 50.6541 33 50.6541Z" fill="#004092"/>
<path d="M44.9978 47.4398C44.794 47.4399 44.5938 47.3863 44.4173 47.2844C44.2407 47.1825 44.0942 47.0359 43.9923 46.8594L41.8009 43.0621C41.6471 42.7956 41.6054 42.4789 41.6851 42.1817C41.7647 41.8845 41.9592 41.631 42.2257 41.4772C42.4922 41.3234 42.8089 41.2817 43.1061 41.3613C43.4033 41.441 43.6567 41.6354 43.8106 41.9019L46.002 45.6993C46.1038 45.8756 46.1575 46.0756 46.1576 46.2792C46.1576 46.4828 46.1041 46.6829 46.0024 46.8593C45.9006 47.0356 45.7543 47.1821 45.578 47.284C45.4017 47.3859 45.2014 47.4396 44.9978 47.4398Z" fill="#004092"/>
<path d="M42.8033 9.67885C42.5997 9.67869 42.3997 9.62496 42.2235 9.52304C42.0472 9.42113 41.9009 9.27462 41.7992 9.09825C41.6975 8.92188 41.644 8.72184 41.644 8.51825C41.6441 8.31465 41.6978 8.11466 41.7996 7.93836L43.991 4.14078C44.1449 3.87412 44.3984 3.67949 44.6957 3.59971C44.9931 3.51994 45.3099 3.56155 45.5766 3.71539C45.8432 3.86924 46.0379 4.12272 46.1177 4.42007C46.1974 4.71741 46.1558 5.03427 46.002 5.30094L43.8106 9.09852C43.7086 9.27531 43.5617 9.42205 43.3849 9.52395C43.208 9.62584 43.0074 9.67928 42.8033 9.67885Z" fill="#004092"/>
<path d="M41.7892 25.026C41.4816 25.026 41.1865 24.9038 40.9689 24.6862C40.7513 24.4686 40.6291 24.1735 40.6291 23.8658V21.2397H38.0015C37.6938 21.2397 37.3987 21.1175 37.1811 20.8999C36.9635 20.6824 36.8413 20.3873 36.8413 20.0796C36.8413 19.7719 36.9635 19.4768 37.1811 19.2592C37.3987 19.0417 37.6938 18.9194 38.0015 18.9194H41.7882C42.0959 18.9194 42.391 19.0417 42.6086 19.2592C42.8261 19.4768 42.9484 19.7719 42.9484 20.0796V23.8658C42.9484 24.1733 42.8263 24.4683 42.6089 24.6858C42.3916 24.9034 42.0968 25.0257 41.7892 25.026Z" fill="#004092"/>
<path d="M24.2109 32.0812C23.9815 32.0812 23.7572 32.0131 23.5664 31.8856C23.3756 31.7582 23.2269 31.577 23.1391 31.365C23.0513 31.153 23.0283 30.9197 23.0731 30.6947C23.1178 30.4696 23.2283 30.2629 23.3906 30.1006L30.35 23.1412C30.4577 23.0335 30.5856 22.9481 30.7264 22.8898C30.8671 22.8315 31.018 22.8015 31.1703 22.8015C31.3227 22.8015 31.4736 22.8315 31.6143 22.8898C31.7551 22.9481 31.883 23.0335 31.9907 23.1412L34.5387 25.6895L40.969 19.2591C41.1866 19.0416 41.4817 18.9194 41.7894 18.9194C42.0971 18.9195 42.3922 19.0418 42.6097 19.2594C42.8273 19.477 42.9495 19.7721 42.9494 20.0798C42.9494 20.3875 42.8271 20.6825 42.6095 20.9001L35.3588 28.1505C35.1413 28.3681 34.8463 28.4903 34.5387 28.4903C34.3863 28.4903 34.2354 28.4603 34.0947 28.402C33.9539 28.3437 33.826 28.2583 33.7183 28.1505L31.1696 25.6031L25.0313 31.7414C24.9237 31.8493 24.7958 31.9348 24.655 31.9931C24.5143 32.0515 24.3633 32.0814 24.2109 32.0812Z" fill="#004092"/>
</g>
<defs>
<clipPath id="clip0_184_1009">
<rect width="66" height="51" fill="white"/>
</clipPath>
</defs>
</svg>
