<svg width="20" height="20" viewBox="0 0 20 20" fill="none" xmlns="http://www.w3.org/2000/svg">
<path d="M8.08005 11.0395C8.02005 11.0395 6.70005 11.0395 6.10005 11.0395C5.78005 11.0395 5.68005 10.9195 5.68005 10.6195C5.68005 9.81953 5.68005 8.99953 5.68005 8.19953C5.68005 7.87953 5.80005 7.77953 6.10005 7.77953H8.08005C8.08005 7.71953 8.08005 6.55953 8.08005 6.01953C8.08005 5.21953 8.22005 4.45953 8.62005 3.75953C9.04005 3.03953 9.64005 2.55953 10.4001 2.27953C10.9001 2.09953 11.4001 2.01953 11.9401 2.01953H13.9001C14.1801 2.01953 14.3001 2.13953 14.3001 2.41953V4.69953C14.3001 4.97953 14.1801 5.09953 13.9001 5.09953C13.3601 5.09953 12.8201 5.09953 12.2801 5.11953C11.7401 5.11953 11.4601 5.37953 11.4601 5.93953C11.4401 6.53953 11.4601 7.11953 11.4601 7.73953H13.7801C14.1001 7.73953 14.2201 7.85953 14.2201 8.17953V10.5995C14.2201 10.9195 14.1201 11.0195 13.7801 11.0195C13.0601 11.0195 11.5201 11.0195 11.4601 11.0195V17.5395C11.4601 17.8795 11.3601 17.9995 11.0001 17.9995C10.1601 17.9995 9.34005 17.9995 8.50005 17.9995C8.20005 17.9995 8.08005 17.8795 8.08005 17.5795C8.08005 15.4795 8.08005 11.0995 8.08005 11.0395Z" fill="white"/>
</svg>
