<svg preserveAspectRatio="none" width="100%" height="100%" overflow="visible" style="display: block;" viewBox="0 0 1673.81 2454.32" fill="none" xmlns="http://www.w3.org/2000/svg">
<g id="Group">
<g id="Group_2">
<path id="Vector" d="M1665.8 339.649L1665.33 339.18C1654.65 328.496 1637.33 328.497 1626.65 339.182L1622.06 343.775C1611.38 354.46 1594.06 354.462 1583.38 343.777L1582.91 343.308C1572.23 332.624 1554.91 332.625 1544.23 343.311L1502.82 384.737C1492.01 395.552 1474.48 395.552 1463.67 384.737C1452.86 373.922 1452.86 356.388 1463.67 345.573L1524.87 284.347C1535.55 273.662 1535.55 256.337 1524.87 245.653L1524.4 245.184C1513.72 234.499 1496.4 234.5 1485.72 245.185L1351.03 379.924C1340.22 390.739 1322.7 390.739 1311.89 379.924C1301.08 369.109 1301.08 351.575 1311.89 340.76L1446.57 206.021C1457.25 195.336 1457.25 178.011 1446.57 167.326L1446.1 166.857C1435.42 156.172 1418.1 156.173 1407.42 166.858L1099.14 475.265C1088.33 486.08 1088.33 503.614 1099.14 514.429C1109.95 525.244 1109.95 542.778 1099.14 553.593L964.685 688.097C953.874 698.912 953.874 716.447 964.685 727.261C975.496 738.076 993.023 738.076 1003.83 727.261L1138.29 592.756C1149.1 581.941 1166.62 581.941 1177.44 592.756C1188.25 603.571 1188.25 621.105 1177.44 631.92L1116.47 692.91C1105.66 703.725 1105.66 721.26 1116.47 732.074C1127.28 742.889 1144.81 742.889 1155.62 732.074L1196.8 690.88C1207.61 680.065 1225.13 680.065 1235.94 690.88C1246.76 701.694 1264.28 701.694 1275.09 690.88L1279.22 686.751C1290.03 675.936 1307.56 675.936 1318.37 686.751C1329.18 697.566 1346.71 697.566 1357.52 686.751L1665.81 378.344C1676.48 367.658 1676.48 350.334 1665.8 339.649Z" fill="url(#paint0_linear_6_162)"/>
<path id="Vector_2" d="M1154.91 439.058C1165.49 449.633 1165.49 466.778 1154.91 477.354L1074.23 558.073C1063.66 568.648 1063.66 585.793 1074.23 596.369C1084.8 606.944 1084.8 624.089 1074.23 634.664L1057.3 651.599C1046.73 662.174 1046.73 679.319 1057.3 689.895C1067.87 700.47 1085.01 700.47 1095.58 689.895L1367.67 417.696C1378.24 407.121 1378.24 389.976 1367.67 379.4C1357.1 368.825 1357.1 351.679 1367.67 341.105L1384.6 324.171C1395.17 313.596 1395.17 296.451 1384.6 285.875C1374.03 275.3 1374.03 258.155 1384.6 247.58L1465.29 166.86C1475.86 156.285 1475.86 139.14 1465.29 128.565C1454.72 117.99 1437.58 117.99 1427.01 128.565L1381.73 173.862C1371.16 184.437 1354.02 184.437 1343.45 173.862C1332.88 163.287 1315.74 163.287 1305.17 173.862L1246.13 232.92C1235.56 243.495 1218.42 243.495 1207.85 232.92C1197.28 222.345 1197.28 205.199 1207.85 194.624L1231.48 170.988C1242.05 160.413 1242.05 143.268 1231.48 132.692C1220.91 122.117 1220.91 104.972 1231.48 94.3957L1279.63 46.2273C1290.2 35.6524 1290.2 18.5071 1279.63 7.93117C1269.05 -2.64371 1251.92 -2.64371 1241.35 7.93117L1193.2 56.0996C1182.62 66.6745 1165.49 66.6745 1154.91 56.0996C1144.34 45.5247 1127.21 45.5247 1116.63 56.0996L844.542 328.3C833.971 338.875 833.971 356.02 844.542 366.595C855.112 377.17 872.251 377.17 882.822 366.595L930.971 318.427C941.542 307.852 958.681 307.852 969.252 318.427C979.823 329.001 979.823 346.147 969.252 356.723L921.103 404.891C910.532 415.466 910.532 432.611 921.103 443.187C931.674 453.762 931.674 470.907 921.103 481.482L897.476 505.118C886.906 515.693 886.906 532.838 897.476 543.414C908.047 553.989 925.186 553.989 935.756 543.414L994.792 484.355C1005.36 473.78 1022.5 473.78 1033.07 484.355C1043.64 494.93 1060.78 494.93 1071.35 484.355L1116.63 439.058C1127.21 428.482 1144.34 428.482 1154.91 439.058Z" fill="url(#paint1_linear_6_162)"/>
<path id="Vector_3" d="M1293.66 767.878C1308.95 767.878 1321.35 755.48 1321.35 740.185C1321.35 724.891 1308.95 712.492 1293.66 712.492C1278.37 712.492 1265.98 724.891 1265.98 740.185C1265.98 755.48 1278.37 767.878 1293.66 767.878Z" fill="url(#paint2_linear_6_162)"/>
<path id="Vector_4" d="M872.714 605.253C888.002 605.253 900.396 592.854 900.396 577.56C900.396 562.265 888.002 549.866 872.714 549.866C857.425 549.866 845.032 562.265 845.032 577.56C845.032 592.854 857.425 605.253 872.714 605.253Z" fill="url(#paint3_linear_6_162)"/>
</g>
<path id="Vector_5" d="M318.3 1528.88C328.871 1539.45 328.871 1556.6 318.3 1567.17L237.612 1647.89C227.041 1658.47 227.041 1675.61 237.612 1686.19C248.183 1696.76 248.183 1713.91 237.612 1724.48L220.685 1741.42C210.114 1751.99 210.114 1769.14 220.685 1779.71C231.256 1790.29 248.394 1790.29 258.966 1779.71L531.058 1507.51C541.629 1496.94 541.629 1479.79 531.058 1469.22C520.487 1458.64 520.487 1441.5 531.058 1430.92L547.985 1413.99C558.555 1403.41 558.555 1386.27 547.985 1375.69C537.414 1365.12 537.414 1347.97 547.985 1337.4L628.673 1256.68C639.244 1246.1 639.244 1228.96 628.673 1218.38C618.102 1207.81 600.964 1207.81 590.393 1218.38L545.114 1263.68C534.543 1274.25 517.405 1274.25 506.834 1263.68C496.263 1253.1 479.125 1253.1 468.553 1263.68L409.517 1322.74C398.946 1333.31 381.808 1333.31 371.237 1322.74C360.666 1312.16 360.666 1295.02 371.237 1284.44L394.863 1260.81C405.434 1250.23 405.434 1233.09 394.863 1222.51C384.293 1211.94 384.293 1194.79 394.863 1184.22L443.013 1136.05C453.584 1125.47 453.584 1108.33 443.013 1097.75C432.442 1087.18 415.304 1087.18 404.732 1097.75L356.582 1145.92C346.012 1156.49 328.873 1156.49 318.301 1145.92C307.73 1135.34 290.592 1135.34 280.02 1145.92L7.92827 1418.12C-2.64248 1428.69 -2.64248 1445.84 7.92827 1456.41C18.499 1466.99 35.6375 1466.99 46.2094 1456.41L94.359 1408.24C104.93 1397.67 122.068 1397.67 132.639 1408.24C143.21 1418.82 143.21 1435.97 132.639 1446.54L84.4894 1494.71C73.9187 1505.28 73.9187 1522.43 84.4894 1533.01C95.0602 1543.58 95.0602 1560.73 84.4894 1571.3L60.863 1594.94C50.2923 1605.51 50.2923 1622.66 60.863 1633.23C71.4338 1643.81 88.5723 1643.81 99.1441 1633.23L158.18 1574.17C168.751 1563.6 185.889 1563.6 196.461 1574.17C207.032 1584.75 224.17 1584.75 234.742 1574.17L280.021 1528.88C290.591 1518.3 307.729 1518.3 318.3 1528.88Z" fill="url(#paint4_linear_6_162)"/>
<path id="Vector_6" d="M514.45 2197.62L494.728 2217.35C483.918 2228.17 483.918 2245.7 494.728 2256.52C505.539 2267.33 523.066 2267.33 533.877 2256.52L609.45 2180.92C620.26 2170.1 637.788 2170.1 648.598 2180.92C659.409 2191.73 659.409 2209.27 648.598 2220.08L573.026 2295.68C562.215 2306.5 562.215 2324.03 573.026 2334.85C583.836 2345.66 601.364 2345.66 612.174 2334.85L654.2 2292.8C665.011 2281.99 682.538 2281.99 693.349 2292.8C704.16 2303.62 704.16 2321.15 693.349 2331.97L618.305 2407.04C607.494 2417.86 607.494 2435.39 618.305 2446.2C629.115 2457.02 646.643 2457.02 657.453 2446.2L965.507 2138.03C976.317 2127.22 976.317 2109.68 965.507 2098.87C954.696 2088.05 954.696 2070.52 965.507 2059.7L1040.55 1984.63C1051.36 1973.81 1051.36 1956.28 1040.55 1945.47C1029.74 1934.65 1012.21 1934.65 1001.4 1945.47L959.376 1987.51C948.566 1998.32 931.038 1998.32 920.228 1987.51C909.417 1976.69 909.417 1959.16 920.228 1948.34L995.8 1872.74C1006.61 1861.93 1006.61 1844.39 995.8 1833.58C984.99 1822.76 967.462 1822.76 956.652 1833.58L881.079 1909.18C870.268 1919.99 852.741 1919.99 841.93 1909.18C831.12 1898.36 831.12 1880.83 841.93 1870.02L861.652 1850.29C872.463 1839.47 872.463 1821.94 861.652 1811.12C850.842 1800.31 833.314 1800.31 822.504 1811.12L514.45 2119.3C503.64 2130.11 503.64 2147.65 514.45 2158.46C525.261 2169.28 525.261 2186.81 514.45 2197.62Z" fill="url(#paint5_linear_6_162)"/>
<path id="Vector_7" d="M529.312 2124.01L557.562 2095.75C568.372 2084.94 585.9 2084.94 596.71 2095.75C607.521 2106.57 625.048 2106.57 635.859 2095.75L944.147 1787.35C954.828 1776.66 954.828 1759.34 944.147 1748.65L943.678 1748.18C932.997 1737.5 915.679 1737.5 904.998 1748.18L876.514 1776.68C865.704 1787.49 848.176 1787.49 837.365 1776.68C826.555 1765.86 826.555 1748.33 837.365 1737.51L845.551 1729.32C856.232 1718.64 856.232 1701.32 845.551 1690.63L845.082 1690.16C834.401 1679.48 834.401 1662.15 845.082 1651.47C855.763 1640.78 855.763 1623.46 845.082 1612.77L844.613 1612.3C833.932 1601.62 816.614 1601.62 805.933 1612.3L775.042 1643.21C764.361 1653.89 747.043 1653.89 736.362 1643.21L735.893 1642.74C725.212 1632.05 707.894 1632.05 697.213 1642.74L388.927 1951.14C378.116 1961.96 378.116 1979.49 388.927 1990.31C399.737 2001.12 417.265 2001.12 428.075 1990.31L458.967 1959.4C469.518 1948.85 486.626 1948.85 497.177 1959.4L498.114 1960.34C508.665 1970.9 508.665 1988.01 498.114 1998.57C487.304 2009.38 487.304 2026.92 498.114 2037.73C508.925 2048.55 508.925 2066.08 498.114 2076.9L490.163 2084.85C479.353 2095.66 479.353 2113.2 490.163 2124.01C500.974 2134.83 518.501 2134.83 529.312 2124.01Z" fill="url(#paint6_linear_6_162)"/>
<path id="Vector_8" d="M197.307 1881.96L46.2419 2033.08C35.4313 2043.9 35.4313 2061.43 46.2419 2072.24C57.0525 2083.06 74.58 2083.06 85.3906 2072.24L145.579 2012.03C156.39 2001.22 173.917 2001.22 184.728 2012.03C195.538 2022.85 195.538 2040.38 184.728 2051.2L100.069 2135.89C89.2584 2146.7 89.2584 2164.24 100.069 2175.05C110.88 2185.87 128.407 2185.87 139.218 2175.05L156.743 2157.52C167.554 2146.71 185.081 2146.71 195.892 2157.52C206.702 2168.34 224.23 2168.34 235.04 2157.52L272.295 2120.25C283.106 2109.44 300.633 2109.44 311.444 2120.25L312.391 2121.2C322.679 2131.49 322.679 2148.18 312.391 2158.47C301.581 2169.28 301.581 2186.82 312.391 2197.63C323.202 2208.45 340.73 2208.45 351.54 2197.63L742.235 1806.78C752.784 1796.23 752.784 1779.12 742.235 1768.57L741.288 1767.62C730.739 1757.07 730.739 1739.96 741.288 1729.4C751.837 1718.85 751.837 1701.74 741.288 1691.19L740.34 1690.24C729.791 1679.69 712.688 1679.69 702.139 1690.24L663.938 1728.46C653.389 1739.01 636.286 1739.01 625.737 1728.46L624.789 1727.51C614.24 1716.96 597.137 1716.96 586.588 1727.51L568.589 1745.51C557.779 1756.33 540.251 1756.33 529.441 1745.51C518.63 1734.7 518.63 1717.17 529.441 1706.35L614.574 1621.18C625.123 1610.63 625.123 1593.52 614.574 1582.97L613.626 1582.02C603.077 1571.47 585.974 1571.47 575.425 1582.02L514.763 1642.71C503.953 1653.52 486.425 1653.52 475.615 1642.71C464.804 1631.89 464.804 1614.36 475.615 1603.54L627.153 1451.94C637.702 1441.39 637.702 1424.28 627.153 1413.73L626.205 1412.78C615.656 1402.23 598.553 1402.23 588.004 1412.78L197.309 1803.63C186.499 1814.44 186.499 1831.98 197.309 1842.79C208.118 1853.61 208.118 1871.14 197.307 1881.96Z" fill="url(#paint7_linear_6_162)"/>
<path id="Vector_9" d="M640.21 1583.19C655.498 1583.19 667.892 1570.79 667.892 1555.49C667.892 1540.2 655.498 1527.8 640.21 1527.8C624.921 1527.8 612.527 1540.2 612.527 1555.49C612.527 1570.79 624.921 1583.19 640.21 1583.19Z" fill="url(#paint8_linear_6_162)"/>
<path id="Vector_10" d="M532.803 1250.57C548.091 1250.57 560.485 1238.17 560.485 1222.88C560.485 1207.58 548.091 1195.18 532.803 1195.18C517.514 1195.18 505.12 1207.58 505.12 1222.88C505.12 1238.17 517.514 1250.57 532.803 1250.57Z" fill="url(#paint9_linear_6_162)"/>
<path id="Vector_11" d="M882.18 2297.64L881.711 2297.17C871.031 2286.48 871.032 2269.16 881.713 2258.47L886.305 2253.88C896.986 2243.19 896.987 2225.87 886.307 2215.18L885.838 2214.71C875.158 2204.02 875.16 2186.7 885.841 2176.01L927.251 2134.59C938.061 2123.77 938.061 2106.24 927.251 2095.42C916.44 2084.61 898.912 2084.61 888.102 2095.42L826.9 2156.65C816.219 2167.34 798.902 2167.34 788.221 2156.65L787.752 2156.18C777.071 2145.49 777.072 2128.17 787.753 2117.48L922.438 1982.75C933.249 1971.93 933.249 1954.4 922.438 1943.58C911.628 1932.77 894.1 1932.77 883.29 1943.58L748.603 2078.32C737.923 2089.01 720.605 2089.01 709.924 2078.32L709.455 2077.85C698.774 2067.17 698.775 2049.84 709.456 2039.16L1017.74 1730.75C1028.55 1719.93 1046.08 1719.93 1056.89 1730.75C1067.7 1741.56 1085.23 1741.56 1096.04 1730.75L1230.49 1596.24C1241.3 1585.43 1258.83 1585.43 1269.64 1596.24C1280.45 1607.06 1280.45 1624.59 1269.64 1635.41L1135.19 1769.91C1124.38 1780.73 1124.38 1798.26 1135.19 1809.08C1146 1819.89 1163.53 1819.89 1174.34 1809.08L1235.3 1748.09C1246.11 1737.27 1263.64 1737.27 1274.45 1748.09C1285.26 1758.9 1285.26 1776.44 1274.45 1787.25L1233.27 1828.45C1222.46 1839.26 1222.46 1856.8 1233.27 1867.61C1244.08 1878.43 1244.08 1895.96 1233.27 1906.77L1229.15 1910.9C1218.33 1921.72 1218.33 1939.25 1229.15 1950.07C1239.96 1960.88 1239.96 1978.42 1229.15 1989.23L920.859 2297.64C910.179 2308.32 892.861 2308.32 882.18 2297.64Z" fill="url(#paint10_linear_6_162)"/>
<path id="Vector_12" d="M1079.8 1724.17C1095.09 1724.17 1107.48 1711.77 1107.48 1696.48C1107.48 1681.18 1095.09 1668.79 1079.8 1668.79C1064.51 1668.79 1052.12 1681.18 1052.12 1696.48C1052.12 1711.77 1064.51 1724.17 1079.8 1724.17Z" fill="url(#paint11_linear_6_162)"/>
</g>
<defs>
<linearGradient id="paint0_linear_6_162" x1="956.577" y1="449.515" x2="1673.81" y2="449.515" gradientUnits="userSpaceOnUse">
<stop stop-color="#0BC1C7"/>
<stop offset="1" stop-color="#324CFC"/>
</linearGradient>
<linearGradient id="paint1_linear_6_162" x1="836.614" y1="348.913" x2="1473.22" y2="348.913" gradientUnits="userSpaceOnUse">
<stop stop-color="#3AA1C7"/>
<stop offset="1" stop-color="#324CFC"/>
</linearGradient>
<linearGradient id="paint2_linear_6_162" x1="1265.98" y1="740.185" x2="1321.35" y2="740.185" gradientUnits="userSpaceOnUse">
<stop stop-color="#4BF6FA"/>
<stop offset="1" stop-color="#324CFC"/>
</linearGradient>
<linearGradient id="paint3_linear_6_162" x1="845.032" y1="577.56" x2="900.396" y2="577.56" gradientUnits="userSpaceOnUse">
<stop stop-color="#3AA1C7"/>
<stop offset="1" stop-color="#324CFC"/>
</linearGradient>
<linearGradient id="paint4_linear_6_162" x1="71.7471" y1="1438.73" x2="708.349" y2="1438.73" gradientUnits="userSpaceOnUse">
<stop stop-color="#86A3FC"/>
<stop offset="1" stop-color="#30C4C7"/>
</linearGradient>
<linearGradient id="paint5_linear_6_162" x1="486.62" y1="2128.66" x2="1048.66" y2="2128.66" gradientUnits="userSpaceOnUse">
<stop stop-color="#3AA1C7"/>
<stop offset="0.9992" stop-color="#90E5FC"/>
</linearGradient>
<linearGradient id="paint6_linear_6_162" x1="38.12" y1="1868.21" x2="952.157" y2="1868.21" gradientUnits="userSpaceOnUse">
<stop stop-color="#324CFC"/>
<stop offset="1" stop-color="#4BF6FA"/>
</linearGradient>
<linearGradient id="paint7_linear_6_162" x1="38.1341" y1="1805.3" x2="750.143" y2="1805.3" gradientUnits="userSpaceOnUse">
<stop stop-color="#324CFC"/>
<stop offset="1" stop-color="#3AA1C7"/>
</linearGradient>
<linearGradient id="paint8_linear_6_162" x1="612.528" y1="1555.49" x2="667.892" y2="1555.49" gradientUnits="userSpaceOnUse">
<stop stop-color="#4BF6FA"/>
<stop offset="1" stop-color="#324CFC"/>
</linearGradient>
<linearGradient id="paint9_linear_6_162" x1="505.121" y1="1222.88" x2="560.485" y2="1222.88" gradientUnits="userSpaceOnUse">
<stop stop-color="#3AA1C7"/>
<stop offset="1" stop-color="#324CFC"/>
</linearGradient>
<linearGradient id="paint10_linear_6_162" x1="992.004" y1="1588.13" x2="992.004" y2="2305.65" gradientUnits="userSpaceOnUse">
<stop stop-color="#3AA1C7"/>
<stop offset="1" stop-color="#324CFC"/>
</linearGradient>
<linearGradient id="paint11_linear_6_162" x1="1052.12" y1="1696.48" x2="1107.48" y2="1696.48" gradientUnits="userSpaceOnUse">
<stop stop-color="#4BF6FA"/>
<stop offset="1" stop-color="#324CFC"/>
</linearGradient>
</defs>
</svg>
