<svg width="16" height="16" viewBox="0 0 16 16" fill="none" xmlns="http://www.w3.org/2000/svg">
<path fill-rule="evenodd" clip-rule="evenodd" d="M7.91424 13.3927C3.92863 13.3927 2.72432 9.65292 5.87283 6.73962C6.00192 6.62 6.2107 6.73034 6.18558 6.90434C6.1778 6.95919 6.02723 8.11129 6.86696 8.98579C6.65864 7.79178 6.46196 4.94449 8.86018 3.33742C9.01797 3.23177 9.21765 3.40286 9.13234 3.57714C9.12559 3.5913 8.40934 5.19668 11.1667 8.0961C11.1708 8.10041 11.175 8.10491 11.1785 8.1096C13.2977 10.8199 10.5202 13.3927 7.91443 13.3927C7.91443 13.3926 7.91424 13.3926 7.91424 13.3926V13.3927ZM7.19499 12.5748C7.04068 12.5748 6.9023 12.5178 6.79458 12.4101C5.80955 11.4252 5.82539 11.6405 6.88552 10.5795C7.17277 10.2921 7.45027 10.6115 7.59108 10.7523L8.58071 9.76279C8.43343 9.61532 8.11815 9.34692 8.40793 9.05704C9.46272 8.00197 9.25534 7.98341 10.2385 8.9662C10.4484 9.17591 10.4581 9.4942 10.2635 9.79617C9.59866 10.8294 8.7114 11.7167 7.62652 12.4338C7.48712 12.5262 7.33787 12.5748 7.1949 12.5748H7.19499Z" fill="white"/>
<path fill-rule="evenodd" clip-rule="evenodd" d="M13.0827 3.68048C12.8692 3.68048 11.5223 3.70963 11.4287 3.65891C11.3973 3.64223 11.3738 3.61691 11.3584 3.58738C9.77184 1.13994 6.21898 1.14219 4.63657 3.5947C4.60207 3.64813 4.54263 3.68048 4.47907 3.68048H2.91756C2.78209 3.68048 2.68975 3.54041 2.7475 3.41385C4.84207 -1.17907 11.2442 -1.07323 13.2538 3.41629C13.3014 3.5226 13.242 3.67767 13.0828 3.68048H13.0827Z" fill="white"/>
<path fill-rule="evenodd" clip-rule="evenodd" d="M13.0227 6.7423C12.537 6.7423 12.6808 6.06167 12.6657 5.57801C12.6421 4.82885 12.452 4.15113 12.1151 3.48166C11.906 3.06625 12.5373 2.74553 12.7477 3.16309C13.3429 4.34463 13.3769 5.11104 13.3769 6.3882C13.3769 6.58376 13.2182 6.7423 13.0227 6.7423ZM2.97721 6.7423C2.78174 6.7423 2.62311 6.58358 2.62311 6.3882C2.62311 5.10757 2.65011 4.34407 3.25302 3.16159C3.46433 2.74722 4.09649 3.06672 3.88377 3.48344C2.95218 5.30848 3.57683 6.35436 3.19799 6.66936C3.13499 6.72176 3.05793 6.74239 2.97711 6.74239L2.97721 6.7423ZM6.14906 15.3335C6.09675 15.3335 6.04528 15.3217 5.99794 15.2994C3.94687 14.3301 2.62292 12.239 2.62292 9.97049C2.62292 9.50418 3.33112 9.50427 3.33112 9.97049C3.33112 11.9656 4.49568 13.8071 6.30019 14.659C6.64022 14.8195 6.52453 15.3335 6.14897 15.3335H6.14906Z" fill="white"/>
<path fill-rule="evenodd" clip-rule="evenodd" d="M6.74935 14.6218C6.30704 14.6218 6.19894 15.2422 6.61538 15.3905C6.76726 15.4446 7.22073 15.6254 7.34317 15.6254C7.78567 15.6254 7.89367 15.0051 7.47714 14.8568C7.32554 14.8028 6.87142 14.6219 6.74935 14.6219V14.6218Z" fill="white"/>
<path fill-rule="evenodd" clip-rule="evenodd" d="M7.34322 15.9999C7.12984 15.9999 6.72137 15.8256 6.48971 15.7433C5.52802 15.4011 6.05424 13.9521 7.00618 14.291L7.60272 14.503C8.41403 14.7916 8.20272 15.9999 7.34312 15.9999H7.34322Z" fill="white"/>
<path fill-rule="evenodd" clip-rule="evenodd" d="M2.28172 6.65649C2.03956 6.65649 1.84241 6.85365 1.84241 7.09581V9.31975C1.84241 9.56191 2.03938 9.75898 2.28172 9.75898H2.93657V6.65649H2.28172Z" fill="white"/>
<path fill-rule="evenodd" clip-rule="evenodd" d="M3.12422 10.1341H2.28187C1.8329 10.1341 1.46765 9.76873 1.46765 9.31976V7.09581C1.46765 6.64684 1.8329 6.28149 2.28187 6.28149H3.12422C3.22772 6.28149 3.31172 6.36549 3.31172 6.46899V9.94648C3.31172 10.05 3.22772 10.1342 3.12422 10.1342V10.1341Z" fill="white"/>
<path fill-rule="evenodd" clip-rule="evenodd" d="M13.0632 9.75898H13.7179C13.96 9.75898 14.1571 9.56201 14.1571 9.31975V7.09581C14.1571 6.85365 13.9601 6.65649 13.7179 6.65649H13.0632V9.75898Z" fill="white"/>
<path fill-rule="evenodd" clip-rule="evenodd" d="M13.718 10.1341H12.8756C12.7721 10.1341 12.6881 10.05 12.6881 9.94657V6.46899C12.6881 6.36549 12.7722 6.28149 12.8756 6.28149H13.718C14.1669 6.28149 14.5323 6.64684 14.5323 7.09581V9.31976C14.5323 9.76873 14.1669 10.1341 13.718 10.1341Z" fill="white"/>
<path fill-rule="evenodd" clip-rule="evenodd" d="M7.42002 12.1212C8.46121 11.4331 9.3118 10.5827 9.94846 9.59343C9.98399 9.53812 10.091 9.34893 9.97349 9.23155L9.37021 8.62817L8.67336 9.32249C8.87427 9.52508 9.15524 9.71896 8.97871 9.89549L7.72386 11.1502C7.54677 11.3272 7.35402 11.0454 7.15348 10.8448L6.45654 11.5391L7.05992 12.1448C7.15676 12.2419 7.30667 12.196 7.42002 12.1212Z" fill="white"/>
</svg>
