<svg width="58" height="58" viewBox="0 0 58 58" fill="none" xmlns="http://www.w3.org/2000/svg">
<path fill-rule="evenodd" clip-rule="evenodd" d="M34.6911 26.0407V32.87L32.4147 35.1464H25.5854L23.309 32.87V26.0407C23.309 23.9204 23.0047 23.2921 19.9428 19.2763C18.4842 17.363 17.6179 14.9737 17.6179 12.3821C17.6179 6.09601 22.7139 1 29 1C35.2861 1 40.3821 6.09601 40.3821 12.3821C40.3821 14.9737 39.5159 17.363 38.0572 19.2763C34.9953 23.2923 34.6911 23.9204 34.6911 26.0407Z" stroke="#004092" stroke-width="2" stroke-miterlimit="22.9256" stroke-linecap="round" stroke-linejoin="round"/>
<path d="M24.2048 30.5938H33.7961" stroke="#004092" stroke-width="2" stroke-miterlimit="22.9256" stroke-linecap="round" stroke-linejoin="round"/>
<path d="M29 25.5884V14.6587" stroke="#004092" stroke-width="2" stroke-miterlimit="22.9256" stroke-linecap="round" stroke-linejoin="round"/>
<path d="M31.2763 12.3823L28.9998 14.6588L26.7234 12.3823" stroke="#004092" stroke-width="2" stroke-miterlimit="22.9256" stroke-linecap="round" stroke-linejoin="round"/>
<path d="M23.7759 26.041H34.2238" stroke="#004092" stroke-width="2" stroke-miterlimit="22.9256" stroke-linecap="round" stroke-linejoin="round"/>
<path d="M10.2202 12.3823H12.4968" stroke="#004092" stroke-width="2" stroke-miterlimit="22.9256" stroke-linecap="round" stroke-linejoin="round"/>
<path d="M12.7363 2.9917L14.7078 4.12992" stroke="#004092" stroke-width="2" stroke-miterlimit="22.9256" stroke-linecap="round" stroke-linejoin="round"/>
<path d="M12.7363 21.7725L14.7078 20.6343" stroke="#004092" stroke-width="2" stroke-miterlimit="22.9256" stroke-linecap="round" stroke-linejoin="round"/>
<path d="M47.7808 12.3823H45.5044" stroke="#004092" stroke-width="2" stroke-miterlimit="22.9256" stroke-linecap="round" stroke-linejoin="round"/>
<path d="M45.2651 2.9917L43.2937 4.12992" stroke="#004092" stroke-width="2" stroke-miterlimit="22.9256" stroke-linecap="round" stroke-linejoin="round"/>
<path d="M45.2651 21.7725L43.2937 20.6343" stroke="#004092" stroke-width="2" stroke-miterlimit="22.9256" stroke-linecap="round" stroke-linejoin="round"/>
<path d="M2.13867 48.4639V44.3947C8.34261 44.3947 11.6512 42.0611 14.6385 40.9187C20.8385 38.5475 25.6061 40.4444 29.0006 46.45C32.3951 40.4444 37.1627 38.5475 43.3626 40.9187C46.3499 42.0611 49.6585 44.3947 55.8625 44.3947V48.4639" stroke="#004092" stroke-width="2" stroke-miterlimit="22.9256" stroke-linecap="round" stroke-linejoin="round"/>
<path d="M29 46.4502V49.9936" stroke="#004092" stroke-width="2" stroke-miterlimit="22.9256" stroke-linecap="round" stroke-linejoin="round"/>
<path fill-rule="evenodd" clip-rule="evenodd" d="M29 51.1318C29.8501 49.6593 31.1867 49.0332 32.8861 49.0332H57V54.1552H32.8185C32.3287 55.8007 30.8046 57.0007 29 57.0007C27.1954 57.0007 25.6714 55.8007 25.1815 54.1552H1V49.0332H25.1139C26.8133 49.0332 28.1499 49.6593 29 51.1318Z" stroke="#004092" stroke-width="2" stroke-miterlimit="22.9256" stroke-linecap="round" stroke-linejoin="round"/>
</svg>
