<svg width="18" height="18" viewBox="0 0 18 18" fill="none" xmlns="http://www.w3.org/2000/svg">
<path d="M16.2 16.1995V10.9255C16.2 8.33352 15.642 6.35352 12.618 6.35352C11.16 6.35352 10.188 7.14552 9.79204 7.90152H9.75604V6.58752H6.89404V16.1995H9.88204V11.4295C9.88204 10.1695 10.116 8.96352 11.664 8.96352C13.194 8.96352 13.212 10.3855 13.212 11.5015V16.1815H16.2V16.1995Z" fill="white"/>
<path d="M2.03394 6.58789H5.02194V16.1999H2.03394V6.58789Z" fill="white"/>
<path d="M3.52805 1.7998C2.57405 1.7998 1.80005 2.5738 1.80005 3.5278C1.80005 4.4818 2.57405 5.2738 3.52805 5.2738C4.48205 5.2738 5.25605 4.4818 5.25605 3.5278C5.25605 2.5738 4.48205 1.7998 3.52805 1.7998Z" fill="white"/>
</svg>
