<svg width="20" height="25" viewBox="0 0 20 25" fill="none" xmlns="http://www.w3.org/2000/svg">
<path d="M10 24.5143C8.24 24.5143 0 16.5143 0 10C0 7.34784 1.05357 4.8043 2.92893 2.92893C4.8043 1.05357 7.34784 0 10 0C12.6522 0 15.1957 1.05357 17.0711 2.92893C18.9464 4.8043 20 7.34784 20 10C20 16.5371 11.76 24.5143 10 24.5143ZM10 1.70286C7.80144 1.70589 5.69397 2.58138 4.14042 4.13707C2.58688 5.69276 1.71428 7.80144 1.71429 10C1.71429 15.4171 8.46857 22.0457 10 22.7657C11.5314 22.0457 18.2857 15.4171 18.2857 10C18.2857 7.80144 17.4131 5.69276 15.8596 4.13707C14.306 2.58138 12.1986 1.70589 10 1.70286Z" fill="#004092"/>
<path d="M9.99997 14.8002C9.03932 14.8002 8.10024 14.5154 7.30148 13.9817C6.50273 13.4479 5.88018 12.6894 5.51255 11.8018C5.14493 10.9143 5.04874 9.9377 5.23615 8.9955C5.42357 8.05331 5.88616 7.18785 6.56545 6.50856C7.24473 5.82928 8.11019 5.36668 9.05239 5.17927C9.99458 4.99185 10.9712 5.08804 11.8587 5.45567C12.7462 5.82329 13.5048 6.44585 14.0385 7.2446C14.5722 8.04335 14.8571 8.98243 14.8571 9.94308C14.8541 11.2304 14.3414 12.464 13.4312 13.3743C12.5209 14.2845 11.2872 14.7972 9.99997 14.8002ZM9.99997 6.80023C9.37837 6.80023 8.77073 6.98455 8.25389 7.32989C7.73705 7.67523 7.33422 8.16608 7.09635 8.74036C6.85847 9.31465 6.79623 9.94657 6.9175 10.5562C7.03877 11.1659 7.3381 11.7259 7.77763 12.1654C8.21717 12.605 8.77717 12.9043 9.38683 13.0256C9.99648 13.1468 10.6284 13.0846 11.2027 12.8467C11.777 12.6088 12.2678 12.206 12.6132 11.6892C12.9585 11.1723 13.1428 10.5647 13.1428 9.94308C13.1428 9.10955 12.8117 8.31015 12.2223 7.72075C11.6329 7.13135 10.8335 6.80023 9.99997 6.80023Z" fill="#004092"/>
</svg>
