<svg width="45" height="45" viewBox="0 0 45 45" fill="none" xmlns="http://www.w3.org/2000/svg">
<path d="M22.5 27.0072C22.3966 27.0071 22.2946 26.9843 22.2011 26.9404L0.404252 16.6853C0.283457 16.6285 0.18132 16.5385 0.109778 16.4259C0.0382355 16.3132 0.000244141 16.1825 0.000244141 16.049C0.000244141 15.9155 0.0382355 15.7848 0.109778 15.6721C0.18132 15.5594 0.283457 15.4694 0.404252 15.4127L22.2011 5.15406C22.2946 5.11016 22.3967 5.0874 22.5 5.0874C22.6032 5.0874 22.7053 5.11016 22.7988 5.15406L44.5956 15.4127C44.7164 15.4694 44.8186 15.5594 44.8901 15.6721C44.9617 15.7848 44.9997 15.9155 44.9997 16.049C44.9997 16.1825 44.9617 16.3132 44.8901 16.4259C44.8186 16.5385 44.7164 16.6285 44.5956 16.6853L22.7988 26.9404C22.7053 26.9843 22.6033 27.0071 22.5 27.0072ZM2.35542 16.049L22.5 25.5412L42.6445 16.049L22.5 6.56734L2.35542 16.049Z" fill="#013475"/>
<path d="M8.4375 28.125C8.25102 28.125 8.07218 28.0509 7.94032 27.9191C7.80845 27.7872 7.73438 27.6084 7.73438 27.4219V20.0391C7.73438 19.8526 7.80845 19.6737 7.94032 19.5419C8.07218 19.41 8.25102 19.3359 8.4375 19.3359C8.62398 19.3359 8.80282 19.41 8.93468 19.5419C9.06655 19.6737 9.14062 19.8526 9.14062 20.0391V27.4219C9.14062 27.6084 9.06655 27.7872 8.93468 27.9191C8.80282 28.0509 8.62398 28.125 8.4375 28.125Z" fill="#013475"/>
<path d="M36.5625 28.125C36.376 28.125 36.1972 28.0509 36.0653 27.9191C35.9335 27.7872 35.8594 27.6084 35.8594 27.4219V20.0391C35.8594 19.8526 35.9335 19.6737 36.0653 19.5419C36.1972 19.41 36.376 19.3359 36.5625 19.3359C36.749 19.3359 36.9278 19.41 37.0597 19.5419C37.1915 19.6737 37.2656 19.8526 37.2656 20.0391V27.4219C37.2656 27.6084 37.1915 27.7872 37.0597 27.9191C36.9278 28.0509 36.749 28.125 36.5625 28.125Z" fill="#013475"/>
<path d="M22.5 35.3426C14.5477 35.3426 7.73438 30.9867 7.73438 27.4219C7.73438 27.2354 7.80845 27.0566 7.94032 26.9247C8.07218 26.7928 8.25102 26.7188 8.4375 26.7188C8.62398 26.7188 8.80282 26.7928 8.93468 26.9247C9.06655 27.0566 9.14062 27.2354 9.14062 27.4219C9.14062 29.6508 14.7656 33.9363 22.5 33.9363C30.2344 33.9363 35.8594 29.6508 35.8594 27.4219C35.8594 27.2354 35.9335 27.0566 36.0653 26.9247C36.1972 26.7928 36.376 26.7188 36.5625 26.7188C36.749 26.7188 36.9278 26.7928 37.0597 26.9247C37.1915 27.0566 37.2656 27.2354 37.2656 27.4219C37.2656 30.9867 30.4523 35.3426 22.5 35.3426Z" fill="#013475"/>
<path d="M33.047 35.5077C32.8605 35.5077 32.6817 35.4336 32.5498 35.3018C32.4179 35.1699 32.3439 34.9911 32.3439 34.8046V21.5296L22.1872 16.4495C22.1017 16.4102 22.0249 16.3541 21.9614 16.2846C21.8979 16.215 21.849 16.1334 21.8177 16.0446C21.7864 15.9558 21.7732 15.8617 21.7789 15.7677C21.7846 15.6737 21.8092 15.5818 21.8511 15.4975C21.893 15.4132 21.9515 15.3382 22.0229 15.2769C22.0944 15.2156 22.1775 15.1692 22.2672 15.1406C22.3569 15.112 22.4514 15.1017 22.5452 15.1104C22.639 15.119 22.73 15.1464 22.813 15.1909L33.3599 20.4643C33.477 20.5225 33.5756 20.6123 33.6446 20.7235C33.7135 20.8346 33.75 20.9628 33.7501 21.0936V34.8046C33.7501 34.9911 33.676 35.1699 33.5442 35.3018C33.4123 35.4336 33.2335 35.5077 33.047 35.5077Z" fill="#013475"/>
<path d="M33.0469 38.6719C32.6297 38.6719 32.2219 38.5482 31.875 38.3164C31.5281 38.0846 31.2577 37.7552 31.0981 37.3697C30.9384 36.9843 30.8966 36.5602 30.978 36.151C31.0594 35.7418 31.2603 35.3659 31.5553 35.0709C31.8503 34.7759 32.2262 34.575 32.6354 34.4937C33.0445 34.4123 33.4687 34.454 33.8541 34.6137C34.2395 34.7733 34.569 35.0437 34.8008 35.3906C35.0325 35.7375 35.1563 36.1453 35.1563 36.5625C35.1563 37.1219 34.934 37.6585 34.5384 38.0541C34.1428 38.4496 33.6063 38.6719 33.0469 38.6719ZM33.0469 35.8594C32.9078 35.8594 32.7719 35.9006 32.6562 35.9779C32.5406 36.0551 32.4505 36.1649 32.3973 36.2934C32.3441 36.4219 32.3301 36.5633 32.3573 36.6997C32.3844 36.8361 32.4514 36.9614 32.5497 37.0597C32.648 37.158 32.7733 37.225 32.9097 37.2521C33.0461 37.2792 33.1875 37.2653 33.3159 37.2121C33.4444 37.1589 33.5542 37.0688 33.6315 36.9531C33.7088 36.8375 33.75 36.7016 33.75 36.5625C33.75 36.376 33.6759 36.1972 33.5441 36.0653C33.4122 35.9335 33.2334 35.8594 33.0469 35.8594Z" fill="#013475"/>
<path d="M34.1017 42.8908H31.9923C31.8947 42.8912 31.7981 42.8712 31.7087 42.8322C31.6192 42.7932 31.5389 42.736 31.4727 42.6642C31.4066 42.5925 31.3561 42.5077 31.3245 42.4154C31.2929 42.3231 31.2809 42.2252 31.2892 42.1279L31.6407 37.9092C31.6477 37.7227 31.7285 37.5466 31.8653 37.4197C32.0021 37.2928 32.1837 37.2254 32.3702 37.2324C32.5567 37.2394 32.7328 37.3202 32.8597 37.457C32.9866 37.5938 33.054 37.7754 33.047 37.9619C33.04 37.7754 33.1074 37.5938 33.2343 37.457C33.3612 37.3202 33.5373 37.2394 33.7237 37.2324C33.9102 37.2254 34.0918 37.2928 34.2286 37.4197C34.3655 37.5466 34.4462 37.7227 34.4532 37.9092L34.8048 42.1279C34.8131 42.2252 34.8011 42.3231 34.7695 42.4154C34.7378 42.5077 34.6874 42.5925 34.6212 42.6642C34.5551 42.736 34.4747 42.7932 34.3853 42.8322C34.2958 42.8712 34.1993 42.8912 34.1017 42.8908ZM32.7552 41.4846H33.3388L33.047 38.0287C33.0452 38.0112 33.0452 37.9935 33.047 37.976C33.0487 37.9935 33.0487 38.0112 33.047 38.0287L32.7552 41.4846Z" fill="#013475"/>
</svg>
