<svg width="65" height="65" viewBox="0 0 65 65" fill="none" xmlns="http://www.w3.org/2000/svg">
<mask id="path-1-inside-1_4_432" fill="white">
<path d="M32.2984 2C19.5664 2 9.22583 12.1672 9.22583 24.6772C9.22583 37.1872 19.5664 47.3475 32.2984 47.3475C45.0304 47.3475 55.3709 37.1872 55.3709 24.6772C55.3709 12.1672 45.0304 2 32.2984 2ZM32.2984 3.88977C43.9912 3.88977 53.4476 13.1883 53.4476 24.6772C53.4476 36.1662 43.9912 45.4577 32.2984 45.4577C20.6056 45.4577 11.1491 36.1662 11.1491 24.6772C11.1491 13.1883 20.6056 3.88977 32.2984 3.88977Z"/>
</mask>
<path d="M32.2984 2V5V2ZM9.22583 24.6772H6.22583V24.6772H9.22583ZM11.1491 24.6772H8.14913V24.6772H11.1491ZM32.2984 2V-1C17.9583 -1 6.22583 10.462 6.22583 24.6772H9.22583H12.2258C12.2258 13.8724 21.1745 5 32.2984 5V2ZM9.22583 24.6772H6.22583C6.22583 38.8936 17.9595 50.3475 32.2984 50.3475V47.3475V44.3475C21.1733 44.3475 12.2258 35.4808 12.2258 24.6772H9.22583ZM32.2984 47.3475V50.3475C46.6373 50.3475 58.3709 38.8936 58.3709 24.6772H55.3709H52.3709C52.3709 35.4808 43.4235 44.3475 32.2984 44.3475V47.3475ZM55.3709 24.6772H58.3709C58.3709 10.462 46.6385 -1 32.2984 -1V2V5C43.4223 5 52.3709 13.8724 52.3709 24.6772H55.3709ZM32.2984 3.88977V6.88977C42.383 6.88977 50.4476 14.8934 50.4476 24.6772H53.4476H56.4476C56.4476 11.4832 45.5994 0.889768 32.2984 0.889768V3.88977ZM53.4476 24.6772H50.4476C50.4476 34.4598 42.3843 42.4577 32.2984 42.4577V45.4577V48.4577C45.5981 48.4577 56.4476 37.8725 56.4476 24.6772H53.4476ZM32.2984 45.4577V42.4577C22.2124 42.4577 14.1491 34.4598 14.1491 24.6772H11.1491H8.14913C8.14913 37.8725 18.9987 48.4577 32.2984 48.4577V45.4577ZM11.1491 24.6772H14.1491C14.1491 14.8934 22.2138 6.88977 32.2984 6.88977V3.88977V0.889768C18.9973 0.889768 8.14913 11.4832 8.14913 24.6772H11.1491Z" fill="#013475" mask="url(#path-1-inside-1_4_432)"/>
<mask id="path-3-inside-2_4_432" fill="white">
<path d="M32.2992 7.66943C22.7531 7.66943 14.9966 15.2976 14.9966 24.6773C14.9966 34.057 22.7531 41.6783 32.2992 41.6783C41.8454 41.6783 49.6019 34.057 49.6019 24.6773C49.6019 15.2976 41.8454 7.66943 32.2992 7.66943ZM32.2992 9.5592C40.8062 9.5592 47.6786 16.3187 47.6786 24.6773C47.6786 33.036 40.8062 39.7885 32.2992 39.7885C23.7922 39.7885 16.9128 33.036 16.9128 24.6773C16.9128 16.3187 23.7922 9.5592 32.2992 9.5592Z"/>
</mask>
<path d="M32.2992 7.66943V4.66943V4.66943V7.66943ZM14.9966 24.6773H11.9966V24.6773H14.9966ZM49.6019 24.6773L52.6019 24.6773V24.6773H49.6019ZM32.2992 9.5592V6.5592V6.5592V9.5592ZM47.6786 24.6773L50.6786 24.6773V24.6773H47.6786ZM16.9128 24.6773H13.9128V24.6773H16.9128ZM32.2992 7.66943V4.66943C21.1446 4.66943 11.9966 13.5928 11.9966 24.6773H14.9966H17.9966C17.9966 17.0024 24.3616 10.6694 32.2992 10.6694V7.66943ZM14.9966 24.6773H11.9966C11.9966 35.7634 21.1462 44.6783 32.2992 44.6783V41.6783V38.6783C24.36 38.6783 17.9966 32.3507 17.9966 24.6773H14.9966ZM32.2992 41.6783V44.6783C43.4523 44.6783 52.6019 35.7634 52.6019 24.6773L49.6019 24.6773H46.6019C46.6019 32.3507 40.2385 38.6783 32.2992 38.6783V41.6783ZM49.6019 24.6773H52.6019C52.6019 13.5928 43.4539 4.66943 32.2992 4.66943V7.66943V10.6694C40.2369 10.6694 46.6019 17.0024 46.6019 24.6773H49.6019ZM32.2992 9.5592V12.5592C39.1975 12.5592 44.6786 18.0233 44.6786 24.6773H47.6786H50.6786C50.6786 14.6141 42.4149 6.5592 32.2992 6.5592V9.5592ZM47.6786 24.6773L44.6786 24.6773C44.6786 31.3296 39.1993 36.7885 32.2992 36.7885V39.7885V42.7885C42.4131 42.7885 50.6786 34.7424 50.6786 24.6773L47.6786 24.6773ZM32.2992 39.7885V36.7885C25.3973 36.7885 19.9128 31.3278 19.9128 24.6773H16.9128H13.9128C13.9128 34.7442 22.1872 42.7885 32.2992 42.7885V39.7885ZM16.9128 24.6773H19.9128C19.9128 18.0251 25.3991 12.5592 32.2992 12.5592V9.5592V6.5592C22.1854 6.5592 13.9128 14.6123 13.9128 24.6773H16.9128Z" fill="#013475" mask="url(#path-3-inside-2_4_432)"/>
<mask id="path-5-inside-3_4_432" fill="white">
<path d="M14.1228 37.6616L5.09532 53.0238C5.00405 53.1811 4.96071 53.3609 4.97046 53.5417C4.98022 53.7225 5.04265 53.8968 5.15033 54.0437C5.25801 54.1907 5.4064 54.3041 5.57783 54.3706C5.74926 54.437 5.93651 54.4536 6.11729 54.4185L15.3151 52.6333L18.3384 61.3569C18.3976 61.5295 18.5063 61.6816 18.6514 61.7949C18.7965 61.9082 18.9718 61.9779 19.1563 61.9956C19.3407 62.0133 19.5265 61.9782 19.6911 61.8946C19.8558 61.811 19.9923 61.6824 20.0843 61.5243L28.9273 46.4759L27.2595 45.5275L19.474 58.7698L16.8623 51.2387C16.7869 51.0231 16.6348 50.8415 16.4339 50.7274C16.2331 50.6134 15.997 50.5745 15.7693 50.618L7.82059 52.1591L15.7835 38.61L14.1228 37.6616Z"/>
</mask>
<path d="M14.1228 37.6616L15.6105 35.0565L13.0375 33.5871L11.5363 36.1417L14.1228 37.6616ZM5.09532 53.0238L2.50884 51.5039L2.50462 51.5111L2.50044 51.5183L5.09532 53.0238ZM6.11729 54.4185L5.5457 51.4735L5.54466 51.4737L6.11729 54.4185ZM15.3151 52.6333L18.1497 51.6509L17.2977 49.1926L14.7435 49.6883L15.3151 52.6333ZM18.3384 61.3569L21.1763 60.3839L21.173 60.3746L18.3384 61.3569ZM20.0843 61.5243L17.4978 60.0044L17.4914 60.0153L20.0843 61.5243ZM28.9273 46.4759L31.5137 47.9958L33.0555 45.3722L30.4102 43.868L28.9273 46.4759ZM27.2595 45.5275L28.7424 42.9197L26.1719 41.458L24.6733 44.0071L27.2595 45.5275ZM19.474 58.7698L16.6396 59.7528L18.7679 65.89L22.0601 60.2903L19.474 58.7698ZM16.8623 51.2387L19.6967 50.2557L19.6944 50.2492L16.8623 51.2387ZM15.7693 50.618L15.2063 47.6713L15.1983 47.6729L15.7693 50.618ZM7.82059 52.1591L5.23419 50.6391L1.86646 56.3694L8.3916 55.1043L7.82059 52.1591ZM15.7835 38.61L18.3699 40.13L19.909 37.5112L17.2712 36.0049L15.7835 38.61ZM14.1228 37.6616L11.5363 36.1417L2.50884 51.5039L5.09532 53.0238L7.68179 54.5438L16.7093 39.1815L14.1228 37.6616ZM5.09532 53.0238L2.50044 51.5183C2.1176 52.1782 1.93348 52.9369 1.97482 53.7033L4.97046 53.5417L7.96611 53.3801C7.98794 53.7849 7.8905 54.1841 7.69019 54.5294L5.09532 53.0238ZM4.97046 53.5417L1.97482 53.7033C2.01615 54.4696 2.28067 55.2031 2.73047 55.817L5.15033 54.0437L7.57019 52.2705C7.80463 52.5905 7.94428 52.9755 7.96611 53.3801L4.97046 53.5417ZM5.15033 54.0437L2.73047 55.817C3.17986 56.4302 3.79367 56.8965 4.49373 57.1678L5.57783 54.3706L6.66193 51.5733C7.01912 51.7117 7.33616 51.9512 7.57019 52.2705L5.15033 54.0437ZM5.57783 54.3706L4.49373 57.1678C5.19339 57.439 5.95501 57.5062 6.68992 57.3633L6.11729 54.4185L5.54466 51.4737C5.91802 51.4011 6.30513 51.435 6.66193 51.5733L5.57783 54.3706ZM6.11729 54.4185L6.68889 57.3635L15.8867 55.5784L15.3151 52.6333L14.7435 49.6883L5.5457 51.4735L6.11729 54.4185ZM15.3151 52.6333L12.4805 53.6157L15.5038 62.3393L18.3384 61.3569L21.173 60.3746L18.1497 51.6509L15.3151 52.6333ZM18.3384 61.3569L15.5006 62.33C15.7502 63.0579 16.2059 63.6916 16.805 64.1594L18.6514 61.7949L20.4978 59.4305C20.8066 59.6716 21.045 60.0011 21.1763 60.3839L18.3384 61.3569ZM18.6514 61.7949L16.805 64.1594C17.4035 64.6268 18.1209 64.9101 18.87 64.9819L19.1563 61.9956L19.4425 59.0093C19.8227 59.0457 20.1895 59.1897 20.4978 59.4305L18.6514 61.7949ZM19.1563 61.9956L18.87 64.9819C19.6191 65.0537 20.3755 64.9117 21.0496 64.5694L19.6911 61.8946L18.3327 59.2198C18.6775 59.0447 19.0624 58.9729 19.4425 59.0093L19.1563 61.9956ZM19.6911 61.8946L21.0496 64.5694C21.7241 64.2268 22.2916 63.6958 22.6772 63.0332L20.0843 61.5243L17.4914 60.0153C17.693 59.669 17.9874 59.3951 18.3327 59.2198L19.6911 61.8946ZM20.0843 61.5243L22.6708 63.0442L31.5137 47.9958L28.9273 46.4759L26.3408 44.956L17.4978 60.0044L20.0843 61.5243ZM28.9273 46.4759L30.4102 43.868L28.7424 42.9197L27.2595 45.5275L25.7765 48.1354L27.4443 49.0838L28.9273 46.4759ZM27.2595 45.5275L24.6733 44.0071L16.8878 57.2494L19.474 58.7698L22.0601 60.2903L29.8456 47.048L27.2595 45.5275ZM19.474 58.7698L22.3084 57.7869L19.6967 50.2557L16.8623 51.2387L14.0278 52.2216L16.6396 59.7528L19.474 58.7698ZM16.8623 51.2387L19.6944 50.2492C19.3766 49.3396 18.7396 48.5868 17.9153 48.1187L16.4339 50.7274L14.9526 53.3362C14.53 53.0962 14.1973 52.7065 14.0301 52.2282L16.8623 51.2387ZM16.4339 50.7274L17.9153 48.1187C17.0922 47.6513 16.1311 47.4946 15.2063 47.6713L15.7693 50.618L16.3323 53.5647C15.8629 53.6544 15.374 53.5755 14.9526 53.3362L16.4339 50.7274ZM15.7693 50.618L15.1983 47.6729L7.24958 49.214L7.82059 52.1591L8.3916 55.1043L16.3403 53.5632L15.7693 50.618ZM7.82059 52.1591L10.407 53.6792L18.3699 40.13L15.7835 38.61L13.1971 37.0899L5.23419 50.6391L7.82059 52.1591ZM15.7835 38.61L17.2712 36.0049L15.6105 35.0565L14.1228 37.6616L12.6351 40.2668L14.2958 41.2151L15.7835 38.61Z" fill="#013475" mask="url(#path-5-inside-3_4_432)"/>
<mask id="path-7-inside-4_4_432" fill="white">
<path d="M50.475 37.6616L48.8143 38.61L56.7772 52.1591L48.8285 50.618C48.6008 50.5745 48.3647 50.6134 48.1638 50.7274C47.963 50.8415 47.8109 51.0231 47.7355 51.2387L45.1238 58.7698L37.3383 45.5275L35.6705 46.4759L44.5135 61.5243C44.6055 61.6824 44.742 61.811 44.9067 61.8946C45.0713 61.9782 45.257 62.0133 45.4415 61.9956C45.626 61.9779 45.8013 61.9082 45.9464 61.7949C46.0915 61.6816 46.2002 61.5295 46.2594 61.357L49.2827 52.6333L58.4805 54.4185C58.6613 54.4537 58.8485 54.437 59.02 54.3706C59.1914 54.3041 59.3398 54.1907 59.4475 54.0438C59.5551 53.8968 59.6176 53.7226 59.6273 53.5417C59.6371 53.3609 59.5937 53.1812 59.5025 53.0238L50.475 37.6616Z"/>
</mask>
<path d="M50.475 37.6616L53.0615 36.1417L51.5603 33.5871L48.9873 35.0565L50.475 37.6616ZM48.8143 38.61L47.3266 36.0049L44.6888 37.5112L46.2279 40.13L48.8143 38.61ZM56.7772 52.1591L56.2062 55.1043L62.7313 56.3694L59.3636 50.6391L56.7772 52.1591ZM48.8285 50.618L49.3995 47.6729L49.3915 47.6713L48.8285 50.618ZM47.7355 51.2387L44.9034 50.2492L44.9011 50.2557L47.7355 51.2387ZM45.1238 58.7698L42.5377 60.2903L45.8299 65.89L47.9582 59.7528L45.1238 58.7698ZM37.3383 45.5275L39.9245 44.0071L38.4259 41.458L35.8554 42.9197L37.3383 45.5275ZM35.6705 46.4759L34.1876 43.868L31.5423 45.3722L33.084 47.9958L35.6705 46.4759ZM44.5135 61.5243L47.1064 60.0153L47.1 60.0044L44.5135 61.5243ZM46.2594 61.357L43.4247 60.3746L43.4215 60.3839L46.2594 61.357ZM49.2827 52.6333L49.8543 49.6883L47.3001 49.1926L46.4481 51.651L49.2827 52.6333ZM58.4805 54.4185L59.0531 51.4737L59.0521 51.4735L58.4805 54.4185ZM59.5025 53.0238L62.0973 51.5183L62.0932 51.5111L62.089 51.5039L59.5025 53.0238ZM50.475 37.6616L48.9873 35.0565L47.3266 36.0049L48.8143 38.61L50.302 41.2151L51.9627 40.2668L50.475 37.6616ZM48.8143 38.61L46.2279 40.13L54.1908 53.6792L56.7772 52.1591L59.3636 50.6391L51.4007 37.0899L48.8143 38.61ZM56.7772 52.1591L57.3482 49.214L49.3995 47.6729L48.8285 50.618L48.2575 53.5632L56.2062 55.1043L56.7772 52.1591ZM48.8285 50.618L49.3915 47.6713C48.4667 47.4946 47.5056 47.6513 46.6825 48.1187L48.1638 50.7274L49.6452 53.3362C49.2238 53.5755 48.7349 53.6544 48.2655 53.5647L48.8285 50.618ZM48.1638 50.7274L46.6825 48.1187C45.8582 48.5868 45.2212 49.3396 44.9034 50.2492L47.7355 51.2387L50.5677 52.2282C50.4005 52.7066 50.0678 53.0962 49.6452 53.3362L48.1638 50.7274ZM47.7355 51.2387L44.9011 50.2557L42.2894 57.7869L45.1238 58.7698L47.9582 59.7528L50.5699 52.2216L47.7355 51.2387ZM45.1238 58.7698L47.71 57.2494L39.9245 44.0071L37.3383 45.5275L34.7522 47.048L42.5377 60.2903L45.1238 58.7698ZM37.3383 45.5275L35.8554 42.9197L34.1876 43.868L35.6705 46.4759L37.1534 49.0838L38.8213 48.1354L37.3383 45.5275ZM35.6705 46.4759L33.084 47.9958L41.927 63.0442L44.5135 61.5243L47.1 60.0044L38.257 44.956L35.6705 46.4759ZM44.5135 61.5243L41.9206 63.0333C42.3062 63.6958 42.8736 64.2268 43.5482 64.5694L44.9067 61.8946L46.2651 59.2198C46.6104 59.3951 46.9048 59.669 47.1064 60.0153L44.5135 61.5243ZM44.9067 61.8946L43.5482 64.5694C44.2223 64.9118 44.9787 65.0537 45.7277 64.9819L45.4415 61.9956L45.1553 59.0093C45.5354 58.9729 45.9203 59.0447 46.2651 59.2198L44.9067 61.8946ZM45.4415 61.9956L45.7277 64.9819C46.4769 64.9101 47.1944 64.6267 47.7928 64.1594L45.9464 61.7949L44.1 59.4305C44.4082 59.1897 44.775 59.0457 45.1553 59.0093L45.4415 61.9956ZM45.9464 61.7949L47.7928 64.1594C48.3918 63.6916 48.8476 63.058 49.0972 62.33L46.2594 61.357L43.4215 60.3839C43.5528 60.0011 43.7912 59.6716 44.1 59.4305L45.9464 61.7949ZM46.2594 61.357L49.0939 62.3393L52.1173 53.6157L49.2827 52.6333L46.4481 51.651L43.4248 60.3746L46.2594 61.357ZM49.2827 52.6333L48.7111 55.5784L57.9089 57.3636L58.4805 54.4185L59.0521 51.4735L49.8543 49.6883L49.2827 52.6333ZM58.4805 54.4185L57.9079 57.3634C58.6428 57.5063 59.4044 57.439 60.1041 57.1679L59.02 54.3706L57.9359 51.5733C58.2927 51.435 58.6798 51.4011 59.0531 51.4737L58.4805 54.4185ZM59.02 54.3706L60.1041 57.1679C60.8041 56.8965 61.4179 56.4302 61.8673 55.817L59.4475 54.0438L57.0276 52.2705C57.2616 51.9512 57.5787 51.7117 57.9359 51.5733L59.02 54.3706ZM59.4475 54.0438L61.8673 55.817C62.3171 55.2032 62.5816 54.4696 62.623 53.7033L59.6273 53.5417L56.6317 53.3802C56.6535 52.9755 56.7932 52.5905 57.0276 52.2705L59.4475 54.0438ZM59.6273 53.5417L62.623 53.7033C62.6643 52.9369 62.4802 52.1782 62.0973 51.5183L59.5025 53.0238L56.9076 54.5294C56.7073 54.1841 56.6099 53.7849 56.6317 53.3802L59.6273 53.5417ZM59.5025 53.0238L62.089 51.5039L53.0615 36.1417L50.475 37.6616L47.8885 39.1815L56.916 54.5438L59.5025 53.0238Z" fill="#013475" mask="url(#path-7-inside-4_4_432)"/>
<mask id="path-9-inside-5_4_432" fill="white">
<path d="M32.298 14.1548C31.6159 14.1548 31.4995 14.4481 31.3186 14.629C30.2679 15.8223 28.8547 18.2791 28.3307 19.0919C26.563 19.5264 24.6856 19.8853 23.0931 20.5005C22.8622 20.6136 22.5445 20.6371 22.3337 21.2745C22.1229 21.912 22.3636 22.1096 22.4828 22.3345C23.2573 23.6091 25.4584 26.0042 25.8823 26.5045C25.7748 28.4066 25.508 30.1206 25.6268 31.8321C25.6649 32.0829 25.5859 32.3865 26.1378 32.7805C26.6896 33.1744 26.962 33.0106 27.2165 32.9688C28.7303 32.6087 31.4482 31.4182 32.298 31.086C34.0034 31.723 35.699 32.5434 37.3795 32.9688C37.634 33.0106 37.9064 33.1744 38.4583 32.7805C39.0101 32.3865 38.9311 32.0829 38.9692 31.8321C39.098 30.3582 38.7578 27.1517 38.7137 26.5045C39.6962 25.3755 40.7481 24.1654 41.6732 23.0039C42.2017 22.4402 42.4168 21.8412 42.2622 21.2745C42.1076 20.7075 41.7338 20.6136 41.5029 20.5005C39.8052 19.8395 38.0059 19.5236 36.2653 19.0919C35.2642 17.5905 34.3852 15.9439 33.2774 14.629C33.0965 14.4481 32.9801 14.1548 32.298 14.1548ZM32.298 16.449C33.1425 17.6602 33.8506 18.8915 34.6542 20.096C34.7839 20.2756 34.8292 20.3994 35.1368 20.619C35.4445 20.8387 35.5688 20.8393 35.7827 20.905C37.2203 21.2821 38.6231 21.5888 40.0409 21.9788C39.14 23.15 38.1585 24.1864 37.2447 25.3121C37.1109 25.4888 37.0073 25.5634 36.8898 25.9188C36.7723 26.2741 36.8092 26.3959 36.8117 26.6161C36.8831 28.0794 37.0214 29.485 37.0885 30.9326C35.4921 30.3898 33.7871 29.5097 32.298 29.1962C31.9178 29.1962 31.8148 29.2723 31.6025 29.3427C30.2083 29.86 28.8874 30.4235 27.5075 30.9326C27.5545 29.4626 27.7163 28.0577 27.7843 26.6161C27.7868 26.3959 27.8237 26.2741 27.7062 25.9188C27.5887 25.5634 27.4851 25.4888 27.3514 25.3121C26.4393 24.1833 25.3589 22.9845 24.5551 21.9788C25.9876 21.5626 27.3985 21.2792 28.8133 20.905C29.0272 20.8393 29.1516 20.8387 29.4592 20.619C29.7668 20.3994 29.8121 20.2756 29.9418 20.096C30.4488 19.3618 30.9434 18.5393 31.3754 17.8437C31.7063 17.3148 32.0285 16.8221 32.298 16.449Z"/>
</mask>
<path d="M32.298 14.1548L32.298 17.1548H32.298L32.298 14.1548ZM31.3186 14.629L29.1974 12.5075L29.13 12.5749L29.067 12.6464L31.3186 14.629ZM28.3307 19.0919L29.0468 22.0052L30.2057 21.7203L30.8523 20.7172L28.3307 19.0919ZM23.0931 20.5005L22.0121 17.702L21.8904 17.749L21.7733 17.8064L23.0931 20.5005ZM22.3337 21.2745L19.4854 20.3326L19.4854 20.3326L22.3337 21.2745ZM22.4828 22.3345L19.8319 23.7391L19.8732 23.817L19.9189 23.8923L22.4828 22.3345ZM25.8823 26.5045L28.8775 26.6737L28.945 25.4786L28.1713 24.5653L25.8823 26.5045ZM25.6268 31.8321L22.634 32.0398L22.6425 32.1621L22.6609 32.2832L25.6268 31.8321ZM26.1378 32.7805L24.3947 35.2222L24.3947 35.2222L26.1378 32.7805ZM27.2165 32.9688L27.7033 35.929L27.8077 35.9118L27.9107 35.8873L27.2165 32.9688ZM32.298 31.086L33.3478 28.2757L32.2735 27.8743L31.2055 28.292L32.298 31.086ZM37.3795 32.9688L36.6434 35.8771L36.767 35.9083L36.8928 35.929L37.3795 32.9688ZM38.4583 32.7805L36.7152 30.3388L36.7152 30.3388L38.4583 32.7805ZM38.9692 31.8321L41.9351 32.2832L41.9495 32.1886L41.9579 32.0932L38.9692 31.8321ZM38.7137 26.5045L36.4506 24.5351L35.6363 25.4709L35.7206 26.7085L38.7137 26.5045ZM41.6732 23.0039L39.4847 20.9519L39.4019 21.0402L39.3265 21.1349L41.6732 23.0039ZM42.2622 21.2745L39.3679 22.0638L39.3679 22.0638L42.2622 21.2745ZM41.5029 20.5005L42.8227 17.8064L42.7092 17.7508L42.5914 17.7049L41.5029 20.5005ZM36.2653 19.0919L33.7692 20.7561L34.4144 21.7237L35.5431 22.0037L36.2653 19.0919ZM33.2774 14.629L35.5717 12.696L35.4891 12.5981L35.3986 12.5075L33.2774 14.629ZM32.298 16.449L34.7589 14.7332L32.3412 11.2656L29.866 14.6924L32.298 16.449ZM34.6542 20.096L32.1587 21.7611L32.1896 21.8073L32.2221 21.8524L34.6542 20.096ZM35.1368 20.619L36.8799 18.1774L36.8799 18.1774L35.1368 20.619ZM35.7827 20.905L34.9018 23.7727L34.9613 23.791L35.0215 23.8068L35.7827 20.905ZM40.0409 21.9788L42.4187 23.808L45.1402 20.2703L40.8367 19.0863L40.0409 21.9788ZM37.2447 25.3121L34.9155 23.4213L34.8834 23.4608L34.8527 23.5014L37.2447 25.3121ZM36.8898 25.9188L34.0415 24.9769V24.9769L36.8898 25.9188ZM36.8117 26.6161L33.8119 26.6503L33.8126 26.7063L33.8153 26.7622L36.8117 26.6161ZM37.0885 30.9326L36.1228 33.7729L40.2893 35.1895L40.0853 30.7935L37.0885 30.9326ZM32.298 29.1962L32.9161 26.2606L32.6104 26.1962L32.298 26.1962L32.298 29.1962ZM31.6025 29.3427L30.6587 26.495L30.6084 26.5117L30.5587 26.5301L31.6025 29.3427ZM27.5075 30.9326L24.509 30.8366L24.3665 35.289L28.5458 33.7472L27.5075 30.9326ZM27.7843 26.6161L30.781 26.7574L30.7835 26.7037L30.7841 26.65L27.7843 26.6161ZM27.7062 25.9188L30.5545 24.9769V24.9769L27.7062 25.9188ZM27.3514 25.3121L29.7433 23.5014L29.7147 23.4636L29.6848 23.4267L27.3514 25.3121ZM24.5551 21.9788L23.7179 19.098L19.412 20.3493L22.2117 23.852L24.5551 21.9788ZM28.8133 20.905L29.5806 23.8052L29.6377 23.7901L29.6942 23.7727L28.8133 20.905ZM29.4592 20.619L31.2022 23.0607L31.2022 23.0607L29.4592 20.619ZM29.9418 20.096L32.3738 21.8525L32.3924 21.8268L32.4104 21.8007L29.9418 20.096ZM31.3754 17.8437L28.8322 16.2523L28.8268 16.2611L31.3754 17.8437ZM32.298 14.1548L32.298 11.1548C31.4994 11.1548 30.6563 11.3366 29.8992 11.8669C29.5595 12.1048 29.3296 12.3506 29.2088 12.4866C29.1796 12.5195 29.1549 12.5482 29.1394 12.5663C29.1165 12.5931 29.1206 12.5884 29.112 12.5984C29.1026 12.6093 29.1393 12.5656 29.1974 12.5075L31.3186 14.629L33.4398 16.7504C33.5432 16.6471 33.623 16.5548 33.6573 16.515C33.667 16.5038 33.6757 16.4935 33.6818 16.4864C33.6891 16.4779 33.692 16.4744 33.696 16.4698C33.7029 16.4618 33.7009 16.4642 33.6952 16.4706C33.6685 16.5007 33.5441 16.6393 33.3414 16.7813C33.1271 16.9314 32.8991 17.035 32.6822 17.0949C32.4805 17.1507 32.3391 17.1548 32.298 17.1548L32.298 14.1548ZM31.3186 14.629L29.067 12.6464C28.3713 13.4365 27.646 14.5279 27.0958 15.3931C26.8062 15.8483 26.5365 16.2872 26.3129 16.6521C26.0777 17.0359 25.9162 17.3005 25.8092 17.4666L28.3307 19.0919L30.8523 20.7172C31.0072 20.4769 31.2189 20.1295 31.4289 19.7868C31.6505 19.4252 31.8979 19.0229 32.1585 18.6131C32.7085 17.7483 33.2152 17.0147 33.5702 16.6115L31.3186 14.629ZM28.3307 19.0919L27.6147 16.1786C26.076 16.5568 23.8428 16.9948 22.0121 17.702L23.0931 20.5005L24.1741 23.299C25.5284 22.7758 27.05 22.4959 29.0468 22.0052L28.3307 19.0919ZM23.0931 20.5005L21.7733 17.8064C21.8405 17.7735 21.8883 17.7547 21.8707 17.7619C21.8439 17.7728 21.8729 17.7609 21.8264 17.7798C21.8029 17.7894 21.767 17.804 21.7258 17.8217C21.5561 17.8944 21.2518 18.0347 20.9206 18.2799C20.1807 18.8277 19.7383 19.568 19.4854 20.3326L22.3337 21.2745L25.182 22.2164C25.1668 22.2624 25.1162 22.3996 24.9973 22.5762C24.87 22.7652 24.6991 22.9479 24.4911 23.1019C24.2946 23.2474 24.1262 23.3208 24.0876 23.3373C24.0791 23.341 24.0757 23.3423 24.0843 23.3388C24.0888 23.3369 24.0934 23.3351 24.1026 23.3314C24.1104 23.3282 24.1223 23.3234 24.1349 23.3183C24.1797 23.3 24.288 23.2558 24.4129 23.1946L23.0931 20.5005ZM22.3337 21.2745L19.4854 20.3326C19.2358 21.0874 19.1416 21.9524 19.4189 22.8472C19.5433 23.2485 19.7105 23.5459 19.8063 23.7058C19.8296 23.7446 19.8502 23.7777 19.8635 23.799C19.8887 23.8393 19.8745 23.8165 19.8881 23.8383C19.8974 23.8532 19.8684 23.8079 19.8319 23.7391L22.4828 22.3345L25.1336 20.9298C25.0674 20.8048 25.0047 20.7042 24.9789 20.6627C24.9365 20.5948 24.9527 20.6212 24.9528 20.6214C24.9766 20.6611 25.0744 20.8271 25.1501 21.0712C25.23 21.3291 25.2589 21.5857 25.2481 21.8175C25.238 22.033 25.1961 22.1739 25.182 22.2164L22.3337 21.2745ZM22.4828 22.3345L19.9189 23.8923C20.4494 24.7653 21.3482 25.8557 22.0317 26.6569C22.3983 27.0867 22.7507 27.4878 23.0327 27.8071C23.3362 28.1508 23.514 28.3501 23.5933 28.4437L25.8823 26.5045L28.1713 24.5653C28.0386 24.4088 27.7823 24.1211 27.5297 23.8351C27.2556 23.5248 26.9298 23.1537 26.5963 22.7628C25.8797 21.9228 25.2906 21.1783 25.0466 20.7766L22.4828 22.3345ZM25.8823 26.5045L22.887 26.3353C22.8023 27.8356 22.4984 30.087 22.634 32.0398L25.6268 31.8321L28.6196 31.6244C28.5175 30.1542 28.7473 28.9776 28.8775 26.6737L25.8823 26.5045ZM25.6268 31.8321L22.6609 32.2832C22.6486 32.2023 22.6448 32.1455 22.646 32.1609C22.6473 32.1777 22.6464 32.1657 22.6493 32.2046C22.6511 32.2289 22.6541 32.2673 22.6583 32.3119C22.6756 32.4958 22.7167 32.8342 22.8537 33.2311C23.1589 34.1158 23.7455 34.7587 24.3947 35.2222L26.1378 32.7805L27.8808 30.3388C27.9157 30.3637 28.0313 30.4515 28.1657 30.6181C28.3103 30.7974 28.4379 31.0201 28.5256 31.2741C28.6085 31.5145 28.6277 31.7053 28.6319 31.7495C28.6328 31.7591 28.633 31.7631 28.6323 31.7534C28.6319 31.748 28.6316 31.7434 28.6308 31.7329C28.6301 31.7239 28.6292 31.7108 28.628 31.6965C28.6241 31.6458 28.6145 31.5247 28.5927 31.381L25.6268 31.8321ZM26.1378 32.7805L24.3947 35.2222C25.0446 35.6861 25.8271 36.0211 26.7344 36.0376C27.1427 36.045 27.4693 35.9841 27.6508 35.945C27.6948 35.9355 27.7326 35.9267 27.7576 35.9208C27.8134 35.9076 27.7697 35.9178 27.805 35.9095C27.8242 35.905 27.7755 35.9171 27.7033 35.929L27.2165 32.9688L26.7298 30.0085C26.5939 30.0309 26.481 30.0572 26.4345 30.0682C26.3596 30.0857 26.3856 30.0799 26.3856 30.0799C26.4272 30.0709 26.6035 30.0342 26.8429 30.0385C27.0954 30.0431 27.3332 30.0907 27.5387 30.1663C27.7306 30.2369 27.846 30.314 27.8808 30.3388L26.1378 32.7805ZM27.2165 32.9688L27.9107 35.8873C29.6956 35.4628 32.8202 34.103 33.3905 33.88L32.298 31.086L31.2055 28.292C30.9599 28.388 30.5912 28.5412 30.2156 28.6959C29.8207 28.8586 29.3715 29.0426 28.9065 29.2258C27.925 29.6125 27.0476 29.9253 26.5223 30.0502L27.2165 32.9688ZM32.298 31.086L31.2482 33.8963C32.5664 34.3887 34.7674 35.4022 36.6434 35.8771L37.3795 32.9688L38.1156 30.0605C36.6306 29.6846 35.4403 29.0573 33.3478 28.2757L32.298 31.086ZM37.3795 32.9688L36.8928 35.929C36.8205 35.9171 36.7718 35.905 36.791 35.9095C36.8263 35.9178 36.7826 35.9076 36.8385 35.9208C36.8634 35.9267 36.9012 35.9355 36.9453 35.945C37.1267 35.9841 37.4533 36.045 37.8616 36.0376C38.7689 36.0212 39.5514 35.6861 40.2013 35.2222L38.4583 32.7805L36.7152 30.3388C36.75 30.314 36.8654 30.2369 37.0573 30.1663C37.2629 30.0907 37.5006 30.0431 37.7531 30.0385C37.9925 30.0342 38.1688 30.0709 38.2104 30.0799C38.2105 30.0799 38.2365 30.0857 38.1616 30.0682C38.115 30.0572 38.0022 30.0309 37.8662 30.0085L37.3795 32.9688ZM38.4583 32.7805L40.2013 35.2222C40.8505 34.7587 41.4371 34.1158 41.7423 33.2311C41.8793 32.8342 41.9204 32.4958 41.9377 32.3119C41.9419 32.2673 41.9449 32.2289 41.9467 32.2046C41.9497 32.1657 41.9487 32.1777 41.95 32.1609C41.9512 32.1455 41.9475 32.2023 41.9351 32.2832L38.9692 31.8321L36.0034 31.381C35.9815 31.5247 35.9719 31.6458 35.968 31.6965C35.9669 31.7108 35.9659 31.724 35.9652 31.7329C35.9645 31.7434 35.9641 31.7481 35.9637 31.7534C35.963 31.7631 35.9632 31.7591 35.9641 31.7495C35.9683 31.7053 35.9875 31.5145 36.0704 31.2741C36.1581 31.0201 36.2858 30.7974 36.4303 30.6181C36.5647 30.4515 36.6803 30.3637 36.7152 30.3388L38.4583 32.7805ZM38.9692 31.8321L41.9579 32.0932C42.0457 31.0876 41.9718 29.6917 41.899 28.6494C41.86 28.0908 41.8157 27.5636 41.779 27.1426C41.7397 26.6905 41.7152 26.4249 41.7067 26.3005L38.7137 26.5045L35.7206 26.7085C35.7342 26.9077 35.7688 27.2856 35.8016 27.6628C35.8372 28.0711 35.8781 28.559 35.9136 29.0672C35.9898 30.1584 36.0215 31.1027 35.9806 31.571L38.9692 31.8321ZM38.7137 26.5045L40.9767 28.4739C41.9516 27.3538 43.047 26.0943 44.0198 24.8729L41.6732 23.0039L39.3265 21.1349C38.4491 22.2366 37.4409 23.3972 36.4506 24.5351L38.7137 26.5045ZM41.6732 23.0039L43.8616 25.0559C44.8021 24.0529 45.6839 22.4191 45.1565 20.4852L42.2622 21.2745L39.3679 22.0638C39.2724 21.7136 39.31 21.3875 39.3882 21.161C39.4571 20.9615 39.5346 20.8987 39.4847 20.9519L41.6732 23.0039ZM42.2622 21.2745L45.1565 20.4852C44.9089 19.5773 44.4059 18.8493 43.7355 18.3357C43.4396 18.1091 43.1658 17.9667 42.9956 17.8849C42.9146 17.8461 42.8405 17.8134 42.8141 17.8016C42.7714 17.7827 42.7926 17.7916 42.8227 17.8064L41.5029 20.5005L40.1831 23.1946C40.271 23.2376 40.3543 23.2743 40.3769 23.2843C40.4157 23.3016 40.41 23.2992 40.3989 23.2939C40.3685 23.2794 40.2411 23.217 40.0869 23.0989C39.9229 22.9733 39.7565 22.8065 39.6171 22.598C39.4799 22.3929 39.4058 22.2027 39.3679 22.0638L42.2622 21.2745ZM41.5029 20.5005L42.5914 17.7049C40.6547 16.9509 38.457 16.5446 36.9874 16.1801L36.2653 19.0919L35.5431 22.0037C37.5548 22.5026 38.9558 22.7281 40.4144 23.2961L41.5029 20.5005ZM36.2653 19.0919L38.7613 17.4277C38.2824 16.7094 37.8903 16.0456 37.3463 15.1861C36.844 14.3925 36.2601 13.5132 35.5717 12.696L33.2774 14.629L30.9831 16.5619C31.4025 17.0597 31.812 17.6611 32.2764 18.3949C32.6991 19.0628 33.2471 19.973 33.7692 20.7561L36.2653 19.0919ZM33.2774 14.629L35.3986 12.5075C35.4567 12.5656 35.4934 12.6092 35.4841 12.5984C35.4754 12.5884 35.4795 12.593 35.4566 12.5663C35.4411 12.5482 35.4164 12.5195 35.3872 12.4866C35.2664 12.3506 35.0365 12.1048 34.6968 11.8669C33.9397 11.3366 33.0967 11.1548 32.298 11.1548L32.298 14.1548L32.298 17.1548C32.2569 17.1548 32.1155 17.1507 31.9138 17.0949C31.6969 17.0349 31.4689 16.9314 31.2546 16.7813C31.0519 16.6393 30.9275 16.5007 30.9008 16.4706C30.8951 16.4642 30.8931 16.4618 30.9 16.4698C30.904 16.4744 30.9069 16.4779 30.9142 16.4864C30.9203 16.4935 30.929 16.5038 30.9387 16.515C30.973 16.5548 31.0529 16.6471 31.1562 16.7504L33.2774 14.629ZM32.298 16.449L29.8371 18.1648C30.215 18.7067 30.5704 19.2648 30.951 19.8708C31.3214 20.4604 31.7278 21.1152 32.1587 21.7611L34.6542 20.096L37.1498 18.431C36.7771 17.8724 36.4275 17.3092 36.0318 16.6793C35.6464 16.0657 35.2255 15.4024 34.7589 14.7332L32.298 16.449ZM34.6542 20.096L32.2221 21.8524C32.2193 21.8486 32.2 21.8205 32.2572 21.905C32.3001 21.9683 32.3865 22.0947 32.5046 22.2394C32.7694 22.5638 33.0654 22.8263 33.3938 23.0607L35.1368 20.619L36.8799 18.1774C36.8826 18.1793 36.9193 18.2057 36.9744 18.2561C37.0341 18.3106 37.0954 18.3751 37.153 18.4457C37.2051 18.5095 37.2367 18.5576 37.225 18.5403C37.2218 18.5356 37.2183 18.5303 37.2104 18.5187C37.2037 18.5086 37.1933 18.4932 37.182 18.4765C37.1588 18.4423 37.126 18.3946 37.0863 18.3396L34.6542 20.096ZM35.1368 20.619L33.3938 23.0607C33.715 23.2901 34.0556 23.4851 34.4489 23.6315C34.624 23.6966 34.7716 23.7376 34.8435 23.7572C34.9382 23.7831 34.9075 23.7745 34.9018 23.7727L35.7827 20.905L36.6635 18.0372C36.5986 18.0172 36.5426 18.0015 36.502 17.9903C36.4822 17.9849 36.4641 17.98 36.452 17.9767C36.438 17.9729 36.4319 17.9713 36.4261 17.9697C36.4049 17.9639 36.462 17.9786 36.5409 18.008C36.6283 18.0405 36.71 18.0783 36.7806 18.117C36.8129 18.1348 36.8379 18.15 36.8547 18.1606C36.863 18.1659 36.8693 18.1701 36.8735 18.173C36.8777 18.1758 36.8798 18.1773 36.8799 18.1774L35.1368 20.619ZM35.7827 20.905L35.0215 23.8068C36.7135 24.2506 37.7534 24.4609 39.2451 24.8714L40.0409 21.9788L40.8367 19.0863C39.4928 18.7166 37.727 18.3135 36.5439 18.0031L35.7827 20.905ZM40.0409 21.9788L37.6631 20.1496C37.2687 20.6623 36.8462 21.1591 36.3782 21.7004C35.9253 22.2243 35.4099 22.8122 34.9155 23.4213L37.2447 25.3121L39.5738 27.2028C39.9932 26.6862 40.4256 26.1931 40.9171 25.6245C41.3935 25.0735 41.9122 24.4665 42.4187 23.808L40.0409 21.9788ZM37.2447 25.3121L34.8527 23.5014C34.8597 23.4922 34.8807 23.4661 34.8201 23.5407C34.7743 23.5971 34.6773 23.7174 34.5722 23.8736C34.3344 24.227 34.1688 24.5918 34.0415 24.9769L36.8898 25.9188L39.7381 26.8606C39.7363 26.8661 39.7207 26.9127 39.6866 26.9844C39.6497 27.0622 39.6034 27.144 39.5501 27.2232C39.5023 27.2943 39.4636 27.3405 39.4785 27.3221C39.4827 27.317 39.4866 27.3123 39.4962 27.3004C39.5045 27.2903 39.5166 27.2755 39.5299 27.259C39.5572 27.2252 39.5945 27.1784 39.6366 27.1227L37.2447 25.3121ZM36.8898 25.9188L34.0415 24.9769C33.916 25.3563 33.8308 25.7444 33.8095 26.1677C33.8001 26.3565 33.8057 26.5112 33.8089 26.588C33.8132 26.6906 33.812 26.6549 33.8119 26.6503L36.8117 26.6161L39.8115 26.5819C39.8108 26.5144 39.8088 26.4567 39.8071 26.4156C39.8063 26.3957 39.8054 26.3773 39.8049 26.3655C39.8043 26.3517 39.804 26.3457 39.8038 26.3405C39.803 26.3214 39.8063 26.3821 39.802 26.4686C39.7972 26.5638 39.7854 26.6556 39.7689 26.7375C39.7538 26.8129 39.7392 26.8573 39.7381 26.8606L36.8898 25.9188ZM36.8117 26.6161L33.8153 26.7622C33.853 27.5356 33.9082 28.289 33.9596 28.9973C34.0118 29.7171 34.0603 30.3927 34.0918 31.0716L37.0885 30.9326L40.0853 30.7935C40.0496 30.0249 39.9954 29.2739 39.9439 28.5632C39.8915 27.841 39.8418 27.1599 39.8082 26.47L36.8117 26.6161ZM37.0885 30.9326L38.0543 28.0923C37.3605 27.8564 36.6812 27.5611 35.7739 27.1957C34.9549 26.8658 33.9423 26.4766 32.9161 26.2606L32.298 29.1962L31.6799 32.1319C32.1428 32.2293 32.7272 32.4369 33.5321 32.7612C34.2487 33.0498 35.2202 33.466 36.1228 33.7729L37.0885 30.9326ZM32.298 29.1962L32.298 26.1962C31.8891 26.1962 31.4908 26.2392 31.082 26.3532C30.9023 26.4032 30.7586 26.4569 30.6948 26.4808C30.6112 26.5121 30.6411 26.5008 30.6587 26.495L31.6025 29.3427L32.5463 32.1903C32.6151 32.1675 32.6735 32.1465 32.7167 32.1305C32.7379 32.1227 32.7568 32.1156 32.7703 32.1105C32.7867 32.1043 32.7915 32.1025 32.7998 32.0994C32.8268 32.0893 32.7725 32.1107 32.6926 32.1329C32.6026 32.158 32.5119 32.176 32.4276 32.1864C32.35 32.1961 32.3022 32.1962 32.298 32.1962L32.298 29.1962ZM31.6025 29.3427L30.5587 26.5301C29.8235 26.8029 29.1122 27.0862 28.4413 27.353C27.7599 27.6239 27.1186 27.8784 26.4692 28.118L27.5075 30.9326L28.5458 33.7472C29.2764 33.4776 29.9854 33.1959 30.6581 32.9285C31.3411 32.6569 31.9873 32.3998 32.6462 32.1552L31.6025 29.3427ZM27.5075 30.9326L30.506 31.0285C30.5271 30.3667 30.5746 29.7067 30.6293 28.993C30.6826 28.2974 30.7444 27.533 30.781 26.7574L27.7843 26.6161L24.7876 26.4748C24.7562 27.1408 24.7032 27.7996 24.6468 28.5344C24.5919 29.251 24.5349 30.0285 24.509 30.8366L27.5075 30.9326ZM27.7843 26.6161L30.7841 26.65C30.784 26.6547 30.7829 26.6904 30.7871 26.5878C30.7903 26.511 30.796 26.3564 30.7865 26.1676C30.7652 25.7444 30.68 25.3563 30.5545 24.9769L27.7062 25.9188L24.8579 26.8607C24.8568 26.8573 24.8422 26.8129 24.8271 26.7375C24.8106 26.6556 24.7988 26.5638 24.794 26.4687C24.7897 26.3822 24.793 26.3215 24.7922 26.3407C24.792 26.3459 24.7917 26.3519 24.7911 26.3657C24.7906 26.3775 24.7897 26.3959 24.7889 26.4159C24.7873 26.4569 24.7852 26.5146 24.7845 26.5822L27.7843 26.6161ZM27.7062 25.9188L30.5545 24.9769C30.4272 24.5918 30.2617 24.227 30.0239 23.8736C29.9187 23.7174 29.8217 23.5972 29.7759 23.5408C29.7153 23.4661 29.7363 23.4922 29.7433 23.5014L27.3514 25.3121L24.9594 27.1227C25.0016 27.1785 25.0388 27.2252 25.0661 27.259C25.0794 27.2755 25.0915 27.2903 25.0998 27.3004C25.1094 27.3123 25.1133 27.317 25.1175 27.3221C25.1324 27.3405 25.0937 27.2943 25.0459 27.2232C24.9926 27.144 24.9463 27.0622 24.9094 26.9844C24.8753 26.9127 24.8597 26.8661 24.8579 26.8607L27.7062 25.9188ZM27.3514 25.3121L29.6848 23.4267C29.1975 22.8235 28.6708 22.2085 28.1924 21.6492C27.7001 21.0737 27.2633 20.5621 26.8985 20.1057L24.5551 21.9788L22.2117 23.852C22.6507 24.4011 23.156 24.9918 23.6329 25.5493C24.1237 26.1231 24.5932 26.6719 25.0179 27.1975L27.3514 25.3121ZM24.5551 21.9788L25.3923 24.8597C26.8669 24.4312 27.847 24.2638 29.5806 23.8052L28.8133 20.905L28.0461 18.0047C26.95 18.2947 25.1083 18.694 23.7179 19.098L24.5551 21.9788ZM28.8133 20.905L29.6942 23.7727C29.6885 23.7745 29.6579 23.7831 29.7525 23.7572C29.8244 23.7375 29.972 23.6966 30.1471 23.6315C30.5404 23.4851 30.881 23.2901 31.2022 23.0607L29.4592 20.619L27.7161 18.1774C27.7162 18.1773 27.7184 18.1758 27.7225 18.173C27.7267 18.1701 27.733 18.1659 27.7414 18.1606C27.7582 18.1499 27.7831 18.1348 27.8154 18.117C27.886 18.0783 27.9677 18.0405 28.0551 18.008C28.134 17.9786 28.1911 17.9639 28.1699 17.9697C28.1641 17.9713 28.158 17.9729 28.144 17.9767C28.1319 17.98 28.1138 17.9849 28.094 17.9903C28.0534 18.0015 27.9974 18.0172 27.9325 18.0372L28.8133 20.905ZM29.4592 20.619L31.2022 23.0607C31.5306 22.8263 31.8267 22.5638 32.0914 22.2394C32.2095 22.0947 32.2959 21.9683 32.3388 21.905C32.396 21.8206 32.3767 21.8486 32.3738 21.8525L29.9418 20.096L27.5097 18.3396C27.47 18.3945 27.4372 18.4423 27.414 18.4765C27.4027 18.4932 27.3924 18.5086 27.3856 18.5187C27.3777 18.5303 27.3742 18.5356 27.371 18.5403C27.3593 18.5576 27.3909 18.5095 27.443 18.4457C27.5006 18.3752 27.5619 18.3106 27.6216 18.2561C27.6767 18.2057 27.7134 18.1793 27.7161 18.1774L29.4592 20.619ZM29.9418 20.096L32.4104 21.8007C32.9718 20.9877 33.5256 20.0678 33.924 19.4263L31.3754 17.8437L28.8268 16.2611C28.3612 17.0108 27.9258 17.7359 27.4732 18.3914L29.9418 20.096ZM31.3754 17.8437L33.9185 19.435C34.2367 18.9266 34.5181 18.499 34.73 18.2056L32.298 16.449L29.866 14.6924C29.539 15.1452 29.176 15.703 28.8322 16.2523L31.3754 17.8437Z" fill="#013475" mask="url(#path-9-inside-5_4_432)"/>
</svg>
