<svg width="56" height="56" viewBox="0 0 56 56" fill="none" xmlns="http://www.w3.org/2000/svg">
<mask id="path-1-inside-1_173_800" fill="white">
<path d="M28.9315 0C27.725 0 26.6974 0.783761 26.3085 1.86291H2.79994C1.26498 1.86291 0.000126447 3.12771 0.000126447 4.66266V13.9954C-0.0177923 15.2576 1.88463 15.2576 1.86667 13.9954V4.66266C1.86667 4.1295 2.26675 3.72948 2.79994 3.72948H26.1353V5.59594H4.66648C4.15107 5.59601 3.73326 6.01381 3.73321 6.52922V32.6608C3.73326 33.1762 4.15107 33.594 4.66648 33.5941H47.5969C48.1123 33.594 48.5301 33.1762 48.5302 32.6608V20.5301H50.3967V34.5273C50.3967 35.0605 49.9966 35.4606 49.4635 35.4606H2.79994C2.26675 35.4606 1.86667 35.0605 1.86667 34.5273V22.3948C1.88459 21.1327 -0.017839 21.1327 0.000126447 22.3948V34.5273C0.000126447 36.0623 1.26498 37.3272 2.79994 37.3272H49.4635C50.9984 37.3272 52.2633 36.0623 52.2633 34.5273V20.5301H53.1947C54.7297 20.5301 56 19.2598 56 17.7248V2.79609C56 1.26114 54.7297 0 53.1947 0H28.9315ZM28.9315 1.85925H53.1947C53.7279 1.85925 54.1335 2.26293 54.1335 2.79609V17.7248C54.1335 18.258 53.7279 18.6635 53.1947 18.6635H37.3291C37.1079 18.6626 36.8934 18.7401 36.724 18.8823L31.7277 23.1676V19.5932C31.7258 19.0806 31.3106 18.6656 30.798 18.6635H28.9315C28.3984 18.6635 28.0019 18.2579 28.0019 17.7248V2.79609C28.0019 2.26293 28.3984 1.85925 28.9315 1.85925ZM36.3995 5.59411V14.9287C36.3997 15.6603 37.2032 16.1073 37.8249 15.7216L45.2929 11.057C45.8789 10.6916 45.8789 9.83843 45.2929 9.473L37.8249 4.8012C37.2652 4.45093 36.3995 4.76417 36.3995 5.59411ZM38.266 7.28199L43.0345 10.2642L38.266 13.2408V7.28199ZM5.59975 7.46262H26.1353V17.725C26.1353 19.2599 27.3966 20.5302 28.9315 20.5302H29.8611V25.193C29.8565 25.9947 30.7987 26.4283 31.405 25.9039L37.6736 20.5302H46.6636V31.7277H27.9982C27.9982 28.6416 25.4828 26.1335 22.3968 26.1335H21.4672V23.7566C22.61 22.73 23.3355 21.2468 23.3355 19.5951V18.6656C23.8509 18.6637 24.2671 18.2441 24.2652 17.7286V14.9306C24.2652 11.8446 21.7497 9.32919 18.6637 9.32919H16.7972C13.7111 9.32919 11.2031 11.8446 11.203 14.9306V17.7286C11.2012 18.2441 11.6172 18.6635 12.1326 18.6656V19.5951C12.1326 21.2466 12.8548 22.7301 13.9974 23.7566V26.1335H13.0623C9.97623 26.1335 7.46811 28.6416 7.46811 31.7277H5.59975V7.46262ZM16.7972 11.1976H18.6637C20.748 11.1976 22.3968 12.8463 22.3968 14.9306V16.4126L21.1901 15.2058C20.8755 14.8911 20.3846 14.8424 20.0144 15.089C20.0144 15.089 17.3138 16.7988 14.9288 16.7988H13.0623V14.9304C13.0623 12.8461 14.7129 11.1976 16.7972 11.1976ZM0.918819 16.7825C0.404102 16.7896 -0.00691973 17.2139 0.000126447 17.7286V18.6619C-0.0177923 19.9241 1.88463 19.9241 1.86667 18.6619V17.7286C1.87415 17.2025 1.44495 16.7743 0.918819 16.7825ZM20.3826 17.0323L21.4672 18.1205V19.5951C21.4672 21.6794 19.8184 23.3282 17.7341 23.3282C15.6498 23.3282 13.9973 21.6793 13.9974 19.5951V18.6656H14.9288C17.3218 18.6656 19.7622 17.4315 20.3826 17.0323ZM15.8675 24.8685C16.4522 25.0763 17.0794 25.1965 17.7341 25.1965C18.3893 25.1965 19.0155 25.0767 19.6006 24.8685V26.8845C19.6006 26.8845 19.2844 27.9927 17.7341 27.9927C16.1838 27.9927 15.8675 26.8972 15.8675 26.8972V24.8685ZM13.0623 27.9926H14.3273C14.3273 27.9926 15.1327 29.8592 17.7341 29.8592C20.3355 29.8592 21.1391 27.9926 21.1391 27.9926H22.3968C24.481 27.9926 26.1317 29.6433 26.1317 31.7276H9.33648C9.33648 29.6433 10.978 27.9926 13.0623 27.9926ZM8.40138 39.1919C5.83237 39.1919 3.72956 41.2874 3.72956 43.8564V44.7933C3.72956 45.8796 4.12223 46.8682 4.75032 47.6624C2.06632 48.0735 0.00381281 50.3936 0.00377545 53.191V55.0593C0.00190894 55.5747 0.417989 55.9941 0.933397 55.9962H15.8621C16.3803 55.9981 16.801 55.5775 16.799 55.0593V53.191C16.799 50.3946 14.7326 48.0747 12.0488 47.6624C12.6755 46.8682 13.0659 45.8796 13.0659 44.7933V43.8564C13.0659 41.2874 10.9704 39.1919 8.40138 39.1919ZM28.0019 39.1919C25.4329 39.1919 23.3301 41.2874 23.3301 43.8564V44.7933C23.3301 45.8795 23.7211 46.8682 24.349 47.6624C21.6644 48.0739 19.597 50.3939 19.597 53.191V55.0593C19.5951 55.5775 20.0156 55.9982 20.5339 55.9962H35.4626C35.9808 55.9981 36.4015 55.5775 36.3995 55.0593V53.191C36.3995 50.3948 34.3326 48.0751 31.6493 47.6624C32.276 46.8682 32.6664 45.8796 32.6664 44.7933V43.8564C32.6664 41.2874 30.5709 39.1919 28.0019 39.1919ZM47.5951 39.1919C45.0261 39.1919 42.9306 41.2874 42.9306 43.8564V44.7933C42.9306 45.8796 43.321 46.8682 43.9477 47.6624C41.2639 48.0747 39.1957 50.3946 39.1957 53.191V55.0593C39.1938 55.5782 39.6154 55.9992 40.1344 55.9962H55.0631C55.5813 55.9981 56.002 55.5775 56 55.0593V53.191C56 50.3936 53.9312 48.0735 51.2462 47.6624C51.8742 46.8682 52.2651 45.8796 52.2651 44.7933V43.8564C52.2651 41.2874 50.1641 39.1919 47.5951 39.1919ZM8.40138 41.0602C9.96862 41.0602 11.1976 42.2892 11.1976 43.8564V44.7933C11.1976 46.3605 9.96862 47.5913 8.40138 47.5913C6.83414 47.5913 5.59793 46.3605 5.59793 44.7933V43.8564C5.59793 42.2892 6.83414 41.0602 8.40138 41.0602ZM28.0019 41.0602C29.5691 41.0602 30.798 42.2892 30.798 43.8564V44.7933C30.798 46.3605 29.5691 47.5913 28.0019 47.5913C26.4346 47.5913 25.1966 46.3605 25.1966 44.7933V43.8564C25.1966 42.2892 26.4346 41.0602 28.0019 41.0602ZM47.5951 41.0602C49.1623 41.0602 50.3985 42.2892 50.3985 43.8564V44.7933C50.3985 46.3605 49.1623 47.5913 47.5951 47.5913C46.0279 47.5913 44.7971 46.3605 44.7971 44.7933V43.8564C44.7971 42.2892 46.0279 41.0602 47.5951 41.0602ZM5.59793 49.4578H11.1976C13.2818 49.4578 14.9325 51.1067 14.9325 53.191V54.1297H1.86302V53.191C1.86305 51.1067 3.51368 49.4578 5.59793 49.4578ZM25.1966 49.4578H30.798C32.8823 49.4578 34.533 51.1067 34.533 53.191V54.1297H21.4635V53.191C21.4636 51.1067 23.1124 49.4578 25.1966 49.4578ZM44.7971 49.4578H50.3985C52.4828 49.4578 54.1335 51.1067 54.1335 53.191V54.1297H41.064V53.191C41.0641 51.1067 42.7129 49.4578 44.7971 49.4578Z"/>
</mask>
<path d="M28.9315 0C27.725 0 26.6974 0.783761 26.3085 1.86291H2.79994C1.26498 1.86291 0.000126447 3.12771 0.000126447 4.66266V13.9954C-0.0177923 15.2576 1.88463 15.2576 1.86667 13.9954V4.66266C1.86667 4.1295 2.26675 3.72948 2.79994 3.72948H26.1353V5.59594H4.66648C4.15107 5.59601 3.73326 6.01381 3.73321 6.52922V32.6608C3.73326 33.1762 4.15107 33.594 4.66648 33.5941H47.5969C48.1123 33.594 48.5301 33.1762 48.5302 32.6608V20.5301H50.3967V34.5273C50.3967 35.0605 49.9966 35.4606 49.4635 35.4606H2.79994C2.26675 35.4606 1.86667 35.0605 1.86667 34.5273V22.3948C1.88459 21.1327 -0.017839 21.1327 0.000126447 22.3948V34.5273C0.000126447 36.0623 1.26498 37.3272 2.79994 37.3272H49.4635C50.9984 37.3272 52.2633 36.0623 52.2633 34.5273V20.5301H53.1947C54.7297 20.5301 56 19.2598 56 17.7248V2.79609C56 1.26114 54.7297 0 53.1947 0H28.9315ZM28.9315 1.85925H53.1947C53.7279 1.85925 54.1335 2.26293 54.1335 2.79609V17.7248C54.1335 18.258 53.7279 18.6635 53.1947 18.6635H37.3291C37.1079 18.6626 36.8934 18.7401 36.724 18.8823L31.7277 23.1676V19.5932C31.7258 19.0806 31.3106 18.6656 30.798 18.6635H28.9315C28.3984 18.6635 28.0019 18.2579 28.0019 17.7248V2.79609C28.0019 2.26293 28.3984 1.85925 28.9315 1.85925ZM36.3995 5.59411V14.9287C36.3997 15.6603 37.2032 16.1073 37.8249 15.7216L45.2929 11.057C45.8789 10.6916 45.8789 9.83843 45.2929 9.473L37.8249 4.8012C37.2652 4.45093 36.3995 4.76417 36.3995 5.59411ZM38.266 7.28199L43.0345 10.2642L38.266 13.2408V7.28199ZM5.59975 7.46262H26.1353V17.725C26.1353 19.2599 27.3966 20.5302 28.9315 20.5302H29.8611V25.193C29.8565 25.9947 30.7987 26.4283 31.405 25.9039L37.6736 20.5302H46.6636V31.7277H27.9982C27.9982 28.6416 25.4828 26.1335 22.3968 26.1335H21.4672V23.7566C22.61 22.73 23.3355 21.2468 23.3355 19.5951V18.6656C23.8509 18.6637 24.2671 18.2441 24.2652 17.7286V14.9306C24.2652 11.8446 21.7497 9.32919 18.6637 9.32919H16.7972C13.7111 9.32919 11.2031 11.8446 11.203 14.9306V17.7286C11.2012 18.2441 11.6172 18.6635 12.1326 18.6656V19.5951C12.1326 21.2466 12.8548 22.7301 13.9974 23.7566V26.1335H13.0623C9.97623 26.1335 7.46811 28.6416 7.46811 31.7277H5.59975V7.46262ZM16.7972 11.1976H18.6637C20.748 11.1976 22.3968 12.8463 22.3968 14.9306V16.4126L21.1901 15.2058C20.8755 14.8911 20.3846 14.8424 20.0144 15.089C20.0144 15.089 17.3138 16.7988 14.9288 16.7988H13.0623V14.9304C13.0623 12.8461 14.7129 11.1976 16.7972 11.1976ZM0.918819 16.7825C0.404102 16.7896 -0.00691973 17.2139 0.000126447 17.7286V18.6619C-0.0177923 19.9241 1.88463 19.9241 1.86667 18.6619V17.7286C1.87415 17.2025 1.44495 16.7743 0.918819 16.7825ZM20.3826 17.0323L21.4672 18.1205V19.5951C21.4672 21.6794 19.8184 23.3282 17.7341 23.3282C15.6498 23.3282 13.9973 21.6793 13.9974 19.5951V18.6656H14.9288C17.3218 18.6656 19.7622 17.4315 20.3826 17.0323ZM15.8675 24.8685C16.4522 25.0763 17.0794 25.1965 17.7341 25.1965C18.3893 25.1965 19.0155 25.0767 19.6006 24.8685V26.8845C19.6006 26.8845 19.2844 27.9927 17.7341 27.9927C16.1838 27.9927 15.8675 26.8972 15.8675 26.8972V24.8685ZM13.0623 27.9926H14.3273C14.3273 27.9926 15.1327 29.8592 17.7341 29.8592C20.3355 29.8592 21.1391 27.9926 21.1391 27.9926H22.3968C24.481 27.9926 26.1317 29.6433 26.1317 31.7276H9.33648C9.33648 29.6433 10.978 27.9926 13.0623 27.9926ZM8.40138 39.1919C5.83237 39.1919 3.72956 41.2874 3.72956 43.8564V44.7933C3.72956 45.8796 4.12223 46.8682 4.75032 47.6624C2.06632 48.0735 0.00381281 50.3936 0.00377545 53.191V55.0593C0.00190894 55.5747 0.417989 55.9941 0.933397 55.9962H15.8621C16.3803 55.9981 16.801 55.5775 16.799 55.0593V53.191C16.799 50.3946 14.7326 48.0747 12.0488 47.6624C12.6755 46.8682 13.0659 45.8796 13.0659 44.7933V43.8564C13.0659 41.2874 10.9704 39.1919 8.40138 39.1919ZM28.0019 39.1919C25.4329 39.1919 23.3301 41.2874 23.3301 43.8564V44.7933C23.3301 45.8795 23.7211 46.8682 24.349 47.6624C21.6644 48.0739 19.597 50.3939 19.597 53.191V55.0593C19.5951 55.5775 20.0156 55.9982 20.5339 55.9962H35.4626C35.9808 55.9981 36.4015 55.5775 36.3995 55.0593V53.191C36.3995 50.3948 34.3326 48.0751 31.6493 47.6624C32.276 46.8682 32.6664 45.8796 32.6664 44.7933V43.8564C32.6664 41.2874 30.5709 39.1919 28.0019 39.1919ZM47.5951 39.1919C45.0261 39.1919 42.9306 41.2874 42.9306 43.8564V44.7933C42.9306 45.8796 43.321 46.8682 43.9477 47.6624C41.2639 48.0747 39.1957 50.3946 39.1957 53.191V55.0593C39.1938 55.5782 39.6154 55.9992 40.1344 55.9962H55.0631C55.5813 55.9981 56.002 55.5775 56 55.0593V53.191C56 50.3936 53.9312 48.0735 51.2462 47.6624C51.8742 46.8682 52.2651 45.8796 52.2651 44.7933V43.8564C52.2651 41.2874 50.1641 39.1919 47.5951 39.1919ZM8.40138 41.0602C9.96862 41.0602 11.1976 42.2892 11.1976 43.8564V44.7933C11.1976 46.3605 9.96862 47.5913 8.40138 47.5913C6.83414 47.5913 5.59793 46.3605 5.59793 44.7933V43.8564C5.59793 42.2892 6.83414 41.0602 8.40138 41.0602ZM28.0019 41.0602C29.5691 41.0602 30.798 42.2892 30.798 43.8564V44.7933C30.798 46.3605 29.5691 47.5913 28.0019 47.5913C26.4346 47.5913 25.1966 46.3605 25.1966 44.7933V43.8564C25.1966 42.2892 26.4346 41.0602 28.0019 41.0602ZM47.5951 41.0602C49.1623 41.0602 50.3985 42.2892 50.3985 43.8564V44.7933C50.3985 46.3605 49.1623 47.5913 47.5951 47.5913C46.0279 47.5913 44.7971 46.3605 44.7971 44.7933V43.8564C44.7971 42.2892 46.0279 41.0602 47.5951 41.0602ZM5.59793 49.4578H11.1976C13.2818 49.4578 14.9325 51.1067 14.9325 53.191V54.1297H1.86302V53.191C1.86305 51.1067 3.51368 49.4578 5.59793 49.4578ZM25.1966 49.4578H30.798C32.8823 49.4578 34.533 51.1067 34.533 53.191V54.1297H21.4635V53.191C21.4636 51.1067 23.1124 49.4578 25.1966 49.4578ZM44.7971 49.4578H50.3985C52.4828 49.4578 54.1335 51.1067 54.1335 53.191V54.1297H41.064V53.191C41.0641 51.1067 42.7129 49.4578 44.7971 49.4578Z" fill="#3E55F8" stroke="#004092" stroke-width="60.4724" mask="url(#path-1-inside-1_173_800)"/>
</svg>
