<svg preserveAspectRatio="none" width="100%" height="100%" overflow="visible" style="display: block;" viewBox="0 0 36 36" fill="none" xmlns="http://www.w3.org/2000/svg">
<g id="ph:plus-fill">
<path id="Vector" d="M29.25 4.5H6.75C6.15326 4.5 5.58097 4.73705 5.15901 5.15901C4.73705 5.58097 4.5 6.15326 4.5 6.75V29.25C4.5 29.8467 4.73705 30.419 5.15901 30.841C5.58097 31.2629 6.15326 31.5 6.75 31.5H29.25C29.8467 31.5 30.419 31.2629 30.841 30.841C31.2629 30.419 31.5 29.8467 31.5 29.25V6.75C31.5 6.15326 31.2629 5.58097 30.841 5.15901C30.419 4.73705 29.8467 4.5 29.25 4.5ZM25.875 19.125H19.125V25.875C19.125 26.1734 19.0065 26.4595 18.7955 26.6705C18.5845 26.8815 18.2984 27 18 27C17.7016 27 17.4155 26.8815 17.2045 26.6705C16.9935 26.4595 16.875 26.1734 16.875 25.875V19.125H10.125C9.82663 19.125 9.54048 19.0065 9.32951 18.7955C9.11853 18.5845 9 18.2984 9 18C9 17.7016 9.11853 17.4155 9.32951 17.2045C9.54048 16.9935 9.82663 16.875 10.125 16.875H16.875V10.125C16.875 9.82663 16.9935 9.54048 17.2045 9.32951C17.4155 9.11853 17.7016 9 18 9C18.2984 9 18.5845 9.11853 18.7955 9.32951C19.0065 9.54048 19.125 9.82663 19.125 10.125V16.875H25.875C26.1734 16.875 26.4595 16.9935 26.6705 17.2045C26.8815 17.4155 27 17.7016 27 18C27 18.2984 26.8815 18.5845 26.6705 18.7955C26.4595 19.0065 26.1734 19.125 25.875 19.125Z" fill="var(--fill-0, #004092)"/>
</g>
</svg>
