<svg width="20" height="20" viewBox="0 0 20 20" fill="none" xmlns="http://www.w3.org/2000/svg">
<path d="M12.5796 4.91985C12.0783 4.40928 11.4808 4.00308 10.8217 3.72472C10.1626 3.44635 9.45478 3.30134 8.73928 3.29805C8.02377 3.29476 7.3147 3.43326 6.65302 3.70556C5.99134 3.97786 5.39017 4.37855 4.88423 4.8845C4.37828 5.39044 3.97759 5.99161 3.70529 6.65329C3.433 7.31497 3.29449 8.02404 3.29778 8.73955C3.30107 9.45505 3.44608 10.1628 3.72445 10.822C4.00281 11.4811 4.40901 12.0786 4.91959 12.5799C5.93855 13.5803 7.31133 14.1378 8.73928 14.1313C10.1672 14.1247 11.5348 13.5545 12.5445 12.5448C13.5543 11.5351 14.1244 10.1675 14.131 8.73955C14.1376 7.31159 13.58 5.93882 12.5796 4.91985ZM3.74125 3.74152C5.0186 2.46449 6.73555 1.72367 8.54099 1.67055C10.3464 1.61743 12.104 2.25602 13.4542 3.45575C14.8044 4.65547 15.6453 6.32568 15.8049 8.12483C15.9645 9.92399 15.4308 11.7162 14.3129 13.1349L18.7671 17.589L17.5888 18.7674L13.1346 14.3132C11.7154 15.427 9.92479 15.9574 8.12797 15.7962C6.33115 15.635 4.66351 14.7944 3.46523 13.4458C2.26696 12.0972 1.62833 10.3422 1.67962 8.53894C1.73092 6.73563 2.46826 5.01982 3.74125 3.74152Z" fill="#5A5A5A"/>
</svg>
