<svg width="45" height="45" viewBox="0 0 45 45" fill="none" xmlns="http://www.w3.org/2000/svg">
<path d="M0.895833 44H42.1042C42.3418 44 42.5696 43.9149 42.7376 43.7634C42.9056 43.612 43 43.4065 43 43.1923V40.7692C42.998 38.9673 42.6013 37.1835 41.8327 35.5203C41.064 33.857 39.9385 32.347 38.5208 31.0769V29.4615C38.5208 27.962 37.8602 26.524 36.6842 25.4637C35.5081 24.4034 33.9131 23.8077 32.25 23.8077H28.7742C30.3826 22.2221 31.2992 20.1647 31.3542 18.0165C31.7556 17.8888 32.1177 17.6768 32.4105 17.3981C32.7033 17.1195 32.9185 16.7821 33.0384 16.4137C33.1582 16.0454 33.1793 15.6567 33.0999 15.2795C33.0204 14.9024 32.8427 14.5477 32.5815 14.2446L32.9308 12.5C33.193 11.2219 33.1409 9.90757 32.7783 8.64962C32.4156 7.39168 31.7513 6.22078 30.8321 5.21952C29.913 4.21826 28.7613 3.41103 27.4585 2.85475C26.1556 2.29847 24.7332 2.00669 23.2917 2H13.4375C13.1999 2 12.9721 2.0851 12.804 2.23657C12.636 2.38804 12.5417 2.59348 12.5417 2.80769C12.5417 3.45033 12.2585 4.06665 11.7545 4.52107C11.2505 4.97548 10.5669 5.23077 9.85417 5.23077H9.73771C9.59883 5.21618 9.45809 5.2311 9.32675 5.27434C9.19541 5.31758 9.07713 5.38794 8.98135 5.47978C8.88558 5.57163 8.81498 5.68241 8.7752 5.80327C8.73543 5.92412 8.72758 6.05169 8.75229 6.17577L10.4185 14.2527C10.1591 14.5557 9.98301 14.9097 9.90461 15.2859C9.82621 15.6621 9.84776 16.0496 9.9675 16.4168C10.0872 16.784 10.3018 17.1204 10.5935 17.3985C10.8852 17.6766 11.2458 17.8884 11.6458 18.0165C11.7008 20.1647 12.6174 22.2221 14.2258 23.8077H10.75C9.08687 23.8077 7.49186 24.4034 6.31585 25.4637C5.13984 26.524 4.47917 27.962 4.47917 29.4615V31.0769C3.06148 32.347 1.936 33.857 1.16733 35.5203C0.398669 37.1835 0.00196588 38.9673 0 40.7692V43.1923C0 43.4065 0.0943823 43.612 0.262384 43.7634C0.430385 43.9149 0.658244 44 0.895833 44ZM12.5417 42.3846H10.75V29.3646C11.333 29.1671 11.932 29.0105 12.5417 28.8962V42.3846ZM28.6667 42.3846H14.3333V28.6538H15.2292H16.1967C16.3522 29.466 16.735 30.229 17.3087 30.8706C17.8824 31.5122 18.6282 32.0114 19.4754 32.3208L18.8125 38.2654C18.7991 38.385 18.8154 38.5058 18.8604 38.619C18.9053 38.7322 18.9777 38.8349 19.0723 38.9196L20.864 40.535C20.9472 40.6107 21.0463 40.6708 21.1555 40.7118C21.2646 40.7528 21.3817 40.7739 21.5 40.7739C21.6183 40.7739 21.7353 40.7528 21.8445 40.7118C21.9537 40.6708 22.0528 40.6107 22.136 40.535L23.9277 38.9196C24.0223 38.8349 24.0947 38.7322 24.1396 38.619C24.1846 38.5058 24.2009 38.385 24.1875 38.2654L23.5246 32.3208C24.3718 32.0114 25.1176 31.5122 25.6913 30.8706C26.265 30.229 26.6478 29.466 26.8033 28.6538H27.7708H28.6667V42.3846ZM21.5 31.0769C20.5496 31.0769 19.6382 30.7365 18.9662 30.1307C18.2942 29.5248 17.9167 28.703 17.9167 27.8462V26.0773C18.1585 26.1581 18.4094 26.2388 18.6692 26.3115C20.5164 26.8071 22.4836 26.8071 24.3308 26.3115C24.5906 26.2388 24.8415 26.1581 25.0833 26.0773V27.8462C25.0833 28.703 24.7058 29.5248 24.0338 30.1307C23.3618 30.7365 22.4504 31.0769 21.5 31.0769ZM22.3958 38.0473L21.5 38.855L20.6042 38.0473L21.2313 32.6923H21.5H21.7687L22.3958 38.0473ZM32.25 42.3846H30.4583V28.8962C31.068 29.0105 31.667 29.1671 32.25 29.3646V42.3846ZM41.2083 40.7692V42.3846H34.0417V30.0592C36.2038 31.0878 38.0137 32.6287 39.2765 34.5159C40.5394 36.4031 41.2073 38.5652 41.2083 40.7692ZM32.25 25.4231C33.4379 25.4231 34.5772 25.8486 35.4172 26.6059C36.2573 27.3633 36.7292 28.3905 36.7292 29.4615V29.6877C34.1316 27.968 30.9935 27.0399 27.7708 27.0385H26.875V25.4231H32.25ZM14.2437 3.61538H23.2917C24.473 3.62078 25.6386 3.86016 26.706 4.31661C27.7733 4.77305 28.7164 5.4354 29.4685 6.25679C30.2205 7.07818 30.7632 8.03854 31.0581 9.06994C31.353 10.1013 31.3929 11.1785 31.175 12.2254L31.0406 12.8473C30.5748 11.2319 30.1985 10.8846 29.5625 10.8846C29.1883 10.8817 28.8189 10.8083 28.478 10.6692C28.1371 10.5301 27.8322 10.3284 27.5827 10.0769C26.8077 9.31811 25.8676 8.71136 24.8211 8.29448C23.7746 7.8776 22.6441 7.65952 21.5 7.65385H21.3925C20.2712 7.64799 19.1619 7.86161 18.1411 8.27996C17.1203 8.6983 16.2124 9.3114 15.48 10.0769C15.2235 10.3355 14.9084 10.5415 14.5561 10.6808C14.2037 10.8202 13.8222 10.8897 13.4375 10.8846C12.8015 10.8846 12.4252 11.2238 11.9594 12.8473L10.6962 6.77346C11.5681 6.62321 12.3707 6.2428 13.0023 5.68053C13.634 5.11825 14.066 4.39946 14.2437 3.61538ZM13.4375 17.7985V17.3462C13.4375 17.1319 13.3431 16.9265 13.1751 16.775C13.0071 16.6236 12.7793 16.5385 12.5417 16.5385C12.3041 16.5385 12.0762 16.4534 11.9082 16.3019C11.7402 16.1504 11.6458 15.945 11.6458 15.7308C11.6458 15.5166 11.7402 15.3111 11.9082 15.1596C12.0762 15.0082 12.3041 14.9231 12.5417 14.9231C12.75 14.9273 12.9534 14.8658 13.1169 14.7494C13.2804 14.6329 13.3938 14.4687 13.4375 14.285C13.583 13.6742 13.7624 13.0704 13.975 12.4758C15.0948 12.3524 16.1233 11.8571 16.8596 11.0865C17.4252 10.5069 18.1231 10.0444 18.9055 9.73076C19.6879 9.41708 20.5363 9.25964 21.3925 9.26923H21.5C22.3991 9.27742 23.2865 9.45313 24.1067 9.78532C24.9268 10.1175 25.6619 10.599 26.2658 11.1996C26.991 11.9166 27.9754 12.3775 29.0429 12.5C29.2589 13.0937 29.4383 13.6977 29.5804 14.3092C29.6288 14.4857 29.7418 14.6423 29.9011 14.7537C30.0604 14.8651 30.2567 14.9248 30.4583 14.9231C30.6959 14.9231 30.9238 15.0082 31.0918 15.1596C31.2598 15.3111 31.3542 15.5166 31.3542 15.7308C31.3542 15.945 31.2598 16.1504 31.0918 16.3019C30.9238 16.4534 30.6959 16.5385 30.4583 16.5385C30.2207 16.5385 29.9929 16.6236 29.8249 16.775C29.6569 16.9265 29.5625 17.1319 29.5625 17.3462V17.7985C29.5625 19.7264 28.7131 21.5753 27.201 22.9386C25.689 24.3018 23.6383 25.0677 21.5 25.0677C19.3617 25.0677 17.311 24.3018 15.799 22.9386C14.2869 21.5753 13.4375 19.7264 13.4375 17.7985ZM6.27083 29.4615C6.27083 28.3905 6.74274 27.3633 7.58275 26.6059C8.42276 25.8486 9.56205 25.4231 10.75 25.4231H16.125V27.0385H15.2292C12.0065 27.0399 8.86838 27.968 6.27083 29.6877V29.4615ZM1.79167 40.7692C1.79273 38.5652 2.46064 36.4031 3.72348 34.5159C4.98632 32.6287 6.79624 31.0878 8.95833 30.0592V42.3846H1.79167V40.7692Z" fill="#013475"/>
</svg>
