<svg width="56" height="56" viewBox="0 0 56 56" fill="none" xmlns="http://www.w3.org/2000/svg">
<path d="M43.0764 29.5545C42.7192 33.0147 41.185 36.2478 38.7298 38.7137C36.2747 41.1796 33.0473 42.7292 29.5867 43.1037C29.517 43.1029 29.4478 43.116 29.3833 43.1422C29.3187 43.1685 29.2601 43.2074 29.2108 43.2567C29.1615 43.3059 29.1226 43.3645 29.0963 43.429C29.0701 43.4935 29.0569 43.5626 29.0578 43.6322V54.9429C29.0578 55.2233 28.9463 55.4921 28.748 55.6904C28.5496 55.8886 28.2805 56 28 56C27.7195 56 27.4504 55.8886 27.252 55.6904C27.0537 55.4921 26.9422 55.2233 26.9422 54.9429V50.839C26.9321 50.7022 26.8732 50.5735 26.7761 50.4765C26.679 50.3794 26.5503 50.3205 26.4133 50.3105C21.7088 49.93 17.2464 48.0676 13.6683 44.9915C10.0903 41.9153 7.58122 37.784 6.50222 33.1921C6.46206 33.056 6.4497 32.9133 6.4659 32.7724C6.48209 32.6315 6.5265 32.4952 6.59648 32.3718C6.66645 32.2484 6.76057 32.1404 6.87322 32.0541C6.98587 31.9678 7.11474 31.905 7.25217 31.8695C7.3896 31.834 7.53277 31.8266 7.67315 31.8475C7.81353 31.8685 7.94825 31.9175 8.06929 31.9916C8.19033 32.0657 8.29521 32.1633 8.37768 32.2788C8.46015 32.3942 8.51853 32.5251 8.54933 32.6636C9.50859 36.7853 11.7453 40.4993 14.9407 43.2761C18.1362 46.0529 22.1272 47.7509 26.3449 48.1279C26.4818 48.1963 26.6124 48.1279 26.7431 47.9973C26.8122 47.9584 26.868 47.8997 26.9035 47.8288C26.939 47.7579 26.9525 47.678 26.9422 47.5994V43.6322C26.9431 43.5626 26.9299 43.4935 26.9037 43.429C26.8774 43.3645 26.8385 43.3059 26.7892 43.2567C26.7399 43.2074 26.6813 43.1685 26.6167 43.1422C26.5522 43.116 26.483 43.1029 26.4133 43.1037C22.9692 42.7203 19.7552 41.1867 17.2916 38.7511C14.8284 36.2772 13.2907 33.0326 12.936 29.5607C12.9158 29.4337 12.852 29.3176 12.7555 29.2325C12.6589 29.1474 12.5358 29.0986 12.4071 29.0944H1.08889C0.800098 29.0944 0.523135 28.9797 0.318928 28.7757C0.114722 28.5716 0 28.2948 0 28.0062C0 27.7176 0.114722 27.4408 0.318928 27.2368C0.523135 27.0327 0.800098 26.9181 1.08889 26.9181H5.38844C5.51674 26.9127 5.6393 26.8634 5.73559 26.7785C5.83188 26.6936 5.89604 26.5782 5.91733 26.4517C6.19968 21.7573 7.94507 17.2689 10.9088 13.6158C13.8725 9.96266 17.9059 7.32803 22.4436 6.08128C22.7183 6.02916 23.0027 6.08408 23.2382 6.23479C23.4738 6.38549 23.6427 6.62056 23.7104 6.89177C23.778 7.16298 23.7393 7.44978 23.6021 7.69335C23.4648 7.93691 23.2396 8.11878 22.9724 8.20164C18.9128 9.29561 15.2964 11.6292 12.6281 14.8764C9.95984 18.1237 8.3729 22.1227 8.08889 26.3149C8.07134 26.3921 8.07204 26.4724 8.09093 26.5493C8.10981 26.6262 8.14637 26.6977 8.19769 26.758C8.24902 26.8184 8.3137 26.8659 8.38662 26.8969C8.45953 26.928 8.53868 26.9416 8.61778 26.9367H12.3822C12.5109 26.9325 12.6341 26.8837 12.7306 26.7986C12.8271 26.7135 12.8909 26.5974 12.9111 26.4704C13.2635 23.0038 14.7971 19.7635 17.2553 17.2923C19.7134 14.8211 22.9466 13.2691 26.4133 12.8963C26.483 12.8971 26.5522 12.884 26.6167 12.8578C26.6813 12.8315 26.7399 12.7926 26.7892 12.7433C26.8385 12.6941 26.8774 12.6355 26.9037 12.571C26.9299 12.5065 26.9431 12.4374 26.9422 12.3678V1.05707C26.9422 0.77672 27.0537 0.507849 27.252 0.30961C27.4504 0.11137 27.7195 0 28 0C28.2805 0 28.5496 0.11137 28.748 0.30961C28.9463 0.507849 29.0578 0.77672 29.0578 1.05707V13.885C29.0649 14.0346 29.0406 14.1842 28.9865 14.3239C28.9324 14.4637 28.8497 14.5906 28.7437 14.6966C28.6377 14.8025 28.5107 14.8852 28.3708 14.9392C28.2309 14.9933 28.0813 15.0175 27.9316 15.0104C16.4267 15.0104 10.6773 29.0882 18.8098 37.2214C26.9422 45.3547 40.824 39.5345 41.0231 28C41.0214 27.8607 41.0477 27.7225 41.1002 27.5935C41.1528 27.4645 41.2307 27.3473 41.3292 27.2488C41.4278 27.1503 41.545 27.0725 41.6741 27.02C41.8032 26.9675 41.9415 26.9413 42.0809 26.9429H54.9111C55.1999 26.9429 55.4769 27.0576 55.6811 27.2616C55.8853 27.4657 56 27.7425 56 28.0311C56 28.3197 55.8853 28.5965 55.6811 28.8005C55.4769 29.0046 55.1999 29.1193 54.9111 29.1193H50.68C50.5487 29.114 50.4205 29.1595 50.3219 29.2464C50.2234 29.3333 50.1622 29.4548 50.1511 29.5856C49.8077 34.3093 47.9797 38.8038 44.928 42.4275C41.8763 46.0511 37.757 48.6185 33.1582 49.7633C31.7707 50.0928 31.2916 47.9787 32.6916 47.6491C36.7985 46.6287 40.4816 44.3463 43.222 41.1236C45.9624 37.9009 47.6221 33.9002 47.9671 29.6851C47.9847 29.6079 47.984 29.5276 47.9651 29.4507C47.9462 29.3738 47.9096 29.3023 47.8583 29.242C47.807 29.1816 47.7423 29.1341 47.6694 29.1031C47.5965 29.072 47.5173 29.0584 47.4382 29.0633H43.6053C43.4767 29.0675 43.3535 29.1163 43.257 29.2014C43.1605 29.2865 43.0966 29.4026 43.0764 29.5296V29.5545ZM51.6444 11.9698L43.9973 19.5683C43.8105 19.771 43.5511 19.8917 43.2756 19.9041H38.1796C38.0404 19.9162 37.9062 19.961 37.7876 20.0346L28.728 29.1566C28.5243 29.3468 28.2547 29.4506 27.9759 29.4461C27.6972 29.4417 27.431 29.3293 27.2335 29.1327C27.036 28.9361 26.9225 28.6706 26.9169 28.3921C26.9113 28.1135 27.0141 27.8437 27.2036 27.6394L36.2631 18.5112C36.3241 18.4807 36.3751 18.4335 36.4104 18.3752C36.4456 18.3169 36.4636 18.2498 36.4622 18.1817V13.0766C36.4609 12.9295 36.4895 12.7837 36.5462 12.648C36.6029 12.5123 36.6865 12.3894 36.792 12.2869L44.3956 4.69465C44.5424 4.53602 44.7336 4.42526 44.9443 4.37679C45.155 4.32832 45.3755 4.34439 45.5769 4.4229C45.7784 4.50141 45.9515 4.63872 46.0737 4.81696C46.1959 4.99519 46.2616 5.20609 46.2622 5.42216V9.58827C46.271 9.72557 46.3296 9.85496 46.4269 9.95224C46.5243 10.0495 46.6537 10.108 46.7911 10.1168H50.8916C51.1103 10.1111 51.3256 10.1713 51.5096 10.2897C51.6935 10.4081 51.8375 10.579 51.9228 10.7804C52.0081 10.9817 52.0308 11.2041 51.9878 11.4185C51.9448 11.6328 51.8381 11.8293 51.6818 11.9822L51.6444 11.9698ZM42.9333 17.5661L47.3636 13.1388C47.4405 13.0677 47.4949 12.9756 47.52 12.874C47.5451 12.7723 47.5397 12.6655 47.5046 12.5668C47.4695 12.4681 47.4061 12.3819 47.3224 12.3189C47.2387 12.2559 47.1384 12.2188 47.0338 12.2123H45.1671C44.8781 12.2191 44.5981 12.112 44.3874 11.9142C44.1767 11.7165 44.0522 11.4439 44.0409 11.1552V9.34577C44.0404 9.23868 44.0084 9.1341 43.949 9.04498C43.8896 8.95587 43.8053 8.88613 43.7066 8.84443C43.6079 8.80272 43.4991 8.79088 43.3937 8.81036C43.2884 8.82984 43.191 8.8798 43.1138 8.95403L38.7582 13.3813C38.642 13.4825 38.5704 13.6256 38.5591 13.7793V17.2179C38.5583 17.2875 38.5714 17.3566 38.5977 17.4211C38.624 17.4856 38.6629 17.5442 38.7122 17.5934C38.7614 17.6427 38.8201 17.6816 38.8846 17.7079C38.9492 17.7341 39.0183 17.7472 39.088 17.7464H42.5911C42.728 17.7464 42.8587 17.7464 42.9209 17.6096L42.9333 17.5661ZM36.9849 28.0124C36.9874 29.7903 36.462 31.529 35.4752 33.0083C34.4885 34.4877 33.0848 35.6413 31.4417 36.3231C29.7987 37.0048 27.9901 37.1842 26.2451 36.8384C24.5 36.4926 22.8967 35.6372 21.6383 34.3805C20.3799 33.1238 19.5228 31.5222 19.1756 29.7785C18.8284 28.0349 19.0066 26.2274 19.6877 24.585C20.3688 22.9425 21.5222 21.539 23.0018 20.5519C24.4815 19.5648 26.2209 19.0385 28 19.0398C28.2673 19.0602 28.5171 19.1808 28.6993 19.3774C28.8815 19.5739 28.9827 19.832 28.9827 20.0999C28.9827 20.3679 28.8815 20.6259 28.6993 20.8225C28.5171 21.0191 28.2673 21.1396 28 21.1601C26.1847 21.1601 24.4438 21.8807 23.1602 23.1635C21.8767 24.4462 21.1556 26.1859 21.1556 28C21.1556 29.8141 21.8767 31.5538 23.1602 32.8365C24.4438 34.1193 26.1847 34.8399 28 34.8399C31.9698 34.8399 34.6142 31.8676 34.8071 28C34.8009 27.85 34.8257 27.7003 34.8798 27.5602C34.934 27.4202 35.0164 27.2928 35.122 27.1859C35.2275 27.0791 35.354 26.9951 35.4934 26.9391C35.6328 26.8832 35.7823 26.8566 35.9325 26.8608C36.0827 26.8651 36.2304 26.9002 36.3664 26.964C36.5024 27.0278 36.6238 27.1188 36.7231 27.2315C36.8224 27.3442 36.8975 27.4761 36.9436 27.619C36.9897 27.7619 37.0059 27.9128 36.9911 28.0622L36.9849 28.0124Z" fill="white"/>
</svg>
