<svg width="45" height="41" viewBox="0 0 45 41" fill="none" xmlns="http://www.w3.org/2000/svg">
<path fill-rule="evenodd" clip-rule="evenodd" d="M12.3513 8.15539V2.14009C12.3513 1.9492 12.4271 1.76634 12.5616 1.63185C12.6966 1.49684 12.8795 1.42105 13.0704 1.42105H42.8599C43.0508 1.42105 43.2336 1.49684 43.3681 1.63185C43.5031 1.76634 43.5789 1.9492 43.5789 2.14009V24.8826C43.5789 25.0735 43.5031 25.2564 43.3681 25.3909C43.2336 25.5259 43.0508 25.6017 42.8599 25.6017H27.9952C27.6029 25.6017 27.2847 25.92 27.2847 26.3122C27.2847 26.7043 27.603 27.0227 27.9952 27.0227H42.8599C43.4273 27.0227 43.9716 26.7971 44.3733 26.396C44.7745 25.9943 45 25.45 45 24.8826V2.14009C45 1.57263 44.7745 1.02836 44.3733 0.626675C43.9716 0.225436 43.4273 0 42.8599 0C37.476 0 18.4543 0 13.0704 0C12.5029 0 11.9582 0.225511 11.557 0.626675C11.1557 1.02836 10.9303 1.57263 10.9303 2.14009V8.15539C10.9303 8.54757 11.2486 8.86588 11.6408 8.86588C12.033 8.86588 12.3513 8.54764 12.3513 8.15539Z" fill="#013475"/>
<path fill-rule="evenodd" clip-rule="evenodd" d="M27.6318 30.0928V40.1884C27.6318 40.5807 27.9506 40.8989 28.3423 40.8989C28.7346 40.8989 29.0528 40.5806 29.0528 40.1884V30.0928C29.0528 29.7006 28.7345 29.3823 28.3423 29.3823C27.9506 29.3823 27.6318 29.7006 27.6318 30.0928Z" fill="#013475"/>
<path fill-rule="evenodd" clip-rule="evenodd" d="M44.2894 21.4512H36.3059C35.3869 21.4512 34.6423 22.1958 34.6423 23.1147V26.3121C34.6423 26.7043 34.9606 27.0226 35.3528 27.0226C35.7451 27.0226 36.0633 26.7043 36.0633 26.3121V23.1147C36.0633 22.9807 36.1718 22.8722 36.3058 22.8722H44.2893C44.6815 22.8722 44.9998 22.5539 44.9998 22.1617C44.9998 21.7696 44.6816 21.4512 44.2894 21.4512Z" fill="#013475"/>
<path fill-rule="evenodd" clip-rule="evenodd" d="M16.5893 6.21297H26.4002C26.7919 6.21297 27.1107 5.89465 27.1107 5.50248C27.1107 5.11023 26.7919 4.79199 26.4002 4.79199H16.5893C16.1971 4.79199 15.8788 5.11031 15.8788 5.50248C15.8787 5.89465 16.197 6.21297 16.5893 6.21297Z" fill="#013475"/>
<path fill-rule="evenodd" clip-rule="evenodd" d="M16.5893 9.88436H40.0958C40.4881 9.88436 40.8063 9.56604 40.8063 9.17387C40.8063 8.78214 40.488 8.46338 40.0958 8.46338H16.5893C16.1971 8.46338 15.8788 8.78214 15.8788 9.17387C15.8787 9.56604 16.197 9.88436 16.5893 9.88436Z" fill="#013475"/>
<path fill-rule="evenodd" clip-rule="evenodd" d="M20.8894 13.5562H25.5258C25.9181 13.5562 26.2363 13.2379 26.2363 12.8457C26.2363 12.4535 25.918 12.1353 25.5258 12.1353H20.8894C20.4977 12.1353 20.179 12.4536 20.179 12.8457C20.179 13.2379 20.4977 13.5562 20.8894 13.5562Z" fill="#013475"/>
<path fill-rule="evenodd" clip-rule="evenodd" d="M32.2743 18.5723H39.6079C40.0002 18.5723 40.3184 18.254 40.3184 17.8619C40.3184 17.4701 40.0001 17.1514 39.6079 17.1514H32.2743C31.8821 17.1514 31.5638 17.4701 31.5638 17.8619C31.5638 18.254 31.8822 18.5723 32.2743 18.5723Z" fill="#013475"/>
<path fill-rule="evenodd" clip-rule="evenodd" d="M34.0295 13.5562H39.9823C40.3745 13.5562 40.6928 13.2379 40.6928 12.8457C40.6928 12.4535 40.3744 12.1353 39.9823 12.1353H34.0295C33.6377 12.1353 33.319 12.4536 33.319 12.8457C33.3189 13.2379 33.6377 13.5562 34.0295 13.5562Z" fill="#013475"/>
<path fill-rule="evenodd" clip-rule="evenodd" d="M11.3338 9.68408C7.72664 9.68408 4.79834 12.6124 4.79834 16.2195C4.79834 19.8266 7.72664 22.7549 11.3338 22.7549C14.9404 22.7549 17.8692 19.8266 17.8692 16.2195C17.8692 12.6124 14.9405 9.68408 11.3338 9.68408ZM11.3338 11.1051C14.1565 11.1051 16.4481 13.3968 16.4481 16.2195C16.4481 19.0422 14.1565 21.3339 11.3338 21.3339C8.51106 21.3339 6.21939 19.0422 6.21939 16.2195C6.21939 13.3968 8.51113 11.1051 11.3338 11.1051Z" fill="#013475"/>
<path fill-rule="evenodd" clip-rule="evenodd" d="M23.2138 22.1685L20.5559 24.7184C20.4219 24.8468 20.2438 24.9182 20.0581 24.9182H7.75604C4.61174 24.9182 1.92642 27.1877 1.40206 30.2884C0.929341 33.0822 0.362331 36.4359 0.0298236 38.4021C-0.07487 39.0231 0.099 39.6588 0.505365 40.14C0.912251 40.6213 1.51002 40.8989 2.14004 40.8989H15.3085C16.4908 40.8989 17.4491 39.9406 17.4491 38.7588V32.0349C17.4491 31.9705 17.4742 31.9089 17.5197 31.8634C17.5656 31.8179 17.6272 31.7923 17.6916 31.7923H20.8482C22.3006 31.7923 23.6965 31.2311 24.7443 30.2259C25.6874 29.3212 26.936 28.1237 27.9724 27.1289C28.6304 26.4979 29.0103 25.6316 29.0293 24.7202C29.0482 23.8183 28.7114 22.9453 28.0928 22.2898C28.0866 22.2831 28.0601 22.2557 28.0535 22.249C27.4245 21.6039 26.5662 21.2311 25.6643 21.2121C24.7528 21.1936 23.8717 21.5371 23.2138 22.1685ZM21.5398 25.7434C22.1215 25.1854 23.2181 24.1333 24.1976 23.1935C24.5832 22.8236 25.1005 22.6217 25.6348 22.6331C26.1639 22.644 26.6669 22.8624 27.0359 23.2408C27.0397 23.2451 27.0553 23.2612 27.0591 23.2654C27.4219 23.6496 27.6195 24.1616 27.6086 24.6903C27.5977 25.225 27.3746 25.7334 26.9885 26.1033C25.9521 27.098 24.7035 28.2955 23.7603 29.2003C22.9773 29.9516 21.9338 30.3712 20.8481 30.3712C19.7894 30.3712 18.5337 30.3712 17.6914 30.3712C17.25 30.3712 16.827 30.5465 16.5149 30.8587C16.2031 31.1704 16.0279 31.5938 16.0279 32.0348V38.7587C16.0274 39.1557 15.7058 39.4778 15.3088 39.4778C15.3084 39.4778 2.13997 39.4778 2.13997 39.4778C1.9282 39.4778 1.72736 39.3844 1.59094 39.2229C1.45407 39.0609 1.39582 38.8473 1.43081 38.6389L2.80305 30.5252C3.21187 28.1085 5.30507 26.3392 7.75589 26.3392H20.0579C20.6104 26.3393 21.1409 26.1256 21.5398 25.7434Z" fill="#013475"/>
<path fill-rule="evenodd" clip-rule="evenodd" d="M6.38092 40.3066L7.62342 32.9574C7.6888 32.5709 7.42822 32.2038 7.04125 32.1385C6.65472 32.0731 6.28759 32.3341 6.22228 32.7206L4.97978 40.0698C4.91439 40.4563 5.1749 40.8235 5.56194 40.8888C5.94847 40.9542 6.3156 40.6932 6.38092 40.3066Z" fill="#013475"/>
<path fill-rule="evenodd" clip-rule="evenodd" d="M6.4132 36.5646H10.6877C10.8218 36.5646 10.9303 36.6731 10.9303 36.8071V40.1883C10.9303 40.5806 11.2486 40.8988 11.6407 40.8988C12.033 40.8988 12.3512 40.5805 12.3512 40.1883V36.8071C12.3512 35.8881 11.6061 35.1436 10.6877 35.1436C9.17989 35.1436 6.41313 35.1436 6.41313 35.1436C6.02095 35.1436 5.70264 35.4619 5.70264 35.854C5.70264 36.2463 6.02095 36.5646 6.4132 36.5646Z" fill="#013475"/>
<path fill-rule="evenodd" clip-rule="evenodd" d="M27.0766 22.2609L30.0196 13.0625C30.1389 12.6887 29.9329 12.289 29.5591 12.1691C29.1859 12.0498 28.7856 12.2558 28.6658 12.6296L25.7232 21.828C25.6038 22.2013 25.8099 22.6015 26.1832 22.7214C26.557 22.8407 26.9573 22.6342 27.0766 22.2609Z" fill="#013475"/>
</svg>
