<svg width="23" height="23" viewBox="0 0 23 23" fill="none" xmlns="http://www.w3.org/2000/svg">
<path d="M21.4994 15.2556L19.5861 13.3423C18.4806 12.2368 16.5546 12.2361 15.4499 13.3423L13.6934 15.0981C13.6694 15.1221 13.6334 15.1288 13.6139 15.1228C12.0494 14.5918 10.7136 13.7796 9.64486 12.7108C8.57536 11.6421 7.76386 10.3063 7.23286 8.74181C7.22611 8.72156 7.23286 8.68631 7.25686 8.66231L9.01336 6.90581C9.56611 6.35306 9.87061 5.61881 9.87061 4.83731C9.87061 4.05581 9.56611 3.32156 9.01336 2.76881L7.10011 0.855563C5.95935 -0.285188 4.10385 -0.285188 2.96385 0.855563L2.16585 1.65206C0.554104 3.26456 -0.233396 5.50856 0.0606039 7.65056C0.530104 11.1876 2.21235 14.4313 5.06236 17.2933C7.92211 20.1418 11.1666 21.8241 14.7006 22.2936C14.9976 22.3341 15.2961 22.3543 15.5946 22.3543C17.4539 22.3543 19.3124 21.5781 20.7021 20.1883L21.4994 19.3918C22.6394 18.2511 22.6394 16.3956 21.4994 15.2556ZM20.5446 18.4378L19.7481 19.2343C18.4319 20.5498 16.6131 21.1956 14.8821 20.9556C11.6451 20.5258 8.66161 18.9718 6.01786 16.3386C3.3831 13.6933 1.8291 10.7098 1.3986 7.46981C1.1616 5.74031 1.8051 3.92306 3.1206 2.60681L3.9171 1.81031C4.2246 1.50281 4.62736 1.34981 5.03086 1.34981C5.43436 1.34981 5.8371 1.50356 6.1446 1.81031L8.05786 3.72356C8.35486 4.02131 8.51911 4.41656 8.51911 4.83731C8.51911 5.25806 8.35486 5.65331 8.05786 5.95106L6.3006 7.70831C5.91735 8.09231 5.78161 8.66831 5.95411 9.17606C6.55186 10.9386 7.47286 12.4491 8.68936 13.6656C9.90586 14.8828 11.4164 15.8031 13.1789 16.4008C13.6874 16.5741 14.2626 16.4368 14.6474 16.0536L16.4046 14.2971C16.9994 13.7023 18.0366 13.7031 18.6321 14.2971L20.5454 16.2103C21.1589 16.8238 21.1589 17.8236 20.5446 18.4378Z" fill="#004092"/>
<path d="M13.1646 3.44803C14.3938 3.92128 15.5848 4.71328 16.6086 5.73628C17.6301 6.75778 18.4243 7.95253 18.9066 9.19153C19.0108 9.45853 19.2658 9.62203 19.5358 9.62203C19.6176 9.62203 19.7001 9.60703 19.7811 9.57553C20.1283 9.43978 20.3001 9.04903 20.1651 8.70103C19.6153 7.28953 18.7153 5.93428 17.5626 4.78153C16.4061 3.62503 15.0538 2.72878 13.6498 2.18803C13.3026 2.05378 12.9111 2.22703 12.7768 2.57503C12.6426 2.92303 12.8173 3.31453 13.1646 3.44803Z" fill="#004092"/>
<path d="M13.6753 5.66585C13.3258 5.5376 12.9373 5.71385 12.8076 6.06335C12.6778 6.41285 12.8556 6.80135 13.2051 6.9311C13.6536 7.0976 14.1103 7.4051 14.5258 7.8206C14.9353 8.2301 15.2511 8.69885 15.4153 9.14135C15.5166 9.4136 15.7746 9.5816 16.0483 9.5816C16.1263 9.5816 16.2058 9.56735 16.2831 9.53885C16.6326 9.4091 16.8103 9.0206 16.6806 8.6711C16.4466 8.04185 16.0318 7.41785 15.4798 6.86585C14.9286 6.31535 14.3046 5.89985 13.6753 5.66585Z" fill="#004092"/>
</svg>
