<svg width="25" height="25" viewBox="0 0 25 25" fill="none" xmlns="http://www.w3.org/2000/svg">
<path fill-rule="evenodd" clip-rule="evenodd" d="M12.5 8.74684e-08C11.5112 8.74684e-08 10.5625 0.3925 9.86248 1.0925L8.74623 2.20875C8.51424 2.43756 8.20207 2.56673 7.87623 2.56875H6.29998C5.80994 2.56859 5.32467 2.66499 4.8719 2.85244C4.41913 3.03989 4.00774 3.31473 3.66122 3.66124C3.31471 4.00775 3.03988 4.41915 2.85242 4.87192C2.66497 5.32469 2.56857 5.80996 2.56873 6.3V7.8775C2.56671 8.20334 2.43754 8.51551 2.20873 8.7475L1.09248 9.86375C0.392978 10.5633 0 11.512 0 12.5013C0 13.4905 0.392978 14.4392 1.09248 15.1388L2.20873 16.255C2.43754 16.487 2.56671 16.7992 2.56873 17.125V18.7025C2.56873 19.6918 2.96171 20.6405 3.66122 21.34C4.36074 22.0395 5.30948 22.4325 6.29873 22.4325H7.87623C8.20248 22.4325 8.51623 22.5625 8.74623 22.7925L9.86248 23.9088C10.562 24.6083 11.5107 25.0012 12.5 25.0012C13.4892 25.0012 14.438 24.6083 15.1375 23.9088L16.2537 22.7925C16.4857 22.5637 16.7979 22.4345 17.1237 22.4325H18.7012C19.6905 22.4325 20.6392 22.0395 21.3387 21.34C22.0383 20.6405 22.4312 19.6918 22.4312 18.7025V17.125C22.4312 16.7987 22.5612 16.485 22.7912 16.255L23.9075 15.1388C24.607 14.4392 25 13.4905 25 12.5013C25 11.512 24.607 10.5633 23.9075 9.86375L22.7912 8.7475C22.5624 8.51551 22.4333 8.20334 22.4312 7.8775V6.3C22.4312 5.31074 22.0383 4.362 21.3387 3.66249C20.6392 2.96298 19.6905 2.57 18.7012 2.57H17.1237C16.7979 2.56798 16.4857 2.43881 16.2537 2.21L15.1375 1.09375C14.7914 0.74694 14.3803 0.471814 13.9277 0.284131C13.4751 0.0964476 12.9899 -0.000106086 12.5 8.74684e-08ZM17.1037 9.6625C17.2258 9.54784 17.3236 9.40982 17.3914 9.25662C17.4591 9.10342 17.4953 8.93818 17.4979 8.7707C17.5005 8.60323 17.4694 8.43694 17.4065 8.28172C17.3436 8.12649 17.2501 7.98549 17.1316 7.8671C17.0131 7.7487 16.8721 7.65533 16.7168 7.59251C16.5615 7.5297 16.3952 7.49874 16.2278 7.50146C16.0603 7.50418 15.8951 7.54052 15.7419 7.60834C15.5888 7.67616 15.4508 7.77407 15.3362 7.89625L10.02 13.2125L8.42373 11.6163C8.18935 11.3817 7.87139 11.2499 7.5398 11.2497C7.20821 11.2496 6.89016 11.3812 6.65561 11.6156C6.42106 11.85 6.28922 12.168 6.28911 12.4996C6.28899 12.8311 6.4206 13.1492 6.65498 13.3837L9.13623 15.8638C9.37064 16.0981 9.68853 16.2297 10.02 16.2297C10.3514 16.2297 10.6693 16.0981 10.9037 15.8638L17.1037 9.66375V9.6625Z" fill="#529EFF"/>
</svg>
