<svg width="19" height="19" viewBox="0 0 19 19" fill="none" xmlns="http://www.w3.org/2000/svg">
<path d="M9.50016 1.5835C13.8725 1.5835 17.4168 5.12779 17.4168 9.50016C17.4168 13.8725 13.8725 17.4168 9.50016 17.4168C5.12779 17.4168 1.5835 13.8725 1.5835 9.50016C1.5835 5.12779 5.12779 1.5835 9.50016 1.5835ZM9.50016 3.16683C7.82046 3.16683 6.20955 3.83409 5.02182 5.02182C3.83409 6.20955 3.16683 7.82046 3.16683 9.50016C3.16683 11.1799 3.83409 12.7908 5.02182 13.9785C6.20955 15.1662 7.82046 15.8335 9.50016 15.8335C11.1799 15.8335 12.7908 15.1662 13.9785 13.9785C15.1662 12.7908 15.8335 11.1799 15.8335 9.50016C15.8335 7.82046 15.1662 6.20955 13.9785 5.02182C12.7908 3.83409 11.1799 3.16683 9.50016 3.16683ZM9.50016 4.75016C9.69407 4.75019 9.88122 4.82138 10.0261 4.95023C10.171 5.07908 10.2636 5.25663 10.2863 5.4492L10.2918 5.54183V9.17241L12.4349 11.3155C12.5769 11.4579 12.6593 11.6491 12.6654 11.8501C12.6716 12.0512 12.601 12.247 12.4679 12.3979C12.3349 12.5487 12.1494 12.6433 11.9492 12.6624C11.749 12.6815 11.549 12.6236 11.3899 12.5006L11.3155 12.4349L8.94045 10.0599C8.81741 9.93672 8.73839 9.77646 8.71562 9.60387L8.7085 9.50016V5.54183C8.7085 5.33187 8.7919 5.1305 8.94037 4.98204C9.08884 4.83357 9.2902 4.75016 9.50016 4.75016Z" fill="#838383"/>
</svg>
