<svg width="340" height="225" viewBox="0 0 340 225" fill="none" xmlns="http://www.w3.org/2000/svg">
<g clip-path="url(#clip0_4_1184)">
<rect width="340" height="225" rx="20" fill="url(#paint0_linear_4_1184)"/>
<g clip-path="url(#clip1_4_1184)">
<rect width="181" height="69" transform="translate(117 113)" fill="white"/>
<line x1="149.002" y1="136.75" x2="288.002" y2="137.743" stroke="#A7A7A7" stroke-width="0.5"/>
<line x1="149.002" y1="159.75" x2="288.002" y2="160.743" stroke="#A7A7A7" stroke-width="0.5"/>
<path d="M166.133 118.594V130H164.062V121.008L161.32 121.914V120.242L165.898 118.594H166.133ZM170.156 128.992C170.156 128.68 170.263 128.417 170.477 128.203C170.69 127.99 170.979 127.883 171.344 127.883C171.708 127.883 171.997 127.99 172.211 128.203C172.424 128.417 172.531 128.68 172.531 128.992C172.531 129.299 172.424 129.56 172.211 129.773C171.997 129.982 171.708 130.086 171.344 130.086C170.979 130.086 170.69 129.982 170.477 129.773C170.263 129.56 170.156 129.299 170.156 128.992ZM176.555 124.766L174.906 124.367L175.539 118.625H181.797V120.336H177.25L176.953 122.992C177.115 122.893 177.349 122.794 177.656 122.695C177.969 122.591 178.32 122.539 178.711 122.539C179.253 122.539 179.737 122.628 180.164 122.805C180.591 122.977 180.953 123.227 181.25 123.555C181.552 123.883 181.779 124.284 181.93 124.758C182.086 125.227 182.164 125.758 182.164 126.352C182.164 126.872 182.086 127.362 181.93 127.82C181.779 128.273 181.547 128.677 181.234 129.031C180.922 129.38 180.529 129.656 180.055 129.859C179.581 130.057 179.023 130.156 178.383 130.156C177.898 130.156 177.432 130.086 176.984 129.945C176.542 129.799 176.143 129.589 175.789 129.312C175.435 129.031 175.151 128.688 174.938 128.281C174.729 127.875 174.615 127.409 174.594 126.883H176.633C176.669 127.232 176.763 127.529 176.914 127.773C177.065 128.018 177.263 128.206 177.508 128.336C177.758 128.466 178.047 128.531 178.375 128.531C178.672 128.531 178.927 128.477 179.141 128.367C179.359 128.253 179.539 128.094 179.68 127.891C179.82 127.688 179.924 127.448 179.992 127.172C180.06 126.896 180.094 126.594 180.094 126.266C180.094 125.948 180.055 125.659 179.977 125.398C179.898 125.133 179.779 124.904 179.617 124.711C179.456 124.518 179.253 124.37 179.008 124.266C178.768 124.161 178.487 124.109 178.164 124.109C177.732 124.109 177.398 124.174 177.164 124.305C176.935 124.435 176.732 124.589 176.555 124.766ZM191.742 121.547V123.031H186.898V121.547H191.742ZM188.195 119.469H190.266V127.562C190.266 127.812 190.299 128.005 190.367 128.141C190.435 128.276 190.536 128.367 190.672 128.414C190.807 128.461 190.969 128.484 191.156 128.484C191.292 128.484 191.417 128.477 191.531 128.461C191.646 128.445 191.742 128.43 191.82 128.414L191.828 129.961C191.656 130.018 191.461 130.065 191.242 130.102C191.029 130.138 190.786 130.156 190.516 130.156C190.052 130.156 189.646 130.078 189.297 129.922C188.948 129.76 188.677 129.503 188.484 129.148C188.292 128.789 188.195 128.315 188.195 127.727V119.469ZM195.141 118V130H193.07V118H195.141ZM194.812 125.469H194.203C194.203 124.88 194.281 124.339 194.438 123.844C194.594 123.349 194.815 122.919 195.102 122.555C195.388 122.185 195.729 121.898 196.125 121.695C196.526 121.492 196.969 121.391 197.453 121.391C197.87 121.391 198.247 121.451 198.586 121.57C198.93 121.685 199.224 121.87 199.469 122.125C199.714 122.38 199.901 122.714 200.031 123.125C200.167 123.531 200.234 124.026 200.234 124.609V130H198.156V124.594C198.156 124.203 198.099 123.896 197.984 123.672C197.87 123.443 197.706 123.279 197.492 123.18C197.284 123.081 197.026 123.031 196.719 123.031C196.385 123.031 196.099 123.096 195.859 123.227C195.62 123.352 195.422 123.526 195.266 123.75C195.115 123.974 195 124.232 194.922 124.523C194.849 124.815 194.812 125.13 194.812 125.469ZM206.711 128.203V124.305C206.711 124.018 206.661 123.771 206.562 123.562C206.464 123.354 206.312 123.193 206.109 123.078C205.906 122.964 205.648 122.906 205.336 122.906C205.06 122.906 204.818 122.953 204.609 123.047C204.406 123.141 204.25 123.273 204.141 123.445C204.031 123.612 203.977 123.805 203.977 124.023H201.906C201.906 123.674 201.99 123.344 202.156 123.031C202.323 122.714 202.56 122.432 202.867 122.188C203.18 121.938 203.552 121.742 203.984 121.602C204.422 121.461 204.911 121.391 205.453 121.391C206.094 121.391 206.664 121.5 207.164 121.719C207.669 121.932 208.065 122.255 208.352 122.688C208.643 123.12 208.789 123.664 208.789 124.32V128.008C208.789 128.43 208.815 128.792 208.867 129.094C208.924 129.391 209.008 129.648 209.117 129.867V130H207.016C206.917 129.786 206.841 129.516 206.789 129.188C206.737 128.854 206.711 128.526 206.711 128.203ZM207 124.852L207.016 126.078H205.711C205.388 126.078 205.104 126.112 204.859 126.18C204.615 126.242 204.414 126.336 204.258 126.461C204.102 126.581 203.984 126.727 203.906 126.898C203.828 127.065 203.789 127.255 203.789 127.469C203.789 127.677 203.836 127.865 203.93 128.031C204.029 128.198 204.169 128.331 204.352 128.43C204.539 128.523 204.758 128.57 205.008 128.57C205.372 128.57 205.69 128.497 205.961 128.352C206.232 128.201 206.443 128.018 206.594 127.805C206.745 127.591 206.826 127.388 206.836 127.195L207.43 128.086C207.357 128.299 207.247 128.526 207.102 128.766C206.956 129.005 206.768 129.229 206.539 129.438C206.31 129.646 206.034 129.818 205.711 129.953C205.388 130.089 205.013 130.156 204.586 130.156C204.039 130.156 203.549 130.047 203.117 129.828C202.685 129.609 202.344 129.31 202.094 128.93C201.844 128.549 201.719 128.117 201.719 127.633C201.719 127.185 201.802 126.789 201.969 126.445C202.135 126.102 202.383 125.812 202.711 125.578C203.039 125.339 203.445 125.159 203.93 125.039C204.419 124.914 204.979 124.852 205.609 124.852H207ZM204.477 120.375L206.008 118H208.289L206.156 120.375H204.477ZM212.672 123.352V130H210.609V121.547H212.547L212.672 123.352ZM212.344 125.469H211.734C211.74 124.854 211.823 124.297 211.984 123.797C212.146 123.297 212.372 122.867 212.664 122.508C212.961 122.148 213.312 121.872 213.719 121.68C214.125 121.487 214.578 121.391 215.078 121.391C215.484 121.391 215.852 121.448 216.18 121.562C216.508 121.677 216.789 121.859 217.023 122.109C217.263 122.359 217.445 122.688 217.57 123.094C217.701 123.495 217.766 123.99 217.766 124.578V130H215.688V124.562C215.688 124.177 215.63 123.872 215.516 123.648C215.406 123.424 215.245 123.266 215.031 123.172C214.823 123.078 214.565 123.031 214.258 123.031C213.94 123.031 213.661 123.096 213.422 123.227C213.188 123.352 212.99 123.526 212.828 123.75C212.672 123.974 212.552 124.232 212.469 124.523C212.385 124.815 212.344 125.13 212.344 125.469ZM224.961 121.547H226.836V129.742C226.836 130.508 226.669 131.156 226.336 131.688C226.008 132.224 225.547 132.63 224.953 132.906C224.359 133.188 223.669 133.328 222.883 133.328C222.544 133.328 222.177 133.281 221.781 133.188C221.391 133.094 221.013 132.945 220.648 132.742C220.289 132.544 219.99 132.286 219.75 131.969L220.68 130.75C220.961 131.078 221.279 131.326 221.633 131.492C221.987 131.664 222.37 131.75 222.781 131.75C223.198 131.75 223.552 131.672 223.844 131.516C224.141 131.365 224.367 131.141 224.523 130.844C224.685 130.552 224.766 130.193 224.766 129.766V123.477L224.961 121.547ZM219.25 125.875V125.711C219.25 125.065 219.328 124.479 219.484 123.953C219.641 123.422 219.865 122.966 220.156 122.586C220.453 122.206 220.81 121.911 221.227 121.703C221.648 121.495 222.122 121.391 222.648 121.391C223.206 121.391 223.674 121.492 224.055 121.695C224.44 121.898 224.758 122.188 225.008 122.562C225.263 122.938 225.461 123.383 225.602 123.898C225.747 124.409 225.859 124.971 225.938 125.586V126.031C225.865 126.63 225.747 127.18 225.586 127.68C225.43 128.18 225.221 128.617 224.961 128.992C224.701 129.362 224.378 129.648 223.992 129.852C223.607 130.055 223.154 130.156 222.633 130.156C222.112 130.156 221.643 130.049 221.227 129.836C220.81 129.622 220.453 129.323 220.156 128.938C219.865 128.552 219.641 128.099 219.484 127.578C219.328 127.057 219.25 126.49 219.25 125.875ZM221.312 125.711V125.875C221.312 126.24 221.349 126.581 221.422 126.898C221.495 127.216 221.607 127.497 221.758 127.742C221.909 127.982 222.099 128.169 222.328 128.305C222.557 128.44 222.831 128.508 223.148 128.508C223.576 128.508 223.924 128.419 224.195 128.242C224.471 128.06 224.68 127.812 224.82 127.5C224.966 127.182 225.06 126.826 225.102 126.43V125.203C225.076 124.891 225.018 124.602 224.93 124.336C224.846 124.07 224.729 123.841 224.578 123.648C224.427 123.456 224.234 123.305 224 123.195C223.766 123.086 223.487 123.031 223.164 123.031C222.852 123.031 222.578 123.102 222.344 123.242C222.109 123.378 221.917 123.568 221.766 123.812C221.615 124.057 221.5 124.341 221.422 124.664C221.349 124.987 221.312 125.336 221.312 125.711Z" fill="#013475"/>
<path d="M166.562 142.531H166.844V144.195H166.711C166.081 144.195 165.526 144.292 165.047 144.484C164.573 144.677 164.177 144.948 163.859 145.297C163.547 145.641 163.31 146.049 163.148 146.523C162.987 146.992 162.906 147.505 162.906 148.062V149.906C162.906 150.339 162.951 150.719 163.039 151.047C163.133 151.37 163.26 151.643 163.422 151.867C163.589 152.086 163.781 152.25 164 152.359C164.224 152.469 164.469 152.523 164.734 152.523C165 152.523 165.24 152.469 165.453 152.359C165.667 152.25 165.849 152.096 166 151.898C166.156 151.695 166.273 151.458 166.352 151.188C166.435 150.917 166.477 150.62 166.477 150.297C166.477 149.979 166.438 149.685 166.359 149.414C166.281 149.143 166.167 148.906 166.016 148.703C165.865 148.495 165.677 148.336 165.453 148.227C165.234 148.112 164.984 148.055 164.703 148.055C164.339 148.055 164.013 148.141 163.727 148.312C163.44 148.479 163.214 148.698 163.047 148.969C162.88 149.24 162.789 149.526 162.773 149.828L162.078 149.484C162.104 149.042 162.198 148.635 162.359 148.266C162.526 147.896 162.747 147.573 163.023 147.297C163.305 147.021 163.635 146.807 164.016 146.656C164.401 146.505 164.828 146.43 165.297 146.43C165.839 146.43 166.312 146.534 166.719 146.742C167.125 146.945 167.461 147.224 167.727 147.578C167.997 147.932 168.201 148.341 168.336 148.805C168.471 149.263 168.539 149.747 168.539 150.258C168.539 150.805 168.451 151.315 168.273 151.789C168.102 152.263 167.852 152.677 167.523 153.031C167.195 153.385 166.799 153.661 166.336 153.859C165.872 154.057 165.352 154.156 164.773 154.156C164.164 154.156 163.617 154.042 163.133 153.812C162.654 153.583 162.242 153.266 161.898 152.859C161.555 152.453 161.292 151.979 161.109 151.438C160.927 150.896 160.836 150.31 160.836 149.68V148.852C160.836 147.961 160.958 147.133 161.203 146.367C161.448 145.602 161.81 144.932 162.289 144.359C162.773 143.781 163.372 143.333 164.086 143.016C164.799 142.693 165.625 142.531 166.562 142.531ZM178.055 145.547V147.031H173.211V145.547H178.055ZM174.508 143.469H176.578V151.562C176.578 151.812 176.612 152.005 176.68 152.141C176.747 152.276 176.849 152.367 176.984 152.414C177.12 152.461 177.281 152.484 177.469 152.484C177.604 152.484 177.729 152.477 177.844 152.461C177.958 152.445 178.055 152.43 178.133 152.414L178.141 153.961C177.969 154.018 177.773 154.065 177.555 154.102C177.341 154.138 177.099 154.156 176.828 154.156C176.365 154.156 175.958 154.078 175.609 153.922C175.26 153.76 174.99 153.503 174.797 153.148C174.604 152.789 174.508 152.315 174.508 151.727V143.469ZM184.461 151.992V145.547H186.539V154H184.586L184.461 151.992ZM184.727 150.242L185.367 150.227C185.367 150.794 185.305 151.318 185.18 151.797C185.055 152.276 184.859 152.693 184.594 153.047C184.333 153.396 184.003 153.669 183.602 153.867C183.201 154.06 182.727 154.156 182.18 154.156C181.763 154.156 181.383 154.099 181.039 153.984C180.695 153.865 180.398 153.68 180.148 153.43C179.904 153.174 179.714 152.849 179.578 152.453C179.443 152.052 179.375 151.57 179.375 151.008V145.547H181.438V151.023C181.438 151.305 181.469 151.539 181.531 151.727C181.599 151.914 181.69 152.068 181.805 152.188C181.924 152.302 182.062 152.385 182.219 152.438C182.38 152.484 182.552 152.508 182.734 152.508C183.234 152.508 183.628 152.409 183.914 152.211C184.206 152.008 184.414 151.737 184.539 151.398C184.664 151.055 184.727 150.669 184.727 150.242ZM193.023 152.203V148.305C193.023 148.018 192.974 147.771 192.875 147.562C192.776 147.354 192.625 147.193 192.422 147.078C192.219 146.964 191.961 146.906 191.648 146.906C191.372 146.906 191.13 146.953 190.922 147.047C190.719 147.141 190.562 147.273 190.453 147.445C190.344 147.612 190.289 147.805 190.289 148.023H188.219C188.219 147.674 188.302 147.344 188.469 147.031C188.635 146.714 188.872 146.432 189.18 146.188C189.492 145.938 189.865 145.742 190.297 145.602C190.734 145.461 191.224 145.391 191.766 145.391C192.406 145.391 192.977 145.5 193.477 145.719C193.982 145.932 194.378 146.255 194.664 146.688C194.956 147.12 195.102 147.664 195.102 148.32V152.008C195.102 152.43 195.128 152.792 195.18 153.094C195.237 153.391 195.32 153.648 195.43 153.867V154H193.328C193.229 153.786 193.154 153.516 193.102 153.188C193.049 152.854 193.023 152.526 193.023 152.203ZM193.312 148.852L193.328 150.078H192.023C191.701 150.078 191.417 150.112 191.172 150.18C190.927 150.242 190.727 150.336 190.57 150.461C190.414 150.581 190.297 150.727 190.219 150.898C190.141 151.065 190.102 151.255 190.102 151.469C190.102 151.677 190.148 151.865 190.242 152.031C190.341 152.198 190.482 152.331 190.664 152.43C190.852 152.523 191.07 152.57 191.32 152.57C191.685 152.57 192.003 152.497 192.273 152.352C192.544 152.201 192.755 152.018 192.906 151.805C193.057 151.591 193.138 151.388 193.148 151.195L193.742 152.086C193.669 152.299 193.56 152.526 193.414 152.766C193.268 153.005 193.081 153.229 192.852 153.438C192.622 153.646 192.346 153.818 192.023 153.953C191.701 154.089 191.326 154.156 190.898 154.156C190.352 154.156 189.862 154.047 189.43 153.828C188.997 153.609 188.656 153.31 188.406 152.93C188.156 152.549 188.031 152.117 188.031 151.633C188.031 151.185 188.115 150.789 188.281 150.445C188.448 150.102 188.695 149.812 189.023 149.578C189.352 149.339 189.758 149.159 190.242 149.039C190.732 148.914 191.292 148.852 191.922 148.852H193.312ZM192.406 142.547L194.633 144.414H193.008L191.789 143.352L190.57 144.414H188.938L191.164 142.547H192.406ZM188.273 141.188L189.516 143.273H188.273L186.539 141.188H188.273ZM198.984 147.352V154H196.922V145.547H198.859L198.984 147.352ZM198.656 149.469H198.047C198.052 148.854 198.135 148.297 198.297 147.797C198.458 147.297 198.685 146.867 198.977 146.508C199.273 146.148 199.625 145.872 200.031 145.68C200.438 145.487 200.891 145.391 201.391 145.391C201.797 145.391 202.164 145.448 202.492 145.562C202.82 145.677 203.102 145.859 203.336 146.109C203.576 146.359 203.758 146.688 203.883 147.094C204.013 147.495 204.078 147.99 204.078 148.578V154H202V148.562C202 148.177 201.943 147.872 201.828 147.648C201.719 147.424 201.557 147.266 201.344 147.172C201.135 147.078 200.878 147.031 200.57 147.031C200.253 147.031 199.974 147.096 199.734 147.227C199.5 147.352 199.302 147.526 199.141 147.75C198.984 147.974 198.865 148.232 198.781 148.523C198.698 148.815 198.656 149.13 198.656 149.469Z" fill="#013475"/>
<path d="M163.078 169.398H164.242C164.654 169.398 164.992 169.328 165.258 169.188C165.529 169.042 165.729 168.844 165.859 168.594C165.995 168.339 166.062 168.044 166.062 167.711C166.062 167.383 166.003 167.099 165.883 166.859C165.763 166.615 165.581 166.427 165.336 166.297C165.096 166.161 164.789 166.094 164.414 166.094C164.112 166.094 163.833 166.154 163.578 166.273C163.328 166.393 163.128 166.565 162.977 166.789C162.831 167.008 162.758 167.271 162.758 167.578H160.688C160.688 166.964 160.849 166.424 161.172 165.961C161.5 165.492 161.943 165.125 162.5 164.859C163.057 164.594 163.68 164.461 164.367 164.461C165.117 164.461 165.773 164.586 166.336 164.836C166.904 165.081 167.344 165.443 167.656 165.922C167.974 166.401 168.133 166.995 168.133 167.703C168.133 168.042 168.052 168.38 167.891 168.719C167.734 169.052 167.503 169.354 167.195 169.625C166.893 169.891 166.521 170.107 166.078 170.273C165.641 170.435 165.138 170.516 164.57 170.516H163.078V169.398ZM163.078 170.992V169.891H164.57C165.211 169.891 165.766 169.966 166.234 170.117C166.708 170.263 167.099 170.471 167.406 170.742C167.714 171.008 167.94 171.318 168.086 171.672C168.237 172.026 168.312 172.406 168.312 172.812C168.312 173.344 168.214 173.818 168.016 174.234C167.818 174.646 167.539 174.995 167.18 175.281C166.826 175.568 166.409 175.786 165.93 175.938C165.451 176.083 164.932 176.156 164.375 176.156C163.891 176.156 163.419 176.091 162.961 175.961C162.508 175.826 162.099 175.625 161.734 175.359C161.37 175.089 161.081 174.75 160.867 174.344C160.654 173.932 160.547 173.456 160.547 172.914H162.617C162.617 173.227 162.693 173.505 162.844 173.75C163 173.995 163.214 174.188 163.484 174.328C163.76 174.464 164.07 174.531 164.414 174.531C164.794 174.531 165.12 174.464 165.391 174.328C165.667 174.188 165.878 173.99 166.023 173.734C166.169 173.474 166.242 173.164 166.242 172.805C166.242 172.378 166.161 172.031 166 171.766C165.839 171.5 165.607 171.305 165.305 171.18C165.008 171.055 164.654 170.992 164.242 170.992H163.078ZM177.664 174.375V176H169.961V174.609L173.656 170.617C174.042 170.18 174.346 169.799 174.57 169.477C174.794 169.154 174.953 168.862 175.047 168.602C175.146 168.336 175.195 168.083 175.195 167.844C175.195 167.495 175.133 167.19 175.008 166.93C174.883 166.664 174.701 166.458 174.461 166.312C174.227 166.167 173.938 166.094 173.594 166.094C173.214 166.094 172.888 166.182 172.617 166.359C172.352 166.531 172.148 166.771 172.008 167.078C171.872 167.385 171.805 167.737 171.805 168.133H169.734C169.734 167.461 169.891 166.849 170.203 166.297C170.516 165.74 170.964 165.294 171.547 164.961C172.13 164.628 172.823 164.461 173.625 164.461C174.406 164.461 175.068 164.591 175.609 164.852C176.151 165.107 176.562 165.471 176.844 165.945C177.125 166.419 177.266 166.984 177.266 167.641C177.266 168.005 177.206 168.365 177.086 168.719C176.966 169.073 176.797 169.424 176.578 169.773C176.365 170.117 176.109 170.466 175.812 170.82C175.516 171.174 175.185 171.536 174.82 171.906L172.602 174.375H177.664ZM188.57 167.547H190.445V175.742C190.445 176.508 190.279 177.156 189.945 177.688C189.617 178.224 189.156 178.63 188.562 178.906C187.969 179.188 187.279 179.328 186.492 179.328C186.154 179.328 185.786 179.281 185.391 179.188C185 179.094 184.622 178.945 184.258 178.742C183.898 178.544 183.599 178.286 183.359 177.969L184.289 176.75C184.57 177.078 184.888 177.326 185.242 177.492C185.596 177.664 185.979 177.75 186.391 177.75C186.807 177.75 187.161 177.672 187.453 177.516C187.75 177.365 187.977 177.141 188.133 176.844C188.294 176.552 188.375 176.193 188.375 175.766V169.477L188.57 167.547ZM182.859 171.875V171.711C182.859 171.065 182.938 170.479 183.094 169.953C183.25 169.422 183.474 168.966 183.766 168.586C184.062 168.206 184.419 167.911 184.836 167.703C185.258 167.495 185.732 167.391 186.258 167.391C186.815 167.391 187.284 167.492 187.664 167.695C188.049 167.898 188.367 168.188 188.617 168.562C188.872 168.938 189.07 169.383 189.211 169.898C189.357 170.409 189.469 170.971 189.547 171.586V172.031C189.474 172.63 189.357 173.18 189.195 173.68C189.039 174.18 188.831 174.617 188.57 174.992C188.31 175.362 187.987 175.648 187.602 175.852C187.216 176.055 186.763 176.156 186.242 176.156C185.721 176.156 185.253 176.049 184.836 175.836C184.419 175.622 184.062 175.323 183.766 174.938C183.474 174.552 183.25 174.099 183.094 173.578C182.938 173.057 182.859 172.49 182.859 171.875ZM184.922 171.711V171.875C184.922 172.24 184.958 172.581 185.031 172.898C185.104 173.216 185.216 173.497 185.367 173.742C185.518 173.982 185.708 174.169 185.938 174.305C186.167 174.44 186.44 174.508 186.758 174.508C187.185 174.508 187.534 174.419 187.805 174.242C188.081 174.06 188.289 173.812 188.43 173.5C188.576 173.182 188.669 172.826 188.711 172.43V171.203C188.685 170.891 188.628 170.602 188.539 170.336C188.456 170.07 188.339 169.841 188.188 169.648C188.036 169.456 187.844 169.305 187.609 169.195C187.375 169.086 187.096 169.031 186.773 169.031C186.461 169.031 186.188 169.102 185.953 169.242C185.719 169.378 185.526 169.568 185.375 169.812C185.224 170.057 185.109 170.341 185.031 170.664C184.958 170.987 184.922 171.336 184.922 171.711ZM194.492 167.547V176H192.422V167.547H194.492ZM192.281 165.336C192.281 165.029 192.385 164.773 192.594 164.57C192.807 164.367 193.094 164.266 193.453 164.266C193.812 164.266 194.096 164.367 194.305 164.57C194.518 164.773 194.625 165.029 194.625 165.336C194.625 165.638 194.518 165.891 194.305 166.094C194.096 166.297 193.812 166.398 193.453 166.398C193.094 166.398 192.807 166.297 192.594 166.094C192.385 165.891 192.281 165.638 192.281 165.336ZM203.648 166.719H204.953C204.953 167.328 204.862 167.852 204.68 168.289C204.497 168.727 204.206 169.062 203.805 169.297C203.409 169.531 202.885 169.648 202.234 169.648V168.703C202.63 168.703 202.927 168.622 203.125 168.461C203.328 168.299 203.466 168.07 203.539 167.773C203.612 167.471 203.648 167.12 203.648 166.719ZM196.078 171.859V171.695C196.078 171.076 196.167 170.505 196.344 169.984C196.521 169.458 196.779 169.003 197.117 168.617C197.461 168.232 197.878 167.932 198.367 167.719C198.857 167.5 199.414 167.391 200.039 167.391C200.674 167.391 201.237 167.5 201.727 167.719C202.221 167.932 202.638 168.232 202.977 168.617C203.315 169.003 203.573 169.458 203.75 169.984C203.927 170.505 204.016 171.076 204.016 171.695V171.859C204.016 172.474 203.927 173.044 203.75 173.57C203.573 174.091 203.315 174.547 202.977 174.938C202.638 175.323 202.224 175.622 201.734 175.836C201.245 176.049 200.685 176.156 200.055 176.156C199.424 176.156 198.862 176.049 198.367 175.836C197.878 175.622 197.461 175.323 197.117 174.938C196.779 174.547 196.521 174.091 196.344 173.57C196.167 173.044 196.078 172.474 196.078 171.859ZM198.148 171.695V171.859C198.148 172.229 198.185 172.576 198.258 172.898C198.331 173.221 198.443 173.505 198.594 173.75C198.745 173.995 198.94 174.188 199.18 174.328C199.424 174.464 199.716 174.531 200.055 174.531C200.388 174.531 200.674 174.464 200.914 174.328C201.154 174.188 201.349 173.995 201.5 173.75C201.651 173.505 201.763 173.221 201.836 172.898C201.909 172.576 201.945 172.229 201.945 171.859V171.695C201.945 171.331 201.909 170.99 201.836 170.672C201.763 170.349 201.651 170.065 201.5 169.82C201.349 169.57 201.151 169.375 200.906 169.234C200.667 169.089 200.378 169.016 200.039 169.016C199.706 169.016 199.419 169.089 199.18 169.234C198.94 169.375 198.745 169.57 198.594 169.82C198.443 170.065 198.331 170.349 198.258 170.672C198.185 170.99 198.148 171.331 198.148 171.695ZM199.562 164L201.094 166.375H199.383L197.273 164H199.562Z" fill="#013475"/>
</g>
<circle cx="80.5" cy="152.5" r="54.5" fill="#FFEF24"/>
<circle cx="88.5" cy="147.5" r="54.1" fill="white" stroke="#151515" stroke-width="0.8"/>
<path d="M66.875 145.625V149.562C66.875 151.271 66.6927 152.745 66.3281 153.984C65.9635 155.214 65.4375 156.224 64.75 157.016C64.0729 157.797 63.2656 158.375 62.3281 158.75C61.3906 159.125 60.349 159.312 59.2031 159.312C58.2865 159.312 57.4323 159.198 56.6406 158.969C55.849 158.729 55.1354 158.359 54.5 157.859C53.875 157.359 53.3333 156.729 52.875 155.969C52.4271 155.198 52.0833 154.281 51.8438 153.219C51.6042 152.156 51.4844 150.938 51.4844 149.562V145.625C51.4844 143.917 51.6667 142.453 52.0312 141.234C52.4062 140.005 52.9323 139 53.6094 138.219C54.2969 137.438 55.1094 136.865 56.0469 136.5C56.9844 136.125 58.026 135.938 59.1719 135.938C60.0885 135.938 60.9375 136.057 61.7188 136.297C62.5104 136.526 63.224 136.885 63.8594 137.375C64.4948 137.865 65.0365 138.495 65.4844 139.266C65.9323 140.026 66.276 140.938 66.5156 142C66.7552 143.052 66.875 144.26 66.875 145.625ZM62.3594 150.156V145.016C62.3594 144.193 62.3125 143.474 62.2188 142.859C62.1354 142.245 62.0052 141.724 61.8281 141.297C61.651 140.859 61.4323 140.505 61.1719 140.234C60.9115 139.964 60.6146 139.766 60.2812 139.641C59.9479 139.516 59.5781 139.453 59.1719 139.453C58.6615 139.453 58.2083 139.552 57.8125 139.75C57.4271 139.948 57.099 140.266 56.8281 140.703C56.5573 141.13 56.349 141.703 56.2031 142.422C56.0677 143.13 56 143.995 56 145.016V150.156C56 150.979 56.0417 151.703 56.125 152.328C56.2188 152.953 56.3542 153.49 56.5312 153.938C56.7188 154.375 56.9375 154.734 57.1875 155.016C57.4479 155.286 57.7448 155.484 58.0781 155.609C58.4219 155.734 58.7969 155.797 59.2031 155.797C59.7031 155.797 60.1458 155.698 60.5312 155.5C60.9271 155.292 61.2604 154.969 61.5312 154.531C61.8125 154.083 62.0208 153.5 62.1562 152.781C62.2917 152.062 62.3594 151.188 62.3594 150.156ZM79 147.469V151H70.1719V147.469H79ZM98.125 155.484V159H82.5625V156L89.9219 148.109C90.6615 147.286 91.2448 146.562 91.6719 145.938C92.099 145.302 92.4062 144.734 92.5938 144.234C92.7917 143.724 92.8906 143.24 92.8906 142.781C92.8906 142.094 92.776 141.505 92.5469 141.016C92.3177 140.516 91.9792 140.13 91.5312 139.859C91.0938 139.589 90.5521 139.453 89.9062 139.453C89.2188 139.453 88.625 139.62 88.125 139.953C87.6354 140.286 87.2604 140.75 87 141.344C86.75 141.938 86.625 142.609 86.625 143.359H82.1094C82.1094 142.005 82.4323 140.766 83.0781 139.641C83.724 138.505 84.6354 137.604 85.8125 136.938C86.9896 136.26 88.3854 135.922 90 135.922C91.5938 135.922 92.9375 136.182 94.0312 136.703C95.1354 137.214 95.9688 137.953 96.5312 138.922C97.1042 139.88 97.3906 141.026 97.3906 142.359C97.3906 143.109 97.2708 143.844 97.0312 144.562C96.7917 145.271 96.4479 145.979 96 146.688C95.5625 147.385 95.0312 148.094 94.4062 148.812C93.7812 149.531 93.0885 150.276 92.3281 151.047L88.375 155.484H98.125ZM101.344 156.828C101.344 156.161 101.573 155.604 102.031 155.156C102.5 154.708 103.12 154.484 103.891 154.484C104.661 154.484 105.276 154.708 105.734 155.156C106.203 155.604 106.438 156.161 106.438 156.828C106.438 157.495 106.203 158.052 105.734 158.5C105.276 158.948 104.661 159.172 103.891 159.172C103.12 159.172 102.5 158.948 102.031 158.5C101.573 158.052 101.344 157.495 101.344 156.828ZM125.531 145.625V149.562C125.531 151.271 125.349 152.745 124.984 153.984C124.62 155.214 124.094 156.224 123.406 157.016C122.729 157.797 121.922 158.375 120.984 158.75C120.047 159.125 119.005 159.312 117.859 159.312C116.943 159.312 116.089 159.198 115.297 158.969C114.505 158.729 113.792 158.359 113.156 157.859C112.531 157.359 111.99 156.729 111.531 155.969C111.083 155.198 110.74 154.281 110.5 153.219C110.26 152.156 110.141 150.938 110.141 149.562V145.625C110.141 143.917 110.323 142.453 110.688 141.234C111.062 140.005 111.589 139 112.266 138.219C112.953 137.438 113.766 136.865 114.703 136.5C115.641 136.125 116.682 135.938 117.828 135.938C118.745 135.938 119.594 136.057 120.375 136.297C121.167 136.526 121.88 136.885 122.516 137.375C123.151 137.865 123.693 138.495 124.141 139.266C124.589 140.026 124.932 140.938 125.172 142C125.411 143.052 125.531 144.26 125.531 145.625ZM121.016 150.156V145.016C121.016 144.193 120.969 143.474 120.875 142.859C120.792 142.245 120.661 141.724 120.484 141.297C120.307 140.859 120.089 140.505 119.828 140.234C119.568 139.964 119.271 139.766 118.938 139.641C118.604 139.516 118.234 139.453 117.828 139.453C117.318 139.453 116.865 139.552 116.469 139.75C116.083 139.948 115.755 140.266 115.484 140.703C115.214 141.13 115.005 141.703 114.859 142.422C114.724 143.13 114.656 143.995 114.656 145.016V150.156C114.656 150.979 114.698 151.703 114.781 152.328C114.875 152.953 115.01 153.49 115.188 153.938C115.375 154.375 115.594 154.734 115.844 155.016C116.104 155.286 116.401 155.484 116.734 155.609C117.078 155.734 117.453 155.797 117.859 155.797C118.359 155.797 118.802 155.698 119.188 155.5C119.583 155.292 119.917 154.969 120.188 154.531C120.469 154.083 120.677 153.5 120.812 152.781C120.948 152.062 121.016 151.188 121.016 150.156Z" fill="#DB001F"/>
<path d="M295 113H301L313.778 145.181C314.242 146.351 314.249 147.652 313.796 148.826L301 182H295V113Z" fill="white"/>
<path d="M42.2642 36V21.4545H45.3395V27.8679H45.5312L50.7656 21.4545H54.4517L49.054 27.9673L54.5156 36H50.8366L46.8523 30.0199L45.3395 31.8665V36H42.2642ZM56.0533 36V21.4545H59.1286V27.456H65.3714V21.4545H68.4396V36H65.3714V29.9915H59.1286V36H56.0533ZM84.3416 28.7273C84.3416 30.3134 84.041 31.6629 83.4396 32.7756C82.843 33.8883 82.0286 34.7382 80.9964 35.3253C79.969 35.9077 78.8137 36.1989 77.5305 36.1989C76.2379 36.1989 75.0779 35.9053 74.0504 35.3182C73.023 34.7311 72.2109 33.8812 71.6143 32.7685C71.0178 31.6558 70.7195 30.3087 70.7195 28.7273C70.7195 27.1411 71.0178 25.7917 71.6143 24.679C72.2109 23.5663 73.023 22.7187 74.0504 22.1364C75.0779 21.5492 76.2379 21.2557 77.5305 21.2557C78.8137 21.2557 79.969 21.5492 80.9964 22.1364C82.0286 22.7187 82.843 23.5663 83.4396 24.679C84.041 25.7917 84.3416 27.1411 84.3416 28.7273ZM81.2237 28.7273C81.2237 27.6998 81.0698 26.8333 80.7621 26.1278C80.459 25.4223 80.0305 24.8873 79.4766 24.5227C78.9226 24.1581 78.2739 23.9759 77.5305 23.9759C76.7872 23.9759 76.1385 24.1581 75.5845 24.5227C75.0305 24.8873 74.5997 25.4223 74.2919 26.1278C73.9889 26.8333 73.8374 27.6998 73.8374 28.7273C73.8374 29.7547 73.9889 30.6212 74.2919 31.3267C74.5997 32.0322 75.0305 32.5672 75.5845 32.9318C76.1385 33.2964 76.7872 33.4787 77.5305 33.4787C78.2739 33.4787 78.9226 33.2964 79.4766 32.9318C80.0305 32.5672 80.459 32.0322 80.7621 31.3267C81.0698 30.6212 81.2237 29.7547 81.2237 28.7273ZM88.3065 36H85.011L90.0323 21.4545H93.9954L99.0096 36H95.7141L92.0707 24.7784H91.957L88.3065 36ZM88.1005 30.2827H95.8846V32.6832H88.1005V30.2827ZM90.9272 20.0483L92.4329 16.8168H95.2312L93.065 20.0483H90.9272Z" fill="white"/>
<g filter="url(#filter0_d_4_1184)">
<mask id="path-12-outside-1_4_1184" maskUnits="userSpaceOnUse" x="42" y="48" width="116" height="33" fill="black">
<rect fill="white" x="42" y="48" width="116" height="33"/>
<path d="M42.875 80V50.9091H55.4318C57.5909 50.9091 59.4801 51.3352 61.0994 52.1875C62.7188 53.0398 63.9782 54.2377 64.8778 55.7812C65.7775 57.3248 66.2273 59.1288 66.2273 61.1932C66.2273 63.2765 65.7633 65.0805 64.8352 66.6051C63.9167 68.1297 62.6241 69.304 60.9574 70.1278C59.3002 70.9517 57.3636 71.3636 55.1477 71.3636H47.6477V65.2273H53.5568C54.4848 65.2273 55.2756 65.0663 55.929 64.7443C56.5919 64.4129 57.0985 63.9441 57.4489 63.3381C57.8087 62.732 57.9886 62.017 57.9886 61.1932C57.9886 60.3598 57.8087 59.6496 57.4489 59.0625C57.0985 58.4659 56.5919 58.0114 55.929 57.6989C55.2756 57.3769 54.4848 57.2159 53.5568 57.2159H50.7727V80H42.875ZM69.2386 80V58.1818H76.8523V62.3295H77.0795C77.4773 60.7955 78.107 59.6733 78.9688 58.9631C79.84 58.2528 80.858 57.8977 82.0227 57.8977C82.3636 57.8977 82.6998 57.9261 83.0312 57.983C83.3722 58.0303 83.6989 58.1013 84.0114 58.196V64.8864C83.6231 64.7538 83.1449 64.6544 82.5767 64.5881C82.0085 64.5218 81.5208 64.4886 81.1136 64.4886C80.3466 64.4886 79.6553 64.6638 79.0398 65.0142C78.4337 65.3551 77.9555 65.8381 77.6051 66.4631C77.2547 67.0786 77.0795 67.803 77.0795 68.6364V80H69.2386ZM86.5824 80V58.1818H94.4233V80H86.5824ZM90.5028 55.9091C89.4422 55.9091 88.5331 55.5587 87.7756 54.858C87.018 54.1572 86.6392 53.3144 86.6392 52.3295C86.6392 51.3447 87.018 50.5019 87.7756 49.8011C88.5331 49.1004 89.4422 48.75 90.5028 48.75C91.5729 48.75 92.482 49.1004 93.2301 49.8011C93.9877 50.5019 94.3665 51.3447 94.3665 52.3295C94.3665 53.3144 93.9877 54.1572 93.2301 54.858C92.482 55.5587 91.5729 55.9091 90.5028 55.9091ZM98.4183 80V58.1818H105.862V62.3295H106.089C106.543 60.9659 107.32 59.8864 108.418 59.0909C109.517 58.2955 110.824 57.8977 112.339 57.8977C113.873 57.8977 115.194 58.3049 116.302 59.1193C117.41 59.9242 118.077 60.9943 118.305 62.3295H118.532C118.901 60.9943 119.687 59.9242 120.89 59.1193C122.093 58.3049 123.504 57.8977 125.123 57.8977C127.216 57.8977 128.911 58.5701 130.208 59.9148C131.515 61.2595 132.168 63.0492 132.168 65.2841V80H124.327V67.2727C124.327 66.3163 124.086 65.5682 123.603 65.0284C123.12 64.4792 122.471 64.2045 121.657 64.2045C120.852 64.2045 120.213 64.4792 119.739 65.0284C119.275 65.5682 119.043 66.3163 119.043 67.2727V80H111.543V67.2727C111.543 66.3163 111.302 65.5682 110.819 65.0284C110.336 64.4792 109.687 64.2045 108.873 64.2045C108.333 64.2045 107.869 64.3277 107.481 64.5739C107.093 64.8201 106.79 65.1752 106.572 65.6392C106.363 66.0937 106.259 66.6383 106.259 67.2727V80H98.4183ZM146.49 80.3977C144.161 80.3977 142.153 79.9527 140.467 79.0625C138.791 78.1629 137.499 76.875 136.589 75.1989C135.69 73.5133 135.24 71.4962 135.24 69.1477C135.24 66.8939 135.695 64.9242 136.604 63.2386C137.513 61.553 138.796 60.2415 140.453 59.304C142.11 58.3665 144.066 57.8977 146.32 57.8977C147.967 57.8977 149.459 58.1534 150.794 58.6648C152.129 59.1761 153.27 59.9195 154.217 60.8949C155.164 61.8608 155.893 63.035 156.405 64.4176C156.916 65.8002 157.172 67.358 157.172 69.0909V70.9091H137.683V66.5909H149.956C149.946 65.9659 149.786 65.4167 149.473 64.9432C149.17 64.4602 148.758 64.0862 148.237 63.821C147.726 63.5464 147.143 63.4091 146.49 63.4091C145.856 63.4091 145.273 63.5464 144.743 63.821C144.213 64.0862 143.786 64.4555 143.464 64.929C143.152 65.4025 142.986 65.9564 142.967 66.5909V71.25C142.967 71.9508 143.114 72.5758 143.408 73.125C143.701 73.6742 144.123 74.1051 144.672 74.4176C145.221 74.7301 145.884 74.8864 146.661 74.8864C147.2 74.8864 147.693 74.8106 148.138 74.6591C148.592 74.5076 148.981 74.2898 149.303 74.0057C149.625 73.7121 149.861 73.3617 150.013 72.9545H157.172C156.926 74.4697 156.343 75.786 155.425 76.9034C154.506 78.0114 153.289 78.8731 151.774 79.4886C150.268 80.0947 148.507 80.3977 146.49 80.3977Z"/>
</mask>
<path d="M42.875 80V50.9091H55.4318C57.5909 50.9091 59.4801 51.3352 61.0994 52.1875C62.7188 53.0398 63.9782 54.2377 64.8778 55.7812C65.7775 57.3248 66.2273 59.1288 66.2273 61.1932C66.2273 63.2765 65.7633 65.0805 64.8352 66.6051C63.9167 68.1297 62.6241 69.304 60.9574 70.1278C59.3002 70.9517 57.3636 71.3636 55.1477 71.3636H47.6477V65.2273H53.5568C54.4848 65.2273 55.2756 65.0663 55.929 64.7443C56.5919 64.4129 57.0985 63.9441 57.4489 63.3381C57.8087 62.732 57.9886 62.017 57.9886 61.1932C57.9886 60.3598 57.8087 59.6496 57.4489 59.0625C57.0985 58.4659 56.5919 58.0114 55.929 57.6989C55.2756 57.3769 54.4848 57.2159 53.5568 57.2159H50.7727V80H42.875ZM69.2386 80V58.1818H76.8523V62.3295H77.0795C77.4773 60.7955 78.107 59.6733 78.9688 58.9631C79.84 58.2528 80.858 57.8977 82.0227 57.8977C82.3636 57.8977 82.6998 57.9261 83.0312 57.983C83.3722 58.0303 83.6989 58.1013 84.0114 58.196V64.8864C83.6231 64.7538 83.1449 64.6544 82.5767 64.5881C82.0085 64.5218 81.5208 64.4886 81.1136 64.4886C80.3466 64.4886 79.6553 64.6638 79.0398 65.0142C78.4337 65.3551 77.9555 65.8381 77.6051 66.4631C77.2547 67.0786 77.0795 67.803 77.0795 68.6364V80H69.2386ZM86.5824 80V58.1818H94.4233V80H86.5824ZM90.5028 55.9091C89.4422 55.9091 88.5331 55.5587 87.7756 54.858C87.018 54.1572 86.6392 53.3144 86.6392 52.3295C86.6392 51.3447 87.018 50.5019 87.7756 49.8011C88.5331 49.1004 89.4422 48.75 90.5028 48.75C91.5729 48.75 92.482 49.1004 93.2301 49.8011C93.9877 50.5019 94.3665 51.3447 94.3665 52.3295C94.3665 53.3144 93.9877 54.1572 93.2301 54.858C92.482 55.5587 91.5729 55.9091 90.5028 55.9091ZM98.4183 80V58.1818H105.862V62.3295H106.089C106.543 60.9659 107.32 59.8864 108.418 59.0909C109.517 58.2955 110.824 57.8977 112.339 57.8977C113.873 57.8977 115.194 58.3049 116.302 59.1193C117.41 59.9242 118.077 60.9943 118.305 62.3295H118.532C118.901 60.9943 119.687 59.9242 120.89 59.1193C122.093 58.3049 123.504 57.8977 125.123 57.8977C127.216 57.8977 128.911 58.5701 130.208 59.9148C131.515 61.2595 132.168 63.0492 132.168 65.2841V80H124.327V67.2727C124.327 66.3163 124.086 65.5682 123.603 65.0284C123.12 64.4792 122.471 64.2045 121.657 64.2045C120.852 64.2045 120.213 64.4792 119.739 65.0284C119.275 65.5682 119.043 66.3163 119.043 67.2727V80H111.543V67.2727C111.543 66.3163 111.302 65.5682 110.819 65.0284C110.336 64.4792 109.687 64.2045 108.873 64.2045C108.333 64.2045 107.869 64.3277 107.481 64.5739C107.093 64.8201 106.79 65.1752 106.572 65.6392C106.363 66.0937 106.259 66.6383 106.259 67.2727V80H98.4183ZM146.49 80.3977C144.161 80.3977 142.153 79.9527 140.467 79.0625C138.791 78.1629 137.499 76.875 136.589 75.1989C135.69 73.5133 135.24 71.4962 135.24 69.1477C135.24 66.8939 135.695 64.9242 136.604 63.2386C137.513 61.553 138.796 60.2415 140.453 59.304C142.11 58.3665 144.066 57.8977 146.32 57.8977C147.967 57.8977 149.459 58.1534 150.794 58.6648C152.129 59.1761 153.27 59.9195 154.217 60.8949C155.164 61.8608 155.893 63.035 156.405 64.4176C156.916 65.8002 157.172 67.358 157.172 69.0909V70.9091H137.683V66.5909H149.956C149.946 65.9659 149.786 65.4167 149.473 64.9432C149.17 64.4602 148.758 64.0862 148.237 63.821C147.726 63.5464 147.143 63.4091 146.49 63.4091C145.856 63.4091 145.273 63.5464 144.743 63.821C144.213 64.0862 143.786 64.4555 143.464 64.929C143.152 65.4025 142.986 65.9564 142.967 66.5909V71.25C142.967 71.9508 143.114 72.5758 143.408 73.125C143.701 73.6742 144.123 74.1051 144.672 74.4176C145.221 74.7301 145.884 74.8864 146.661 74.8864C147.2 74.8864 147.693 74.8106 148.138 74.6591C148.592 74.5076 148.981 74.2898 149.303 74.0057C149.625 73.7121 149.861 73.3617 150.013 72.9545H157.172C156.926 74.4697 156.343 75.786 155.425 76.9034C154.506 78.0114 153.289 78.8731 151.774 79.4886C150.268 80.0947 148.507 80.3977 146.49 80.3977Z" fill="#FCEF24"/>
<path d="M42.875 80H42.375V80.5H42.875V80ZM42.875 50.9091V50.4091H42.375V50.9091H42.875ZM61.0994 52.1875L60.8666 52.63V52.63L61.0994 52.1875ZM64.8778 55.7812L65.3098 55.5295V55.5295L64.8778 55.7812ZM64.8352 66.6051L64.4081 66.3451L64.407 66.3471L64.8352 66.6051ZM60.9574 70.1278L60.7358 69.6796L60.7348 69.6801L60.9574 70.1278ZM47.6477 71.3636H47.1477V71.8636H47.6477V71.3636ZM47.6477 65.2273V64.7273H47.1477V65.2273H47.6477ZM55.929 64.7443L56.15 65.1928L56.1526 65.1915L55.929 64.7443ZM57.4489 63.3381L57.0189 63.0828L57.016 63.0878L57.4489 63.3381ZM57.4489 59.0625L57.0176 59.3158L57.0226 59.3238L57.4489 59.0625ZM55.929 57.6989L55.7079 58.1474L55.7158 58.1511L55.929 57.6989ZM50.7727 57.2159V56.7159H50.2727V57.2159H50.7727ZM50.7727 80V80.5H51.2727V80H50.7727ZM42.875 80H43.375V50.9091H42.875H42.375V80H42.875ZM42.875 50.9091V51.4091H55.4318V50.9091V50.4091H42.875V50.9091ZM55.4318 50.9091V51.4091C57.5243 51.4091 59.3309 51.8217 60.8666 52.63L61.0994 52.1875L61.3323 51.745C59.6293 50.8487 57.6575 50.4091 55.4318 50.4091V50.9091ZM61.0994 52.1875L60.8666 52.63C62.4051 53.4397 63.5946 54.5725 64.4459 56.033L64.8778 55.7812L65.3098 55.5295C64.3618 53.9029 63.0324 52.6398 61.3323 51.745L61.0994 52.1875ZM64.8778 55.7812L64.4459 56.033C65.2944 57.4889 65.7273 59.2033 65.7273 61.1932H66.2273H66.7273C66.7273 59.0543 66.2605 57.1607 65.3098 55.5295L64.8778 55.7812ZM66.2273 61.1932H65.7273C65.7273 63.2004 65.281 64.9112 64.4081 66.3451L64.8352 66.6051L65.2623 66.8651C66.2455 65.2498 66.7273 63.3527 66.7273 61.1932H66.2273ZM64.8352 66.6051L64.407 66.3471C63.54 67.7861 62.3208 68.8961 60.7358 69.6796L60.9574 70.1278L61.179 70.5761C62.9273 69.7118 64.2934 68.4734 65.2635 66.8631L64.8352 66.6051ZM60.9574 70.1278L60.7348 69.6801C59.1591 70.4635 57.3015 70.8636 55.1477 70.8636V71.3636V71.8636C57.4258 71.8636 59.4413 71.44 61.18 70.5756L60.9574 70.1278ZM55.1477 71.3636V70.8636H47.6477V71.3636V71.8636H55.1477V71.3636ZM47.6477 71.3636H48.1477V65.2273H47.6477H47.1477V71.3636H47.6477ZM47.6477 65.2273V65.7273H53.5568V65.2273V64.7273H47.6477V65.2273ZM53.5568 65.2273V65.7273C54.5411 65.7273 55.4116 65.5566 56.15 65.1928L55.929 64.7443L55.708 64.2958C55.1395 64.5759 54.4286 64.7273 53.5568 64.7273V65.2273ZM55.929 64.7443L56.1526 65.1915C56.8976 64.819 57.4794 64.2842 57.8817 63.5883L57.4489 63.3381L57.016 63.0878C56.7175 63.6041 56.2861 64.0067 55.7054 64.2971L55.929 64.7443ZM57.4489 63.3381L57.8788 63.5933C58.2918 62.8978 58.4886 62.0915 58.4886 61.1932H57.9886H57.4886C57.4886 61.9426 57.3257 62.5662 57.0189 63.0828L57.4489 63.3381ZM57.9886 61.1932H58.4886C58.4886 60.2871 58.2924 59.482 57.8752 58.8012L57.4489 59.0625L57.0226 59.3238C57.325 59.8172 57.4886 60.4326 57.4886 61.1932H57.9886ZM57.4489 59.0625L57.88 58.8093C57.4756 58.1207 56.8904 57.5993 56.1422 57.2466L55.929 57.6989L55.7158 58.1511C56.2933 58.4234 56.7214 58.8112 57.0177 59.3157L57.4489 59.0625ZM55.929 57.6989L56.15 57.2504C55.4116 56.8865 54.5411 56.7159 53.5568 56.7159V57.2159V57.7159C54.4286 57.7159 55.1395 57.8673 55.708 58.1474L55.929 57.6989ZM53.5568 57.2159V56.7159H50.7727V57.2159V57.7159H53.5568V57.2159ZM50.7727 57.2159H50.2727V80H50.7727H51.2727V57.2159H50.7727ZM50.7727 80V79.5H42.875V80V80.5H50.7727V80ZM69.2386 80H68.7386V80.5H69.2386V80ZM69.2386 58.1818V57.6818H68.7386V58.1818H69.2386ZM76.8523 58.1818H77.3523V57.6818H76.8523V58.1818ZM76.8523 62.3295H76.3523V62.8295H76.8523V62.3295ZM77.0795 62.3295V62.8295H77.4664L77.5635 62.455L77.0795 62.3295ZM78.9688 58.9631L78.6528 58.5755L78.6507 58.5772L78.9688 58.9631ZM83.0312 57.983L82.9468 58.4758L82.9546 58.4771L82.9625 58.4782L83.0312 57.983ZM84.0114 58.196H84.5114V57.8251L84.1564 57.7175L84.0114 58.196ZM84.0114 64.8864L83.8498 65.3595L84.5114 65.5854V64.8864H84.0114ZM82.5767 64.5881L82.6346 64.0914V64.0914L82.5767 64.5881ZM79.0398 65.0142L79.2849 65.45L79.2871 65.4487L79.0398 65.0142ZM77.6051 66.4631L78.0397 66.7104L78.0413 66.7076L77.6051 66.4631ZM77.0795 80V80.5H77.5795V80H77.0795ZM69.2386 80H69.7386V58.1818H69.2386H68.7386V80H69.2386ZM69.2386 58.1818V58.6818H76.8523V58.1818V57.6818H69.2386V58.1818ZM76.8523 58.1818H76.3523V62.3295H76.8523H77.3523V58.1818H76.8523ZM76.8523 62.3295V62.8295H77.0795V62.3295V61.8295H76.8523V62.3295ZM77.0795 62.3295L77.5635 62.455C77.9455 60.9817 78.5342 59.9692 79.2868 59.3489L78.9688 58.9631L78.6507 58.5772C77.6798 59.3774 77.009 60.6093 76.5955 62.2041L77.0795 62.3295ZM78.9688 58.9631L79.2847 59.3506C80.0632 58.7159 80.9685 58.3977 82.0227 58.3977V57.8977V57.3977C80.7474 57.3977 79.6167 57.7898 78.6528 58.5755L78.9688 58.9631ZM82.0227 57.8977V58.3977C82.3357 58.3977 82.6436 58.4238 82.9468 58.4758L83.0312 57.983L83.1157 57.4901C82.756 57.4285 82.3916 57.3977 82.0227 57.3977V57.8977ZM83.0312 57.983L82.9625 58.4782C83.279 58.5222 83.5801 58.5878 83.8664 58.6745L84.0114 58.196L84.1564 57.7175C83.8176 57.6149 83.4654 57.5384 83.1 57.4877L83.0312 57.983ZM84.0114 58.196H83.5114V64.8864H84.0114H84.5114V58.196H84.0114ZM84.0114 64.8864L84.1729 64.4132C83.7408 64.2656 83.2254 64.1604 82.6346 64.0914L82.5767 64.5881L82.5188 65.0847C83.0644 65.1483 83.5054 65.2419 83.8498 65.3595L84.0114 64.8864ZM82.5767 64.5881L82.6346 64.0914C82.0543 64.0237 81.5462 63.9886 81.1136 63.9886V64.4886V64.9886C81.4955 64.9886 81.9628 65.0198 82.5188 65.0847L82.5767 64.5881ZM81.1136 64.4886V63.9886C80.2673 63.9886 79.4895 64.1829 78.7924 64.5797L79.0398 65.0142L79.2871 65.4487C79.8211 65.1448 80.4259 64.9886 81.1136 64.9886V64.4886ZM79.0398 65.0142L78.7946 64.5784C78.106 64.9658 77.5628 65.516 77.169 66.2186L77.6051 66.4631L78.0413 66.7076C78.3482 66.1601 78.7614 65.7445 79.2849 65.45L79.0398 65.0142ZM77.6051 66.4631L77.1706 66.2157C76.7703 66.919 76.5795 67.7317 76.5795 68.6364H77.0795H77.5795C77.5795 67.8744 77.7392 67.2382 78.0396 66.7104L77.6051 66.4631ZM77.0795 68.6364H76.5795V80H77.0795H77.5795V68.6364H77.0795ZM77.0795 80V79.5H69.2386V80V80.5H77.0795V80ZM86.5824 80H86.0824V80.5H86.5824V80ZM86.5824 58.1818V57.6818H86.0824V58.1818H86.5824ZM94.4233 58.1818H94.9233V57.6818H94.4233V58.1818ZM94.4233 80V80.5H94.9233V80H94.4233ZM87.7756 54.858L87.436 55.225V55.225L87.7756 54.858ZM87.7756 49.8011L87.436 49.4341V49.4341L87.7756 49.8011ZM93.2301 49.8011L92.8883 50.1661L92.8906 50.1682L93.2301 49.8011ZM93.2301 54.858L92.8906 54.4909L92.8883 54.493L93.2301 54.858ZM86.5824 80H87.0824V58.1818H86.5824H86.0824V80H86.5824ZM86.5824 58.1818V58.6818H94.4233V58.1818V57.6818H86.5824V58.1818ZM94.4233 58.1818H93.9233V80H94.4233H94.9233V58.1818H94.4233ZM94.4233 80V79.5H86.5824V80V80.5H94.4233V80ZM90.5028 55.9091V55.4091C89.5642 55.4091 88.7775 55.1036 88.1151 54.4909L87.7756 54.858L87.436 55.225C88.2888 56.0138 89.3202 56.4091 90.5028 56.4091V55.9091ZM87.7756 54.858L88.1151 54.4909C87.4543 53.8797 87.1392 53.1677 87.1392 52.3295H86.6392H86.1392C86.1392 53.4611 86.5817 54.4347 87.436 55.225L87.7756 54.858ZM86.6392 52.3295H87.1392C87.1392 51.4914 87.4543 50.7794 88.1151 50.1682L87.7756 49.8011L87.436 49.4341C86.5817 50.2244 86.1392 51.198 86.1392 52.3295H86.6392ZM87.7756 49.8011L88.1151 50.1682C88.7775 49.5555 89.5642 49.25 90.5028 49.25V48.75V48.25C89.3202 48.25 88.2888 48.6453 87.436 49.4341L87.7756 49.8011ZM90.5028 48.75V49.25C91.4521 49.25 92.2372 49.5562 92.8883 50.166L93.2301 49.8011L93.5719 49.4362C92.7268 48.6446 91.6937 48.25 90.5028 48.25V48.75ZM93.2301 49.8011L92.8906 50.1682C93.5514 50.7794 93.8665 51.4914 93.8665 52.3295H94.3665H94.8665C94.8665 51.198 94.424 50.2244 93.5696 49.4341L93.2301 49.8011ZM94.3665 52.3295H93.8665C93.8665 53.1677 93.5514 53.8797 92.8906 54.4909L93.2301 54.858L93.5696 55.225C94.424 54.4347 94.8665 53.4611 94.8665 52.3295H94.3665ZM93.2301 54.858L92.8883 54.493C92.2372 55.1029 91.4521 55.4091 90.5028 55.4091V55.9091V56.4091C91.6937 56.4091 92.7268 56.0145 93.5719 55.2229L93.2301 54.858ZM98.4183 80H97.9183V80.5H98.4183V80ZM98.4183 58.1818V57.6818H97.9183V58.1818H98.4183ZM105.862 58.1818H106.362V57.6818H105.862V58.1818ZM105.862 62.3295H105.362V62.8295H105.862V62.3295ZM106.089 62.3295V62.8295H106.449L106.563 62.4877L106.089 62.3295ZM108.418 59.0909L108.125 58.6859V58.6859L108.418 59.0909ZM116.302 59.1193L116.006 59.5222L116.008 59.5238L116.302 59.1193ZM118.305 62.3295L117.812 62.4134L117.883 62.8295H118.305V62.3295ZM118.532 62.3295V62.8295H118.912L119.014 62.4628L118.532 62.3295ZM120.89 59.1193L121.168 59.5348L121.17 59.5333L120.89 59.1193ZM130.208 59.9148L129.848 60.2619L129.85 60.2632L130.208 59.9148ZM132.168 80V80.5H132.668V80H132.168ZM124.327 80H123.827V80.5H124.327V80ZM123.603 65.0284L123.227 65.3586L123.23 65.3618L123.603 65.0284ZM119.739 65.0284L119.361 64.7019L119.36 64.7025L119.739 65.0284ZM119.043 80V80.5H119.543V80H119.043ZM111.543 80H111.043V80.5H111.543V80ZM110.819 65.0284L110.443 65.3586L110.446 65.3618L110.819 65.0284ZM107.481 64.5739L107.749 64.9961V64.9961L107.481 64.5739ZM106.572 65.6392L106.119 65.4267L106.117 65.4309L106.572 65.6392ZM106.259 80V80.5H106.759V80H106.259ZM98.4183 80H98.9183V58.1818H98.4183H97.9183V80H98.4183ZM98.4183 58.1818V58.6818H105.862V58.1818V57.6818H98.4183V58.1818ZM105.862 58.1818H105.362V62.3295H105.862H106.362V58.1818H105.862ZM105.862 62.3295V62.8295H106.089V62.3295V61.8295H105.862V62.3295ZM106.089 62.3295L106.563 62.4877C106.987 61.2169 107.703 60.2262 108.712 59.4959L108.418 59.0909L108.125 58.6859C106.937 59.5465 106.1 60.7149 105.614 62.1714L106.089 62.3295ZM108.418 59.0909L108.712 59.4959C109.715 58.7694 110.916 58.3977 112.339 58.3977V57.8977V57.3977C110.731 57.3977 109.319 57.8215 108.125 58.6859L108.418 59.0909ZM112.339 57.8977V58.3977C113.779 58.3977 114.993 58.7781 116.006 59.5222L116.302 59.1193L116.598 58.7164C115.394 57.8317 113.966 57.3977 112.339 57.3977V57.8977ZM116.302 59.1193L116.008 59.5238C117.012 60.2529 117.607 61.2086 117.812 62.4134L118.305 62.3295L118.798 62.2456C118.548 60.7801 117.808 59.5955 116.596 58.7148L116.302 59.1193ZM118.305 62.3295V62.8295H118.532V62.3295V61.8295H118.305V62.3295ZM118.532 62.3295L119.014 62.4628C119.35 61.2486 120.06 60.2764 121.168 59.5348L120.89 59.1193L120.612 58.7038C119.314 59.5721 118.453 60.7401 118.05 62.1963L118.532 62.3295ZM120.89 59.1193L121.17 59.5333C122.281 58.7813 123.592 58.3977 125.123 58.3977V57.8977V57.3977C123.416 57.3977 121.904 57.8285 120.61 58.7053L120.89 59.1193ZM125.123 57.8977V58.3977C127.098 58.3977 128.657 59.0271 129.848 60.2619L130.208 59.9148L130.568 59.5676C129.165 58.1131 127.333 57.3977 125.123 57.3977V57.8977ZM130.208 59.9148L129.85 60.2632C131.049 61.4971 131.668 63.1527 131.668 65.2841H132.168H132.668C132.668 62.9458 131.981 61.0218 130.567 59.5663L130.208 59.9148ZM132.168 65.2841H131.668V80H132.168H132.668V65.2841H132.168ZM132.168 80V79.5H124.327V80V80.5H132.168V80ZM124.327 80H124.827V67.2727H124.327H123.827V80H124.327ZM124.327 67.2727H124.827C124.827 66.2335 124.564 65.3526 123.976 64.695L123.603 65.0284L123.23 65.3618C123.608 65.7838 123.827 66.3991 123.827 67.2727H124.327ZM123.603 65.0284L123.978 64.6982C123.389 64.0281 122.597 63.7045 121.657 63.7045V64.2045V64.7045C122.346 64.7045 122.851 64.9303 123.228 65.3586L123.603 65.0284ZM121.657 64.2045V63.7045C120.725 63.7045 119.94 64.0296 119.361 64.7019L119.739 65.0284L120.118 65.3549C120.485 64.9287 120.98 64.7045 121.657 64.7045V64.2045ZM119.739 65.0284L119.36 64.7025C118.795 65.3601 118.543 66.2381 118.543 67.2727H119.043H119.543C119.543 66.3945 119.756 65.7763 120.119 65.3544L119.739 65.0284ZM119.043 67.2727H118.543V80H119.043H119.543V67.2727H119.043ZM119.043 80V79.5H111.543V80V80.5H119.043V80ZM111.543 80H112.043V67.2727H111.543H111.043V80H111.543ZM111.543 67.2727H112.043C112.043 66.2335 111.78 65.3526 111.192 64.695L110.819 65.0284L110.446 65.3618C110.824 65.7838 111.043 66.3991 111.043 67.2727H111.543ZM110.819 65.0284L111.194 64.6982C110.605 64.0281 109.813 63.7045 108.873 63.7045V64.2045V64.7045C109.562 64.7045 110.067 64.9303 110.443 65.3586L110.819 65.0284ZM108.873 64.2045V63.7045C108.255 63.7045 107.694 63.8463 107.213 64.1516L107.481 64.5739L107.749 64.9961C108.044 64.809 108.411 64.7045 108.873 64.7045V64.2045ZM107.481 64.5739L107.213 64.1516C106.735 64.4545 106.373 64.8869 106.119 65.4268L106.572 65.6392L107.024 65.8517C107.207 65.4635 107.45 65.1857 107.749 64.9961L107.481 64.5739ZM106.572 65.6392L106.117 65.4309C105.872 65.9659 105.759 66.585 105.759 67.2727H106.259H106.759C106.759 66.6915 106.855 66.2216 107.026 65.8475L106.572 65.6392ZM106.259 67.2727H105.759V80H106.259H106.759V67.2727H106.259ZM106.259 80V79.5H98.4183V80V80.5H106.259V80ZM140.467 79.0625L140.231 79.5031L140.234 79.5046L140.467 79.0625ZM136.589 75.1989L136.148 75.4343L136.15 75.4372L136.589 75.1989ZM136.604 63.2386L137.044 63.476V63.476L136.604 63.2386ZM140.453 59.304L140.699 59.7392V59.7392L140.453 59.304ZM150.794 58.6648L150.973 58.1978V58.1978L150.794 58.6648ZM154.217 60.8949L153.859 61.2432L153.86 61.2449L154.217 60.8949ZM156.405 64.4176L155.936 64.5911V64.5911L156.405 64.4176ZM157.172 70.9091V71.4091H157.672V70.9091H157.172ZM137.683 70.9091H137.183V71.4091H137.683V70.9091ZM137.683 66.5909V66.0909H137.183V66.5909H137.683ZM149.956 66.5909V67.0909H150.464L150.456 66.5833L149.956 66.5909ZM149.473 64.9432L149.049 65.209L149.056 65.2186L149.473 64.9432ZM148.237 63.821L148.001 64.2616L148.01 64.2666L148.237 63.821ZM144.743 63.821L144.967 64.2683L144.973 64.265L144.743 63.821ZM143.464 64.929L143.051 64.6478L143.047 64.6536L143.464 64.929ZM142.967 66.5909L142.468 66.576L142.467 66.5834V66.5909H142.967ZM143.408 73.125L142.967 73.3607V73.3607L143.408 73.125ZM144.672 74.4176L144.425 74.8522V74.8522L144.672 74.4176ZM148.138 74.6591L147.98 74.1847L147.977 74.1858L148.138 74.6591ZM149.303 74.0057L149.633 74.3806L149.639 74.3752L149.303 74.0057ZM150.013 72.9545V72.4545H149.665L149.544 72.7802L150.013 72.9545ZM157.172 72.9545L157.665 73.0347L157.76 72.4545H157.172V72.9545ZM155.425 76.9034L155.81 77.2225L155.811 77.2209L155.425 76.9034ZM151.774 79.4886L151.961 79.9525L151.962 79.9519L151.774 79.4886ZM146.49 80.3977V79.8977C144.224 79.8977 142.3 79.465 140.701 78.6204L140.467 79.0625L140.234 79.5046C142.006 80.4403 144.097 80.8977 146.49 80.8977V80.3977ZM140.467 79.0625L140.704 78.6219C139.114 77.7686 137.892 76.5511 137.029 74.9605L136.589 75.1989L136.15 75.4372C137.105 77.1989 138.469 78.5572 140.231 79.5031L140.467 79.0625ZM136.589 75.1989L137.031 74.9634C136.178 73.3651 135.74 71.4327 135.74 69.1477H135.24H134.74C134.74 71.5598 135.202 73.6614 136.148 75.4343L136.589 75.1989ZM135.24 69.1477H135.74C135.74 66.9621 136.18 65.0768 137.044 63.476L136.604 63.2386L136.164 63.0013C135.209 64.7717 134.74 66.8258 134.74 69.1477H135.24ZM136.604 63.2386L137.044 63.476C137.908 61.8728 139.125 60.63 140.699 59.7392L140.453 59.304L140.207 58.8688C138.467 59.8529 137.117 61.2333 136.164 63.0013L136.604 63.2386ZM140.453 59.304L140.699 59.7392C142.269 58.8513 144.136 58.3977 146.32 58.3977V57.8977V57.3977C143.995 57.3977 141.952 57.8816 140.207 58.8688L140.453 59.304ZM146.32 57.8977V58.3977C147.915 58.3977 149.345 58.6453 150.615 59.1317L150.794 58.6648L150.973 58.1978C149.573 57.6616 148.019 57.3977 146.32 57.3977V57.8977ZM150.794 58.6648L150.615 59.1317C151.886 59.6184 152.965 60.3226 153.859 61.2432L154.217 60.8949L154.576 60.5466C153.576 59.5164 152.372 58.7338 150.973 58.1978L150.794 58.6648ZM154.217 60.8949L153.86 61.2449C154.754 62.1561 155.447 63.2686 155.936 64.5911L156.405 64.4176L156.874 64.2442C156.34 62.8015 155.575 61.5655 154.574 60.5449L154.217 60.8949ZM156.405 64.4176L155.936 64.5911C156.423 65.9093 156.672 67.407 156.672 69.0909H157.172H157.672C157.672 67.3089 157.409 65.6911 156.874 64.2442L156.405 64.4176ZM157.172 69.0909H156.672V70.9091H157.172H157.672V69.0909H157.172ZM157.172 70.9091V70.4091H137.683V70.9091V71.4091H157.172V70.9091ZM137.683 70.9091H138.183V66.5909H137.683H137.183V70.9091H137.683ZM137.683 66.5909V67.0909H149.956V66.5909V66.0909H137.683V66.5909ZM149.956 66.5909L150.456 66.5833C150.445 65.8731 150.261 65.2288 149.89 64.6678L149.473 64.9432L149.056 65.2186C149.31 65.6045 149.448 66.0588 149.456 66.5985L149.956 66.5909ZM149.473 64.9432L149.897 64.6774C149.544 64.1159 149.063 63.6806 148.464 63.3754L148.237 63.821L148.01 64.2666C148.453 64.4918 148.796 64.8046 149.049 65.2089L149.473 64.9432ZM148.237 63.821L148.474 63.3805C147.881 63.0621 147.215 62.9091 146.49 62.9091V63.4091V63.9091C147.071 63.9091 147.571 64.0307 148.001 64.2615L148.237 63.821ZM146.49 63.4091V62.9091C145.781 62.9091 145.119 63.0633 144.513 63.377L144.743 63.821L144.973 64.265C145.428 64.0295 145.93 63.9091 146.49 63.9091V63.4091ZM144.743 63.821L144.519 63.3738C143.915 63.6758 143.423 64.1011 143.051 64.6478L143.464 64.929L143.878 65.2101C144.15 64.8099 144.51 64.4966 144.967 64.2682L144.743 63.821ZM143.464 64.929L143.047 64.6536C142.678 65.2135 142.489 65.8601 142.468 66.576L142.967 66.5909L143.467 66.6058C143.484 66.0528 143.626 65.5914 143.882 65.2044L143.464 64.929ZM142.967 66.5909H142.467V71.25H142.967H143.467V66.5909H142.967ZM142.967 71.25H142.467C142.467 72.0225 142.63 72.7303 142.967 73.3607L143.408 73.125L143.849 72.8893C143.598 72.4213 143.467 71.879 143.467 71.25H142.967ZM143.408 73.125L142.967 73.3607C143.305 73.9945 143.795 74.4937 144.425 74.8522L144.672 74.4176L144.919 73.983C144.451 73.7165 144.097 73.354 143.849 72.8893L143.408 73.125ZM144.672 74.4176L144.425 74.8522C145.065 75.2164 145.817 75.3864 146.661 75.3864V74.8864V74.3864C145.951 74.3864 145.378 74.2439 144.919 73.983L144.672 74.4176ZM146.661 74.8864V75.3864C147.247 75.3864 147.795 75.304 148.299 75.1324L148.138 74.6591L147.977 74.1858C147.591 74.3172 147.153 74.3864 146.661 74.3864V74.8864ZM148.138 74.6591L148.296 75.1334C148.807 74.9632 149.256 74.714 149.633 74.3806L149.303 74.0057L148.972 73.6308C148.706 73.8656 148.378 74.052 147.98 74.1847L148.138 74.6591ZM149.303 74.0057L149.639 74.3752C150.02 74.0281 150.302 73.6109 150.481 73.1289L150.013 72.9545L149.544 72.7802C149.42 73.1126 149.229 73.3961 148.966 73.6362L149.303 74.0057ZM150.013 72.9545V73.4545H157.172V72.9545V72.4545H150.013V72.9545ZM157.172 72.9545L156.678 72.8743C156.445 74.3078 155.897 75.5409 155.038 76.5859L155.425 76.9034L155.811 77.2209C156.789 76.031 157.406 74.6315 157.665 73.0347L157.172 72.9545ZM155.425 76.9034L155.04 76.5843C154.181 77.6205 153.035 78.4367 151.586 79.0254L151.774 79.4886L151.962 79.9519C153.543 79.3096 154.832 78.4022 155.81 77.2225L155.425 76.9034ZM151.774 79.4886L151.587 79.0248C150.154 79.6019 148.458 79.8977 146.49 79.8977V80.3977V80.8977C148.556 80.8977 150.383 80.5874 151.961 79.9525L151.774 79.4886Z" fill="#4D4D4D" mask="url(#path-12-outside-1_4_1184)"/>
</g>
<g clip-path="url(#clip2_4_1184)">
<path d="M176.817 58.2598C177.128 57.9899 177.555 57.8331 178.007 57.833C178.46 57.833 178.888 57.9898 179.199 58.2598L189.825 67.5L187.495 69.5254L178.171 61.418L178.007 61.2754L177.843 61.418L168.519 69.5254L166.19 67.5L176.817 58.2598Z" fill="#FCEF24" stroke="#404040" stroke-width="0.5"/>
</g>
<g clip-path="url(#clip3_4_1184)">
<path d="M176.817 67.2598C177.128 66.9899 177.555 66.8331 178.007 66.833C178.46 66.833 178.888 66.9898 179.199 67.2598L189.825 76.5L187.495 78.5254L178.171 70.418L178.007 70.2754L177.843 70.418L168.519 78.5254L166.19 76.5L176.817 67.2598Z" fill="#FCEF24" stroke="#404040" stroke-width="0.5"/>
</g>
<g opacity="0.7">
<path d="M224.723 31.875L224.708 31.8696" stroke="white" stroke-miterlimit="10" stroke-linecap="round"/>
<path d="M237.524 36.7303L241.181 38.1177L234.006 57.0354L201 44.5164L208.175 25.5986L211.908 27.0143" stroke="white" stroke-miterlimit="10" stroke-linecap="round"/>
<path d="M224.708 31.8697L217.668 50.432C217.604 50.5991 217.39 50.644 217.263 50.519C211.269 44.6434 205.683 43.4253 205.683 43.4253L212.858 24.5081C212.858 24.5081 219.322 26.0057 224.708 31.8697Z" stroke="white" stroke-miterlimit="10" stroke-linecap="round"/>
<path d="M209.519 40.4565C211.346 41.2266 214.041 42.6435 216.961 45.1321" stroke="white" stroke-miterlimit="10" stroke-linecap="round"/>
<path d="M210.603 37.5962C212.431 38.3644 215.126 39.7812 218.046 42.2699" stroke="white" stroke-miterlimit="10" stroke-linecap="round"/>
<path d="M211.656 34.8208C213.485 35.589 216.179 37.0058 219.099 39.4945" stroke="white" stroke-miterlimit="10" stroke-linecap="round"/>
<path d="M213.992 28.6626C215.82 29.4308 218.515 30.8476 221.435 33.3363C221.435 33.3363 221.435 33.3363 220.373 36.1353C217.453 33.6468 214.759 32.2298 212.93 31.4616C212.93 31.4616 212.93 31.4616 213.992 28.6626Z" stroke="white" stroke-miterlimit="10" stroke-linecap="round"/>
<path d="M222.797 43.86C226.633 43.934 229.59 44.6603 231.468 45.2961" stroke="white" stroke-miterlimit="10" stroke-linecap="round"/>
<path d="M221.588 47.0475C225.424 47.1215 228.38 47.8478 230.259 48.4836" stroke="white" stroke-miterlimit="10" stroke-linecap="round"/>
<path d="M223.883 40.9973C227.719 41.0712 230.675 41.7976 232.553 42.4352" stroke="white" stroke-miterlimit="10" stroke-linecap="round"/>
<path d="M224.936 38.2214C228.772 38.2954 231.728 39.0217 233.606 39.6593" stroke="white" stroke-miterlimit="10" stroke-linecap="round"/>
<path d="M225.997 35.4226C229.833 35.4965 232.789 36.2229 234.667 36.8605" stroke="white" stroke-miterlimit="10" stroke-linecap="round"/>
<path d="M224.722 31.8747L217.681 50.437C217.618 50.6041 217.748 50.7796 217.927 50.7707C226.309 50.3477 231.298 53.141 231.298 53.141L238.473 34.2237C238.473 34.2237 232.642 31.0577 224.722 31.8747Z" stroke="white" stroke-miterlimit="10" stroke-linecap="round"/>
</g>
<g opacity="0.5">
<path d="M294.227 74.0159L273.847 66.508L292.237 55.1873L312.611 62.4113L294.227 74.0159Z" stroke="white" stroke-miterlimit="10" stroke-linecap="round"/>
<path d="M281.481 69.3207L282.18 75.9334C296.193 87.2239 306.622 73.5877 306.622 73.5877L305.889 66.6553" stroke="white" stroke-miterlimit="10" stroke-linecap="round"/>
<path d="M275.849 67.2559L275.836 67.2592L276.266 71.3272" stroke="white" stroke-miterlimit="10" stroke-linecap="round"/>
<path d="M278.049 72.7544C277.956 71.8722 277.165 71.2326 276.283 71.3258C275.401 71.4191 274.761 72.2099 274.854 73.0921C274.948 73.9743 275.738 74.6137 276.621 74.5204C277.503 74.4274 278.143 73.6366 278.049 72.7544Z" stroke="white" stroke-miterlimit="10" stroke-linecap="round"/>
<path d="M275.896 74.5301L275.051 78.0952L279.001 77.6779L277.232 74.4297" stroke="white" stroke-miterlimit="10" stroke-linecap="round"/>
<path d="M282.168 75.8221C279.747 79.0354 278.476 83.129 278.893 87.4407C278.897 87.4953 278.902 87.5475 278.908 87.5995C278.913 87.6515 278.919 87.7037 278.927 87.7579C279.965 96.7771 288.033 103.309 297.072 102.443C297.126 102.44 297.183 102.434 297.24 102.428C297.297 102.422 297.353 102.416 297.407 102.407C306.425 101.365 312.952 93.2909 312.082 84.2539C312.079 84.1993 312.073 84.147 312.068 84.0951C312.062 84.0431 312.057 83.9909 312.048 83.9367C311.564 79.7237 309.542 76.0539 306.607 73.4273" stroke="white" stroke-miterlimit="10"/>
<path d="M286.334 78.6418C286.32 78.7051 286.308 78.7684 286.295 78.8338C285.813 81.2576 285.682 83.9928 285.984 86.8516C286.286 89.7107 286.985 92.3557 287.964 94.6273C290.085 99.5499 293.52 102.708 297.071 102.443C297.126 102.44 297.183 102.434 297.239 102.428C297.296 102.422 297.353 102.416 297.407 102.407C300.935 101.925 303.635 98.1179 304.68 92.8607C305.161 90.4348 305.292 87.7021 304.99 84.843C304.688 81.9839 303.989 79.3389 303.011 77.0694L303.01 77.067C303.004 77.0494 302.995 77.0318 302.987 77.0166" stroke="white" stroke-miterlimit="10"/>
<path d="M302.94 77.0519C302.964 77.0586 302.987 77.063 303.011 77.0673L303.011 77.0697C308.017 78.1178 311.597 80.6466 312.048 83.9368C312.056 83.9909 312.062 84.0432 312.067 84.0951C312.073 84.1471 312.078 84.1994 312.081 84.254C312.328 87.5658 309.356 90.7892 304.68 92.8608C302.31 93.9137 299.501 94.6689 296.454 94.9909C293.406 95.313 290.504 95.1612 287.964 94.6274C282.958 93.5793 279.378 91.0484 278.927 87.7579C278.919 87.7038 278.913 87.6515 278.908 87.5996C278.902 87.5476 278.897 87.4953 278.893 87.4407C278.646 84.1289 281.619 80.9055 286.295 78.8339C286.369 78.8007 286.444 78.7678 286.521 78.7368" stroke="white" stroke-miterlimit="10"/>
<path d="M297.248 102.51L297.239 102.428L296.453 94.9915L295.487 85.8479L294.903 80.3271" stroke="white" stroke-miterlimit="10"/>
<path d="M278.906 87.6006L312.067 84.096" stroke="white" stroke-miterlimit="10"/>
</g>
<g opacity="0.7">
<path d="M10.3474 220.714L1.77401 221.137L1.98455 225.398C2.10085 227.751 4.13026 229.562 6.51886 229.444C8.90159 229.326 10.7278 227.331 10.618 224.983L10.6001 224.621L8.63289 184.813L45.3145 183L47.2938 223.17C47.3945 225.512 45.5595 227.516 43.18 227.633L6.51827 229.445" stroke="white" stroke-miterlimit="10" stroke-linecap="round"/>
<path d="M40.8174 200.903C41.1841 197.671 38.8224 194.761 35.5425 194.405C32.2626 194.048 29.3065 196.379 28.9398 199.612C28.5731 202.844 30.9348 205.754 34.2147 206.111C37.4946 206.467 40.4507 204.136 40.8174 200.903Z" stroke="white" stroke-miterlimit="10" stroke-linecap="round"/>
<path d="M38.4647 204.94L38.9437 214.631L35.7515 212.251L32.8095 214.934L32.3465 205.564" stroke="white" stroke-miterlimit="10" stroke-linecap="round"/>
<path d="M37.7192 200.475C37.8817 198.93 36.743 197.55 35.1759 197.392C33.6088 197.234 32.2067 198.358 32.0442 199.903C31.8817 201.447 33.0204 202.827 34.5875 202.985C36.1545 203.143 37.5567 202.019 37.7192 200.475Z" stroke="white" stroke-miterlimit="10" stroke-linecap="round"/>
<path d="M15.4351 198.03L24.2551 197.594" stroke="white" stroke-miterlimit="10" stroke-linecap="round"/>
<path d="M15.7061 203.502L24.5261 203.066" stroke="white" stroke-miterlimit="10" stroke-linecap="round"/>
<path d="M15.9922 209.295L24.8123 208.86" stroke="white" stroke-miterlimit="10" stroke-linecap="round"/>
<path d="M16.2622 214.768L25.0823 214.332" stroke="white" stroke-miterlimit="10" stroke-linecap="round"/>
</g>
</g>
<defs>
<filter id="filter0_d_4_1184" x="35.375" y="42.25" width="129.385" height="46.6479" filterUnits="userSpaceOnUse" color-interpolation-filters="sRGB">
<feFlood flood-opacity="0" result="BackgroundImageFix"/>
<feColorMatrix in="SourceAlpha" type="matrix" values="0 0 0 0 0 0 0 0 0 0 0 0 0 0 0 0 0 0 127 0" result="hardAlpha"/>
<feOffset dy="1"/>
<feGaussianBlur stdDeviation="3.5"/>
<feComposite in2="hardAlpha" operator="out"/>
<feColorMatrix type="matrix" values="0 0 0 0 0 0 0 0 0 0 0 0 0 0 0 0 0 0 0.16 0"/>
<feBlend mode="normal" in2="BackgroundImageFix" result="effect1_dropShadow_4_1184"/>
<feBlend mode="normal" in="SourceGraphic" in2="effect1_dropShadow_4_1184" result="shape"/>
</filter>
<linearGradient id="paint0_linear_4_1184" x1="170" y1="0" x2="170" y2="225" gradientUnits="userSpaceOnUse">
<stop stop-color="#EC9A26"/>
<stop offset="1" stop-color="#F2BA6A"/>
</linearGradient>
<clipPath id="clip0_4_1184">
<rect width="340" height="225" rx="20" fill="white"/>
</clipPath>
<clipPath id="clip1_4_1184">
<rect width="181" height="69" fill="white" transform="translate(117 113)"/>
</clipPath>
<clipPath id="clip2_4_1184">
<rect width="20" height="46" fill="white" transform="matrix(0 -1 1 0 155 75)"/>
</clipPath>
<clipPath id="clip3_4_1184">
<rect width="20" height="46" fill="white" transform="matrix(0 -1 1 0 155 84)"/>
</clipPath>
</defs>
</svg>
